<svg id="レイヤー_1" data-name="レイヤー 1" xmlns="http://www.w3.org/2000/svg" viewBox="0 0 713.69 86.31"><defs><style>.cls-1{fill:#231815;}.cls-2{fill:none;stroke:#231815;stroke-miterlimit:10;}</style></defs><title>prices-DG</title><path class="cls-1" d="M308.23,56c0.94-3.52,3.75-5.38,7.53-5.38,4.53,0,7.46,2.64,7.46,6.26a5.41,5.41,0,0,1-4.76,5.61v0.23c3.36,0.72,5.25,3,5.25,6.26,0,4.4-3.19,7.4-8,7.4-4.11,0-6.81-1.66-7.92-5.51l4-1.17c0.55,2.51,1.73,3.52,3.88,3.52,2.35,0,3.81-1.56,3.81-4.2,0-2.84-1.34-4.5-4.82-4.5h-1.89V61.17h1.73c3.26,0,4.56-1.4,4.56-3.91a3.16,3.16,0,0,0-3.42-3.49c-1.73,0-3.13,1.08-3.45,3.42Z"/><path class="cls-1" d="M348,63.39c0,9.22-2.8,13-7.89,13s-7.79-3.68-7.79-12.91,2.84-12.84,7.86-12.84S348,54.2,348,63.39Zm-11.47,0c0,7.33,1,9.71,3.58,9.71s3.68-2.41,3.68-9.71-1-9.58-3.62-9.58S336.52,56.06,336.52,63.42Z"/><path class="cls-1" d="M372.17,63.39c0,9.22-2.8,13-7.89,13s-7.79-3.68-7.79-12.91,2.84-12.84,7.85-12.84S372.17,54.2,372.17,63.39Zm-11.47,0c0,7.33,1,9.71,3.59,9.71S368,70.72,368,63.42s-1-9.58-3.62-9.58S360.69,56.06,360.69,63.42Z"/><path class="cls-1" d="M396.35,63.39c0,9.22-2.8,13-7.89,13s-7.79-3.68-7.79-12.91,2.84-12.84,7.85-12.84S396.35,54.2,396.35,63.39Zm-11.47,0c0,7.33,1,9.71,3.59,9.71s3.68-2.41,3.68-9.71-1-9.58-3.62-9.58S384.87,56.06,384.87,63.42Z"/><path class="cls-1" d="M440.83,68.57c0,2.84.06,4.53,0.06,5.64a3.08,3.08,0,0,1-1,2.71c-0.78.62-1.86,0.85-5.31,0.85-1,0-1.08,0-1.27-1a9.47,9.47,0,0,0-.85-2.51c1.37,0.13,2.9.16,3.68,0.16,1,0,1.27-.29,1.27-1.11V65.12h-19v6.94c0,3.55.07,5.38,0.07,5.57s0,0.36-.39.36h-2.83c-0.33,0-.36,0-0.36-0.36s0.07-2.22.07-6.39V57.3c0-4.17-.07-6.23-0.07-6.42,0-.36,0-0.39.36-0.39s1.34,0.07,4.43.07h16.52c3.1,0,4.2-.07,4.4-0.07s0.36,0,.36.39c0,0.2-.06,2.38-0.06,6.55V68.57ZM426,62V53.74h-7.66V62H426Zm3.39-8.21V62h8V53.74h-8Z"/><path class="cls-1" d="M14,15.36a32.74,32.74,0,0,1,7.38,3.16,0.43,0.43,0,0,1,.26.6,13.65,13.65,0,0,1-1,2,0.39,0.39,0,0,1-.3.26,0.35,0.35,0,0,1-.26-0.12,25.72,25.72,0,0,0-6.1-3v5.13c0,1.51,0,2.88.09,4.55,0,0.28-.09.35-0.42,0.35a15.35,15.35,0,0,1-2.07,0c-0.33,0-.44-0.07-0.44-0.35,0.07-1.72.09-3.09,0.09-4.57V12A17.74,17.74,0,0,0,11,8.56a17.16,17.16,0,0,1,2.9.37,0.43,0.43,0,0,1,.44.39,1.23,1.23,0,0,1-.19.53A6,6,0,0,0,14,12v3.32Z"/><path class="cls-1" d="M38.11,17.11c-1.16,0-2.32,0-3.48.09-0.21,0-.3-0.14-0.35-0.44A17.64,17.64,0,0,1,34,14.41a41.1,41.1,0,0,0,4.27.19h8a2.56,2.56,0,0,0,1.23-.25,0.5,0.5,0,0,1,.3-0.14,0.6,0.6,0,0,1,.35.16,13.69,13.69,0,0,1,1.56,1.44,0.68,0.68,0,0,1,.23.49,0.56,0.56,0,0,1-.26.44,2.66,2.66,0,0,0-.79,1.09,20.29,20.29,0,0,1-9.47,10.26,1.11,1.11,0,0,1-.46.16A0.76,0.76,0,0,1,38.43,28a6.81,6.81,0,0,0-2.16-1.21c4.29-2,8.08-5.2,9.75-9.68Zm1.55-5c-1,0-2.2,0-3.18.09-0.23,0-.3-0.14-0.32-0.51A20.18,20.18,0,0,1,36,9.47a32,32,0,0,0,3.81.16H44c1.51,0,2.74-.07,3.64-0.12,0.21,0,.28.12,0.28,0.37a11.79,11.79,0,0,1,0,1.81c0,0.39-.07.49-0.42,0.46-0.77,0-1.86,0-3.27,0h-4.6Z"/><path class="cls-1" d="M71.69,23c0,1.6,0,3,.07,4.83a0.3,0.3,0,0,1-.35.39,19.37,19.37,0,0,1-2.32,0,0.28,0.28,0,0,1-.33-0.37c0-1.67.09-3.18,0.09-4.76V17.64a40.12,40.12,0,0,1-6.38,4.46A0.65,0.65,0,0,1,61.64,22a8.7,8.7,0,0,0-2-1.37A37.24,37.24,0,0,0,67,15.83,37.68,37.68,0,0,0,71.9,11a6.73,6.73,0,0,0,1.46-2.39,20.58,20.58,0,0,1,2.58,1.62,0.41,0.41,0,0,1,.19.35,0.67,0.67,0,0,1-.33.51,7.63,7.63,0,0,0-1.39,1.28,36.63,36.63,0,0,1-2.72,2.92V23Z"/><path class="cls-1" d="M92,13.07c-1.32,0-2.74.09-4.11,0.19a0.36,0.36,0,0,1-.42-0.35,21.73,21.73,0,0,1-.42-2.51c1.58,0.12,2.85.16,4.71,0.16h10a4.89,4.89,0,0,0,1.6-.14,1.71,1.71,0,0,1,.44-0.16,0.79,0.79,0,0,1,.53.33A12,12,0,0,1,105.74,12a0.67,0.67,0,0,1,.19.42,0.61,0.61,0,0,1-.33.49,2.87,2.87,0,0,0-.63.67,19.74,19.74,0,0,1-4.08,4.48,0.67,0.67,0,0,1-.49.21,0.91,0.91,0,0,1-.56-0.23,5.36,5.36,0,0,0-1.93-1,16.5,16.5,0,0,0,4.15-4.06H92Zm1.3,9.05a10.73,10.73,0,0,0,1.14-5.48,8.39,8.39,0,0,0-.23-2.18,25.88,25.88,0,0,1,3,.44,0.42,0.42,0,0,1,.39.44,0.94,0.94,0,0,1-.12.42,2.12,2.12,0,0,0-.21,1,14.19,14.19,0,0,1-1.37,6.38,12.08,12.08,0,0,1-4.22,4.62,1.17,1.17,0,0,1-.65.23,0.66,0.66,0,0,1-.46-0.21,6.53,6.53,0,0,0-2.11-1.18A10.28,10.28,0,0,0,93.35,22.12Z"/><path class="cls-1" d="M120.53,12.58a0.46,0.46,0,0,1,.3.72,3.35,3.35,0,0,0-.28,1.58,17.37,17.37,0,0,1-1.25,6.82,12,12,0,0,1-3.3,4.36,1.05,1.05,0,0,1-.6.3,0.79,0.79,0,0,1-.44-0.19,8.22,8.22,0,0,0-2-1,11.52,11.52,0,0,0,3.85-4.62c0.65-1.58,1-2.85,1-6.57a6.23,6.23,0,0,0-.23-1.95A18.74,18.74,0,0,1,120.53,12.58Zm5.15,9.82a23.57,23.57,0,0,0,3.3-2.16A22.26,22.26,0,0,0,133,16.29a6.69,6.69,0,0,0,.72,2.34,1.16,1.16,0,0,1,.14.39,0.88,0.88,0,0,1-.35.58,29.36,29.36,0,0,1-3.44,3A38.55,38.55,0,0,1,126,25.44a7.64,7.64,0,0,0-.67.49,0.74,0.74,0,0,1-.46.19,1,1,0,0,1-.49-0.19A6.7,6.7,0,0,1,123,24.51a0.92,0.92,0,0,1-.21-0.49,0.71,0.71,0,0,1,.09-0.35,4,4,0,0,0,.14-1.76V14.64a18.54,18.54,0,0,0-.23-4,22.16,22.16,0,0,1,2.9.49,0.42,0.42,0,0,1,.42.39,1.49,1.49,0,0,1-.19.58,6.42,6.42,0,0,0-.21,2.58V22.4Z"/><path class="cls-1" d="M144.08,11.12a21.67,21.67,0,0,0-.19-3.27c0.86,0,1.55.07,2.34,0.16a0.36,0.36,0,0,1,.37.23,1.09,1.09,0,0,1-.14.49,6.75,6.75,0,0,0-.16,2.34v4.36h0.19c1.79,0,2.37,0,2.51,0s0.26,0,.26.26v1.65c0,0.21,0,.23-0.26.23s-0.7,0-2.37,0a20.71,20.71,0,0,0,3.13,4,7.09,7.09,0,0,0-.93,1.53,0.64,0.64,0,0,1-.32.42,0.67,0.67,0,0,1-.37-0.35,19.46,19.46,0,0,1-1.88-3.32c0,4.6.16,8.75,0.16,9.1s0,0.26-.28.26h-1.9c-0.23,0-.26,0-0.26-0.26s0.12-4.18.16-8.52a21.85,21.85,0,0,1-2.81,5.29,0.78,0.78,0,0,1-.42.37,0.46,0.46,0,0,1-.28-0.39,5.73,5.73,0,0,0-.84-1.69,19.5,19.5,0,0,0,3.74-6.45h-0.42c-1.81,0-2.39,0-2.53,0s-0.25,0-.25-0.23V15.64c0-.23,0-0.26.25-0.26s0.72,0,2.53,0h1V11.12Zm-2.23-1.58c0.28-.12.3-0.09,0.42,0.14a18.55,18.55,0,0,1,1.25,3.9c0,0.23,0,.3-0.3.42l-1,.37c-0.35.14-.37,0.12-0.42-0.14a17.51,17.51,0,0,0-1.18-3.88c-0.09-.26,0-0.3.26-0.42Zm6,0.77a8.68,8.68,0,0,0,.14-1,16.21,16.21,0,0,1,1.76.65,0.33,0.33,0,0,1,.26.28,0.23,0.23,0,0,1-.14.23,0.82,0.82,0,0,0-.28.51,28.88,28.88,0,0,1-1.07,2.95c-0.14.35-.21,0.49-0.35,0.49a1.16,1.16,0,0,1-.46-0.21,6.41,6.41,0,0,0-.93-0.39A21.74,21.74,0,0,0,147.82,10.3Zm8.42,10.51V11.53A21.93,21.93,0,0,0,156.06,8c0.88,0,1.65.07,2.46,0.16a0.32,0.32,0,0,1,.35.26,1.31,1.31,0,0,1-.14.46,9.55,9.55,0,0,0-.14,2.58v8.89c1.35-.28,1.88-0.44,2.09-0.49s0.21,0,.26.23l0.28,1.81c0,0.21,0,.23-0.23.28s-0.79.14-2.39,0.46v2.16c0,2.58,0,3.9,0,4s0,0.26-.26.26h-1.93c-0.23,0-.26,0-0.26-0.26s0-1.42,0-4V23.12l-3.18.63c-2,.39-2.76.56-3,0.6s-0.28,0-.3-0.19l-0.3-1.83c0-.26,0-0.26.21-0.3s1-.12,3-0.51Zm-5.11-5.92a0.24,0.24,0,0,1,.44,0,16.63,16.63,0,0,1,3.2,3c0.16,0.21.16,0.26-.07,0.49l-1.14,1.14c-0.25.23-.3,0.23-0.46,0A19.84,19.84,0,0,0,150,16.36a0.48,0.48,0,0,1-.16-0.19,0.48,0.48,0,0,1,.19-0.26Zm0.63-5.29c0.21-.19.23-0.23,0.44-0.09a16.35,16.35,0,0,1,3.27,2.95c0.14,0.16.14,0.25-.07,0.44L154.3,14c-0.26.25-.3,0.28-0.44,0.07a16.77,16.77,0,0,0-3.16-3c-0.16-.12-0.19-0.23,0-0.44Z"/><path class="cls-1" d="M170.87,28.27c-2.11,0-2.83,0-3,0s-0.28,0-.28-0.23V26.32c0-.23,0-0.26.28-0.26s0.86,0,3,0h5.29V21.05h-4.43c-2.21,0-3,0-3.11,0s-0.28,0-.28-0.26V19.1c0-.23,0-0.25.28-0.25s0.9,0,3.11,0h4.43V16.76h-0.9c-2,0-2.72,0-2.85,0s-0.26,0-.26-0.23V15.18A28.39,28.39,0,0,1,168.59,17a1.53,1.53,0,0,1-.56.19,0.71,0.71,0,0,1-.46-0.53,4.6,4.6,0,0,0-1.11-1.37c4.22-1.67,7.15-3.78,9-6.24a5.64,5.64,0,0,0,.93-1.53A13.7,13.7,0,0,1,178.9,8a0.5,0.5,0,0,1,.42.37,0.39,0.39,0,0,1-.23.32,0.48,0.48,0,0,1-.14.09,18.8,18.8,0,0,0,9.79,6.06,5.74,5.74,0,0,0-1,1.65c-0.19.42-.26,0.58-0.44,0.58a2.16,2.16,0,0,1-.56-0.16A26.07,26.07,0,0,1,183,15.16v1.39c0,0.21,0,.23-0.25.23s-0.86,0-2.88,0h-1.25v2.14h4.83c2.2,0,3,0,3.11,0s0.26,0,.26.25v1.74c0,0.33,0,.26-0.26.26s-0.91,0-3.11,0h-4.83v5.06h5.62c2.13,0,2.85,0,3,0s0.26,0,.26.26v1.76c0,0.21,0,.23-0.26.23s-0.86,0-3,0H170.87Zm1.32-6.75c0.3-.14.37-0.14,0.53,0.09a18.39,18.39,0,0,1,1.65,3.06c0.09,0.23.07,0.28-.21,0.42l-1.44.72c-0.35.14-.37,0.14-0.46-0.09a13.12,13.12,0,0,0-1.58-3.18c-0.16-.21-0.12-0.26.19-0.39Zm7.71-6.87c1.11,0,1.81,0,2.25,0a18.23,18.23,0,0,1-4.62-4.11A20.41,20.41,0,0,1,173,14.62c0.44,0,1.14,0,2.25,0h4.64Zm1.79,7.91a6,6,0,0,0,.44-1.23,10.15,10.15,0,0,1,1.95.74,0.58,0.58,0,0,1,.42.4,0.45,0.45,0,0,1-.28.37,2.3,2.3,0,0,0-.53.74,20.14,20.14,0,0,1-1.23,2.07,0.56,0.56,0,0,1-.37.3,1.59,1.59,0,0,1-.53-0.19,7.11,7.11,0,0,0-1.37-.58A14.6,14.6,0,0,0,181.68,22.56Z"/><path class="cls-1" d="M207.77,7.64a15.21,15.21,0,0,0-4.11,10.84,15.17,15.17,0,0,0,4.11,10.84l-0.7.65c-3.85-3.41-5.52-7-5.52-11.49s1.69-8.05,5.52-11.49Z"/><path class="cls-1" d="M224.78,10a0.52,0.52,0,0,1,.35.46A1.18,1.18,0,0,1,225,11a4.72,4.72,0,0,0-.42,1.28,46.07,46.07,0,0,0-1.16,8.45c0,0.93,0,2,.07,3,0.46-1.07,1-2.07,1.44-3.23a6.18,6.18,0,0,0,.81,1.46,0.5,0.5,0,0,1,.14.32,0.67,0.67,0,0,1-.14.37,13.77,13.77,0,0,0-1.18,3.53,4.38,4.38,0,0,0,0,1.23c0,0.16-.07.23-0.28,0.3a9.74,9.74,0,0,1-1.74.4c-0.26.07-.35,0-0.46-0.28a21.62,21.62,0,0,1-1-7.08,50.39,50.39,0,0,1,1-8.8,11.68,11.68,0,0,0,.16-2.74A18.11,18.11,0,0,1,224.78,10Zm8,6.2a47,47,0,0,1-4.78,0c-0.3,0-.4-0.07-0.42-0.3a14.23,14.23,0,0,1-.16-2.11,33.54,33.54,0,0,0,5.29.07c0-.84,0-1.58,0-2.44a9.57,9.57,0,0,0-.3-2.27,12.93,12.93,0,0,1,2.81.44,0.45,0.45,0,0,1,.42.39,1,1,0,0,1-.14.39,2.61,2.61,0,0,0-.19.81c0,0.79,0,1.39,0,2.46,1.09-.09,2.3-0.26,3.3-0.42,0.28-.07.32,0,0.37,0.28a9.28,9.28,0,0,1,.14,1.65,0.3,0.3,0,0,1-.25.35,26.22,26.22,0,0,1-3.57.49c0,2.6,0,4.22.16,6.22a15.2,15.2,0,0,1,3.85,2.23c0.21,0.14.23,0.21,0.12,0.46a12.56,12.56,0,0,1-1.07,1.79,0.28,0.28,0,0,1-.21.14,0.32,0.32,0,0,1-.21-0.12,13.79,13.79,0,0,0-2.51-1.86c-0.19,1.95-1.51,3-4.25,3s-4.15-1.25-4.15-3.25,1.72-3.27,4.06-3.27a9.67,9.67,0,0,1,1.86.19C232.81,19.73,232.79,18,232.77,16.2Zm-1.88,7.22c-1.09,0-1.74.39-1.74,1.11s0.51,1.16,1.88,1.16a1.67,1.67,0,0,0,1.9-1.51,3.24,3.24,0,0,0,0-.46A6.47,6.47,0,0,0,230.89,23.42Z"/><path class="cls-1" d="M254.1,9.4c0.39,0.09.56,0.21,0.56,0.44a2.25,2.25,0,0,1-.23.77,13.9,13.9,0,0,0-.33,2.83c-0.26,4-.35,6.17-0.35,8.91,0,2.51.28,2.95,2.14,2.95,2.07,0,5.29-1.25,8.12-4.27a8.07,8.07,0,0,0,.53,2.2,1.52,1.52,0,0,1,.19.56,1,1,0,0,1-.46.72,13.26,13.26,0,0,1-8.8,3.48c-3,0-4.36-1.18-4.36-4.73,0-3.9.21-7.24,0.32-10A15.43,15.43,0,0,0,251.2,9,24.06,24.06,0,0,1,254.1,9.4Zm7,1.53a0.24,0.24,0,0,1,.35,0,10.68,10.68,0,0,1,2.21,2.48,0.23,0.23,0,0,1-.07.37l-1,.72a0.24,0.24,0,0,1-.39-0.07,11.51,11.51,0,0,0-2.34-2.69Zm2.07-1.51a0.24,0.24,0,0,1,.35,0,9.69,9.69,0,0,1,2.21,2.39,0.27,0.27,0,0,1-.07.42l-0.93.72a0.24,0.24,0,0,1-.39-0.07A11,11,0,0,0,262,10.26Z"/><path class="cls-1" d="M285.17,10.65a6,6,0,0,0,0-1.58A9.61,9.61,0,0,1,288,10a0.5,0.5,0,0,1,.37.42,0.8,0.8,0,0,1-.16.39,3.84,3.84,0,0,0-.46.86c-0.14.37-.35,0.93-0.65,1.86,3.67,0.58,6.2,3,6.2,6.73,0,4.13-2.51,6.61-7.12,7.75a0.7,0.7,0,0,1-1-.39,4.75,4.75,0,0,0-1.51-1.53c3.16-.65,6.94-2.09,6.94-6.13a4.33,4.33,0,0,0-4.18-4.39A41.79,41.79,0,0,1,283,22.35a8.15,8.15,0,0,0,1,1.18,6.64,6.64,0,0,1-1.44,1.42,0.55,0.55,0,0,1-.32.12,0.5,0.5,0,0,1-.33-0.14c-0.19-.19-0.37-0.37-0.63-0.67-1.51,1.6-2.62,2.21-3.87,2.21-1.76,0-3-1.44-3-3.76A8.85,8.85,0,0,1,277.7,16c-0.25-.88-0.49-2-0.72-3.06a10.46,10.46,0,0,0-.7-2.18,10.07,10.07,0,0,1,2.62.37,0.53,0.53,0,0,1,.44.67,7.55,7.55,0,0,0,.09,1.32c0.12,0.67.19,1.09,0.33,1.65a13.28,13.28,0,0,1,4.73-1.32A17.51,17.51,0,0,0,285.17,10.65ZM276.8,22.47c0,0.79.33,1.42,0.81,1.42,0.7,0,1.44-.51,2.41-1.69a24,24,0,0,1-1.6-3.76A6.5,6.5,0,0,0,276.8,22.47Zm4.83-2.18a27.94,27.94,0,0,0,2.21-4.69,9.11,9.11,0,0,0-3.5,1.3A17.37,17.37,0,0,0,281.62,20.28Z"/><path class="cls-1" d="M312.61,13.25c-2.83.53-5.31,1-7.8,1.53-0.88.21-1.11,0.26-1.46,0.37a1.35,1.35,0,0,1-.51.19A0.54,0.54,0,0,1,302.4,15a16.16,16.16,0,0,1-.86-2.51,32,32,0,0,0,3.69-.39c2.86-.42,8-1.18,13.95-2,0.35,0,.46.09,0.49,0.26a13.39,13.39,0,0,1,.25,2c0,0.28-.14.35-0.44,0.35a10.38,10.38,0,0,0-2.83.51c-3.95,1.35-5.92,4.06-5.92,6.85,0,3,2.13,4.62,6.17,4.87,0.37,0,.51.09,0.51,0.35a8.27,8.27,0,0,1-.25,2c-0.07.35-.16,0.49-0.44,0.49-4.08,0-8.56-2.34-8.56-7.17,0-3.3,1.65-5.52,4.46-7.36v0Z"/><path class="cls-1" d="M339.58,13.07a29.06,29.06,0,0,1-2.9,10c-1,1.74-2.2,2.67-3.95,2.67-2,0-4.11-2.18-4.11-6a8.55,8.55,0,0,1,2.62-6,10.16,10.16,0,0,1,7.54-3c5.57,0,8.84,3.43,8.84,8.05,0,4.32-2.44,7-7.15,8.45a0.74,0.74,0,0,1-1-.42,4.93,4.93,0,0,0-1.62-1.46c3.92-.93,7-2.55,7-6.94a5.27,5.27,0,0,0-5.2-5.38h-0.09Zm-6.66,2.25a6.69,6.69,0,0,0-1.81,4.29c0,2.14.86,3.32,1.58,3.32s1.11-.3,1.74-1.42a26.51,26.51,0,0,0,2.46-8.31A7,7,0,0,0,332.92,15.32Z"/><path class="cls-1" d="M361.07,16c-1.16.09-2.34,0.19-3.9,0.19a0.46,0.46,0,0,1-.56-0.49c-0.07-.44-0.16-1.21-0.26-2a11.87,11.87,0,0,0,1.81.12c1,0,2-.09,2.95-0.19,0-.77,0-1.65,0-2.65A8.56,8.56,0,0,0,361,9.12a13.15,13.15,0,0,1,2.76.42,0.52,0.52,0,0,1,.46.44,0.83,0.83,0,0,1-.14.37,2.84,2.84,0,0,0-.32.91c-0.07.6-.09,1.18-0.12,1.93a22.81,22.81,0,0,0,3-.86c0.21-.07.37,0,0.39,0.21a11.67,11.67,0,0,1,.14,1.81,0.32,0.32,0,0,1-.3.37,23.61,23.61,0,0,1-3.32.88c0,1.11,0,2.25,0,3.37a14.66,14.66,0,0,1,5.71-1.28c2.88,0,4.94,1.86,4.94,4.64,0,3-1.9,4.71-5,4.71a9,9,0,0,1-1.9-.21,0.62,0.62,0,0,1-.51-0.7,4.06,4.06,0,0,0-.7-2,8.65,8.65,0,0,0,2.9.42,2.3,2.3,0,0,0,2.51-2.39c0-1.51-.93-2.34-2.55-2.34a11.48,11.48,0,0,0-5.31,1.58c0,1,0,1.76.09,2.78s0.19,2.48.19,3c0,0.33,0,.67-0.35.77a9.43,9.43,0,0,1-1.72.28,0.66,0.66,0,0,1-.56-0.46,14.28,14.28,0,0,0-3.3-3,4.19,4.19,0,0,0-.74.51,0.58,0.58,0,0,1-.39.16,0.65,0.65,0,0,1-.51-0.37c-0.25-.42-0.72-1.39-1.07-2.16a8.59,8.59,0,0,0,2.14-.81c1-.56,2.09-1.18,3.78-2.16V16Zm-2.16,8a23.94,23.94,0,0,0,2.18,1c0.19,0,.26,0,0.23-0.19,0-.6-0.09-1.67-0.14-2.44C360.54,22.88,359.75,23.42,358.91,24ZM370,11.84c0.16-.26.23-0.32,0.39-0.28a11,11,0,0,1,4.92,2.83,0.36,0.36,0,0,1,.14.23,0.59,0.59,0,0,1-.09.23c-0.3.46-.91,1.18-1.25,1.65a0.38,0.38,0,0,1-.46,0,10.71,10.71,0,0,0-4.71-2.85A14.22,14.22,0,0,1,370,11.84Z"/><path class="cls-1" d="M398.83,9.93c2.16,0,2.92,0,3.06,0s0.25,0,.25.25,0,0.53,0,1.11v1c0,2,0,2.34,0,2.48s0,0.25-.25.25H400c-0.23,0-.25,0-0.25-0.25V12h-9.86c0.65,0.12,1.3.3,1.88,0.46a0.35,0.35,0,0,1,.33.28,0.42,0.42,0,0,1-.28.33,1.7,1.7,0,0,0-.44.46l-0.19.23h4.92a1.47,1.47,0,0,0,.58-0.09,1,1,0,0,1,.33-0.09,1.66,1.66,0,0,1,.93.72,1.67,1.67,0,0,1,.65,1,0.38,0.38,0,0,1-.3.39,4.13,4.13,0,0,0-.81.67,24.17,24.17,0,0,1-2.85,2.34,35.46,35.46,0,0,0,8.63,1.95,5.59,5.59,0,0,0-.88,1.74c-0.19.58-.19,0.58-0.91,0.44q-1.32-.24-2.51-0.56c0,0.28,0,.79,0,1.65v1.83c0,2.41,0,3,0,3.13s0,0.25-.25.25h-1.88c-0.23,0-.25,0-0.25-0.25V28.18H388.3v0.67c0,0.25,0,.28-0.25.28h-1.86c-0.25,0-.28,0-0.28-0.28s0-.72,0-3.09V24.18c0-.79,0-1.32,0-1.65-0.74.21-1.49,0.39-2.3,0.58s-0.72.16-1-.44a5.2,5.2,0,0,0-.88-1.46,32.7,32.7,0,0,0,8.59-2.41,22.23,22.23,0,0,1-2.48-1.93A21.75,21.75,0,0,1,385,18.59a2,2,0,0,1-.56.23,0.55,0.55,0,0,1-.37-0.37A4.18,4.18,0,0,0,383,17.22a15.53,15.53,0,0,0,6-4.15,6.36,6.36,0,0,0,.7-1.09H385v2.72c0,0.23,0,.25-0.26.25h-1.9c-0.23,0-.26,0-0.26-0.25s0-.51,0-2.48V11.44c0-.77,0-1.14,0-1.3s0-.25.26-0.25,0.9,0,3.06,0H391V9.56a7.29,7.29,0,0,0-.16-1.74c0.81,0,1.69.07,2.48,0.14,0.25,0,.37.12,0.37,0.23a1.08,1.08,0,0,1-.14.44,2.78,2.78,0,0,0-.12,1V9.93h5.43Zm-1.35,12a27.62,27.62,0,0,1-5-1.9,27.66,27.66,0,0,1-4.48,1.9h9.47Zm-9.19,4.36h8.26V23.79H388.3v2.48Zm1.09-10.65a17.55,17.55,0,0,0,3,2.07,20,20,0,0,0,2.74-2.11h-5.73Z"/><path class="cls-1" d="M419.68,19.38c-2.23,0-3,0-3.16,0s-0.25,0-.25-0.26V19.1a5.88,5.88,0,0,0-.63,1.21,0.57,0.57,0,0,1-.28.42,0.63,0.63,0,0,1-.3-0.37,13.34,13.34,0,0,1-1.14-2.85c0,6.06.16,11,.16,11.35s0,0.25-.26.25H412c-0.23,0-.26,0-0.26-0.25s0.12-4.8.14-10.12a17.34,17.34,0,0,1-1.95,4.69,0.66,0.66,0,0,1-.35.37,0.4,0.4,0,0,1-.23-0.37,6.41,6.41,0,0,0-.81-1.74,19.71,19.71,0,0,0,3.2-7.26h-0.25c-1.53,0-2,0-2.14,0s-0.25,0-.25-0.28v-1.6c0-.26,0-0.28.25-0.28s0.6,0,2.14,0h0.35V11a16.83,16.83,0,0,0-.19-3.11A20.53,20.53,0,0,1,413.9,8c0.23,0,.37.12,0.37,0.26a1,1,0,0,1-.14.49A6.72,6.72,0,0,0,414,11v1.39c1.35,0,1.79,0,1.93,0s0.23,0,.23.28v1.6c0,0.26,0,.28-0.23.28s-0.58,0-1.88,0a15.69,15.69,0,0,0,2.23,4.29V17.64c0-.23,0-0.26.25-0.26s0.93,0,3.16,0h1.72V16h-1.07c-2.07,0-2.76,0-2.9,0s-0.26,0-.26-0.26V14.37c0-.26,0-0.28.26-0.28s0.83,0,2.9,0h1.07V12.74H420c-2.18,0-2.92,0-3.06,0s-0.26,0-.26-0.23V11.07c0-.23,0-0.26.26-0.26s0.77,0,2.41,0a19.16,19.16,0,0,0-1-1.95c-0.14-.21-0.09-0.28.16-0.39L419.88,8c0.25-.09.28-0.09,0.44,0.12a12.44,12.44,0,0,1,1.11,1.9c0.12,0.23.07,0.28-.21,0.39l-1.25.46h3.46c0.33-.63.7-1.37,1-2a5.19,5.19,0,0,0,.28-1,18.37,18.37,0,0,1,2,.46,0.4,0.4,0,0,1,.37.32,0.45,0.45,0,0,1-.23.35,0.94,0.94,0,0,0-.32.42c-0.21.42-.49,1-0.79,1.44h0.14c2.16,0,2.9,0,3,0s0.28,0,.28.26v1.49c0,0.21,0,.23-0.28.23s-0.88,0-3,0H423.6v1.39h1.65c2.09,0,2.76,0,2.9,0s0.25,0,.25.28v1.44c0,0.23,0,.26-0.25.26s-0.81,0-2.9,0H423.6v1.42h2.83c2.23,0,3,0,3.13,0s0.26,0,.26.26v1.53c0,0.23,0,.26-0.26.26s-0.91,0-3.13,0H424a17.17,17.17,0,0,0,1.49,2.55A16,16,0,0,0,427,20.54a3.61,3.61,0,0,0,.58-0.81,12.4,12.4,0,0,1,1.49,1.14,0.55,0.55,0,0,1,.26.39,0.34,0.34,0,0,1-.3.3,1.87,1.87,0,0,0-.7.44c-0.44.42-.93,0.88-1.58,1.42a15.73,15.73,0,0,0,3.69,2.74,5,5,0,0,0-1.11,1.37,0.72,0.72,0,0,1-.39.46,1.24,1.24,0,0,1-.51-0.3,13.63,13.63,0,0,1-4.83-5.78c0,2,.09,3.57.09,4.62a2.18,2.18,0,0,1-.74,2c-0.44.32-1,.44-2.53,0.46-0.74,0-.74,0-0.91-0.72a5.68,5.68,0,0,0-.6-1.49,15.35,15.35,0,0,0,1.65.09c0.7,0,.86-0.16.86-0.77V24.46a42,42,0,0,1-4.2,2.32,2.24,2.24,0,0,0-.72.46,0.52,0.52,0,0,1-.33.21,0.34,0.34,0,0,1-.26-0.26c-0.25-.56-0.51-1.16-0.81-2a8.29,8.29,0,0,0,1.35-.46,42.2,42.2,0,0,0,5-2.55V19.38h-1.72ZM418.93,23c-0.23.23-.33,0.26-0.46,0.07a8.92,8.92,0,0,0-1.93-1.93c-0.21-.14-0.19-0.21,0-0.42l0.88-.88c0.23-.21.3-0.21,0.49-0.09a9.16,9.16,0,0,1,2,1.76c0.14,0.19.12,0.26-.07,0.44Z"/><path class="cls-1" d="M436.48,7.13c4.46,3.25,6.29,6.78,6.29,11.35s-1.83,8.1-6.29,11.35l-0.6-.72c3.85-3.18,5.22-6.54,5.22-10.63S439.73,11,435.88,7.85Z"/><line class="cls-2" x1="4.17" y1="64.93" x2="267.59" y2="64.93"/></svg>