<svg id="レイヤー_1" data-name="レイヤー 1" xmlns="http://www.w3.org/2000/svg" viewBox="0 0 554.53 75.31"><defs><style>.cls-1{fill:#231815;}.cls-2{fill:none;stroke:#231815;stroke-miterlimit:10;}</style></defs><title>prices</title><path class="cls-1" d="M250.54,43.31c0.78-2.89,3.08-4.42,6.19-4.42,3.72,0,6.14,2.17,6.14,5.14a4.44,4.44,0,0,1-3.91,4.61v0.19A5,5,0,0,1,263.26,54c0,3.62-2.63,6.08-6.54,6.08-3.38,0-5.6-1.37-6.51-4.53l3.3-1c0.46,2.06,1.42,2.89,3.19,2.89,1.93,0,3.13-1.29,3.13-3.46,0-2.33-1.1-3.7-4-3.7h-1.55V47.57h1.42c2.68,0,3.75-1.15,3.75-3.22a2.59,2.59,0,0,0-2.81-2.87c-1.42,0-2.57.88-2.84,2.81Z"/><path class="cls-1" d="M283.23,49.39c0,7.58-2.3,10.66-6.48,10.66s-6.4-3-6.4-10.61,2.33-10.56,6.46-10.56S283.23,41.84,283.23,49.39Zm-9.43,0c0,6,.83,8,2.95,8s3-2,3-8-0.83-7.88-3-7.88S273.8,43.36,273.8,49.42Z"/><path class="cls-1" d="M303.11,49.39c0,7.58-2.3,10.66-6.48,10.66s-6.4-3-6.4-10.61,2.33-10.56,6.46-10.56S303.11,41.84,303.11,49.39Zm-9.43,0c0,6,.83,8,2.95,8s3-2,3-8-0.83-7.88-3-7.88S293.68,43.36,293.68,49.42Z"/><path class="cls-1" d="M323,49.39c0,7.58-2.3,10.66-6.48,10.66s-6.4-3-6.4-10.61,2.33-10.56,6.46-10.56S323,41.84,323,49.39Zm-9.43,0c0,6,.83,8,2.95,8s3-2,3-8-0.83-7.88-3-7.88S313.56,43.36,313.56,49.42Z"/><path class="cls-1" d="M344,60.22c-1.15,3.38-2.92,4.64-5.92,4.64a11.43,11.43,0,0,1-1.82-.13l-0.13-2.57a9.84,9.84,0,0,0,1.88.19,2.79,2.79,0,0,0,2.79-2.28l0.21-.64L336,45h3.56l1.74,6.16c0.48,1.69.8,3.11,1.23,4.82h0.27c0.46-1.66.83-3.16,1.31-4.88L345.82,45h3.35Z"/><path class="cls-1" d="M365.55,53.06c0,2.79,1.26,4.64,3.7,4.64,1.53,0,2.6-.86,3.11-2.79l3.05,0.88c-0.91,2.81-2.92,4.26-6.19,4.26-4.39,0-7-2.81-7-7.64s2.71-7.77,6.67-7.77c3.75,0,6.56,2.73,6.56,7.72v0.7h-9.94Zm6.64-2.22C372,48.37,371,47,369,47s-3.22,1.5-3.38,3.86h6.59Z"/><path class="cls-1" d="M393.39,47.54a6,6,0,0,1,4.82-2.89c2.44,0,4.21,1.58,4.21,4.42V59.68H399V50c0-1.69-.72-2.47-2-2.47A4.5,4.5,0,0,0,393.5,50v9.65h-3.38V45h3.27v2.57Z"/><path class="cls-1" d="M6.61,7.6v13H4.32V7.6H0.84V5.45h9.25V7.6H6.61Z"/><path class="cls-1" d="M14.89,11H17.1V11.9A4.21,4.21,0,0,1,18.18,11a2.48,2.48,0,0,1,1.14-.25,3.57,3.57,0,0,1,1.83.57l-1,2a2.11,2.11,0,0,0-1.23-.45q-1.81,0-1.81,2.73v5H14.89V11Z"/><path class="cls-1" d="M25.26,7.07a1.44,1.44,0,0,1,1.43-1.42,1.39,1.39,0,0,1,1,.42,1.36,1.36,0,0,1,.42,1,1.39,1.39,0,0,1-.42,1,1.36,1.36,0,0,1-1,.42A1.44,1.44,0,0,1,25.26,7.07Zm2.54,4v9.57H25.59V11H27.8Z"/><path class="cls-1" d="M40.83,11H43v9.57H40.83v-1a4.24,4.24,0,0,1-6.22-.16,5.33,5.33,0,0,1-1.29-3.65,5.17,5.17,0,0,1,1.29-3.58,4.15,4.15,0,0,1,3.22-1.43,4.07,4.07,0,0,1,3,1.38V11ZM35.59,15.8A3.33,3.33,0,0,0,36.32,18a2.41,2.41,0,0,0,1.91.87,2.54,2.54,0,0,0,2-.84A3.27,3.27,0,0,0,41,15.85a3.27,3.27,0,0,0-.76-2.22,2.5,2.5,0,0,0-2-.85,2.44,2.44,0,0,0-1.91.86A3.19,3.19,0,0,0,35.59,15.8Z"/><path class="cls-1" d="M51.23,4V20.61H49V4h2.21Z"/><path class="cls-1" d="M59.78,3.86l2,0.79a25.2,25.2,0,0,0-1.5,4.73A22.18,22.18,0,0,0,60,11.69q-0.11,1.21-.11,2.65T60,17a22.18,22.18,0,0,0,.32,2.31A24.29,24.29,0,0,0,61.82,24l-2,.79a24,24,0,0,1-2.15-10.48A24,24,0,0,1,59.78,3.86Z"/><path class="cls-1" d="M75.74,7.6H70.46v3.64h5.1v2.15h-5.1v7.22H68.17V5.45h7.57V7.6Z"/><path class="cls-1" d="M80.7,15.76a4.75,4.75,0,0,1,1.48-3.53,5.23,5.23,0,0,1,7.25,0,4.87,4.87,0,0,1,1.47,3.59,4.84,4.84,0,0,1-1.48,3.6,5.07,5.07,0,0,1-3.66,1.44,4.86,4.86,0,0,1-3.6-1.47A5,5,0,0,1,80.7,15.76Zm2.26,0a3.22,3.22,0,0,0,.77,2.27,3,3,0,0,0,4.14,0,3.14,3.14,0,0,0,.78-2.23,3.15,3.15,0,0,0-.78-2.23,2.94,2.94,0,0,0-4.12,0A3.07,3.07,0,0,0,83,15.8Z"/><path class="cls-1" d="M96.42,11h2.21V11.9A4.21,4.21,0,0,1,99.71,11a2.48,2.48,0,0,1,1.14-.25,3.57,3.57,0,0,1,1.83.57l-1,2a2.11,2.11,0,0,0-1.23-.45q-1.81,0-1.81,2.73v5H96.42V11Z"/><path class="cls-1" d="M118.8,13.11v7.5h-2.22v-7.5h-0.79V11h0.79V7.35a4,4,0,0,1,.63-2.55,3.08,3.08,0,0,1,2.51-1,4.32,4.32,0,0,1,1.48.34V6.36L121,6.24a2.78,2.78,0,0,0-1.18-.36,0.8,0.8,0,0,0-.8.42,4.06,4.06,0,0,0-.21,1.59V11h2.41v2.06H118.8Z"/><path class="cls-1" d="M125.32,7.07a1.44,1.44,0,0,1,1.43-1.42,1.39,1.39,0,0,1,1,.42,1.36,1.36,0,0,1,.42,1,1.39,1.39,0,0,1-.42,1,1.36,1.36,0,0,1-1,.42A1.44,1.44,0,0,1,125.32,7.07Zm2.54,4v9.57h-2.21V11h2.21Z"/><path class="cls-1" d="M133.85,11h2.21V11.9a4.21,4.21,0,0,1,1.08-.87,2.48,2.48,0,0,1,1.14-.25,3.57,3.57,0,0,1,1.83.57l-1,2a2.11,2.11,0,0,0-1.23-.45q-1.81,0-1.81,2.73v5h-2.21V11Z"/><path class="cls-1" d="M150.11,12.68l-1.83,1a1.26,1.26,0,0,0-1.07-.87,0.74,0.74,0,0,0-.52.2,0.67,0.67,0,0,0-.22.52q0,0.55,1.28,1.09A7.61,7.61,0,0,1,150.12,16a2.38,2.38,0,0,1,.61,1.72,3,3,0,0,1-1,2.31,3.66,3.66,0,0,1-5.8-1.46l1.89-.87a4.09,4.09,0,0,0,.6.87,1.37,1.37,0,0,0,1,.37,1,1,0,0,0,1.12-1,1.4,1.4,0,0,0-.86-1.1l-0.67-.32-0.68-.32a4.15,4.15,0,0,1-1.35-.94,2.32,2.32,0,0,1-.5-1.54,2.73,2.73,0,0,1,.85-2.06,3,3,0,0,1,2.12-.81A2.9,2.9,0,0,1,150.11,12.68Z"/><path class="cls-1" d="M158.17,13.11v7.5H156v-7.5H155V11H156V7.54h2.21V11h1.72v2.06h-1.72Z"/><path class="cls-1" d="M176.23,13.11v7.5H174v-7.5h-0.94V11H174V7.54h2.21V11h1.72v2.06h-1.72Z"/><path class="cls-1" d="M182.3,7.07a1.44,1.44,0,0,1,1.43-1.42,1.39,1.39,0,0,1,1,.42,1.36,1.36,0,0,1,.42,1,1.39,1.39,0,0,1-.42,1,1.36,1.36,0,0,1-1,.42A1.44,1.44,0,0,1,182.3,7.07Zm2.54,4v9.57h-2.21V11h2.21Z"/><path class="cls-1" d="M190.82,11H193v0.88a4.61,4.61,0,0,1,1.09-.9,2.65,2.65,0,0,1,1.21-.25,2.93,2.93,0,0,1,2.56,1.41,3.32,3.32,0,0,1,2.82-1.41q3.23,0,3.23,3.92v5.91h-2.22V15.3a4.1,4.1,0,0,0-.33-1.94,1.21,1.21,0,0,0-1.13-.58,1.44,1.44,0,0,0-1.33.69,4.43,4.43,0,0,0-.42,2.21v4.94h-2.22V15.33q0-2.55-1.47-2.55a1.48,1.48,0,0,0-1.36.7,4.35,4.35,0,0,0-.43,2.2v4.94h-2.21V11Z"/><path class="cls-1" d="M218.62,16.35h-6.86a2.91,2.91,0,0,0,.77,1.88,2.33,2.33,0,0,0,1.74.69,2.26,2.26,0,0,0,1.37-.39,5.59,5.59,0,0,0,1.21-1.45l1.87,1a7.45,7.45,0,0,1-.91,1.26,4.85,4.85,0,0,1-1,.86,4.14,4.14,0,0,1-1.19.5,5.77,5.77,0,0,1-1.38.16,4.5,4.5,0,0,1-3.44-1.37,5.16,5.16,0,0,1-1.3-3.67,5.3,5.3,0,0,1,1.26-3.67,4.79,4.79,0,0,1,6.7,0,5.29,5.29,0,0,1,1.22,3.7v0.52Zm-2.27-1.81a2.12,2.12,0,0,0-2.23-1.77,2.29,2.29,0,0,0-.76.12,2.16,2.16,0,0,0-.64.35,2.24,2.24,0,0,0-.5.55,2.57,2.57,0,0,0-.31.74h4.44Z"/><path class="cls-1" d="M241,11.46v2.94a5.4,5.4,0,0,0-1.36-1.27,2.64,2.64,0,0,0-1.38-.35,2.73,2.73,0,0,0-2.07.87,3.07,3.07,0,0,0-.82,2.19,3.14,3.14,0,0,0,.8,2.21,2.68,2.68,0,0,0,2.05.86,2.8,2.8,0,0,0,1.4-.34,5.57,5.57,0,0,0,1.39-1.3v2.92a5.81,5.81,0,0,1-2.69.7,5.15,5.15,0,0,1-3.71-1.43,4.78,4.78,0,0,1-1.49-3.58,4.85,4.85,0,0,1,1.51-3.61,5.12,5.12,0,0,1,3.71-1.47A5.55,5.55,0,0,1,241,11.46Z"/><path class="cls-1" d="M248.57,11v5.49q0,2.38,1.88,2.38t1.88-2.38V11h2.21v5.54a6.16,6.16,0,0,1-.28,2,3.34,3.34,0,0,1-1,1.35,4.64,4.64,0,0,1-5.69,0,3.38,3.38,0,0,1-1-1.35,5.46,5.46,0,0,1-.28-2V11h2.21Z"/><path class="cls-1" d="M266.06,12.68l-1.83,1a1.26,1.26,0,0,0-1.07-.87,0.74,0.74,0,0,0-.52.2,0.67,0.67,0,0,0-.22.52q0,0.55,1.28,1.09A7.61,7.61,0,0,1,266.07,16a2.38,2.38,0,0,1,.61,1.72,3,3,0,0,1-1,2.31,3.66,3.66,0,0,1-5.8-1.46l1.89-.87a4.09,4.09,0,0,0,.6.87,1.37,1.37,0,0,0,1,.37,1,1,0,0,0,1.12-1,1.4,1.4,0,0,0-.86-1.1l-0.67-.32-0.68-.32a4.15,4.15,0,0,1-1.35-.94,2.32,2.32,0,0,1-.5-1.54,2.73,2.73,0,0,1,.85-2.06,3,3,0,0,1,2.12-.81A2.9,2.9,0,0,1,266.06,12.68Z"/><path class="cls-1" d="M274.12,13.11v7.5h-2.21v-7.5H271V11h0.94V7.54h2.21V11h1.72v2.06h-1.72Z"/><path class="cls-1" d="M280.07,15.76a4.75,4.75,0,0,1,1.48-3.53,5.23,5.23,0,0,1,7.25,0,4.87,4.87,0,0,1,1.47,3.59,4.84,4.84,0,0,1-1.48,3.6,5.07,5.07,0,0,1-3.66,1.44,4.86,4.86,0,0,1-3.6-1.47A5,5,0,0,1,280.07,15.76Zm2.26,0a3.22,3.22,0,0,0,.77,2.27,3,3,0,0,0,4.14,0,3.14,3.14,0,0,0,.78-2.23,3.15,3.15,0,0,0-.78-2.23,2.94,2.94,0,0,0-4.12,0A3.07,3.07,0,0,0,282.33,15.8Z"/><path class="cls-1" d="M295.79,11H298v0.88a4.6,4.6,0,0,1,1.09-.9,2.64,2.64,0,0,1,1.21-.25,2.93,2.93,0,0,1,2.56,1.41,3.32,3.32,0,0,1,2.82-1.41q3.23,0,3.23,3.92v5.91h-2.22V15.3a4.1,4.1,0,0,0-.33-1.94,1.21,1.21,0,0,0-1.13-.58,1.44,1.44,0,0,0-1.33.69,4.43,4.43,0,0,0-.42,2.21v4.94h-2.22V15.33q0-2.55-1.47-2.55a1.48,1.48,0,0,0-1.36.7,4.35,4.35,0,0,0-.43,2.2v4.94h-2.21V11Z"/><path class="cls-1" d="M323.59,16.35h-6.86a2.9,2.9,0,0,0,.77,1.88,2.33,2.33,0,0,0,1.74.69,2.26,2.26,0,0,0,1.37-.39,5.59,5.59,0,0,0,1.21-1.45l1.87,1a7.4,7.4,0,0,1-.91,1.26,4.83,4.83,0,0,1-1,.86,4.13,4.13,0,0,1-1.19.5,5.77,5.77,0,0,1-1.38.16,4.5,4.5,0,0,1-3.44-1.37,5.16,5.16,0,0,1-1.3-3.67,5.3,5.3,0,0,1,1.26-3.67,4.79,4.79,0,0,1,6.7,0,5.3,5.3,0,0,1,1.22,3.7v0.52Zm-2.27-1.81a2.12,2.12,0,0,0-2.23-1.77,2.29,2.29,0,0,0-.76.12,2.15,2.15,0,0,0-.64.35,2.24,2.24,0,0,0-.5.55,2.59,2.59,0,0,0-.31.74h4.44Z"/><path class="cls-1" d="M329.19,11h2.21V11.9a4.22,4.22,0,0,1,1.08-.87,2.48,2.48,0,0,1,1.14-.25,3.57,3.57,0,0,1,1.83.57l-1,2a2.11,2.11,0,0,0-1.23-.45q-1.81,0-1.81,2.73v5h-2.21V11Z"/><path class="cls-1" d="M345.45,12.68l-1.83,1a1.26,1.26,0,0,0-1.07-.87,0.73,0.73,0,0,0-.52.2,0.67,0.67,0,0,0-.22.52q0,0.55,1.28,1.09A7.61,7.61,0,0,1,345.46,16a2.38,2.38,0,0,1,.61,1.72A3,3,0,0,1,345,20a3.66,3.66,0,0,1-5.8-1.46l1.89-.87a4.13,4.13,0,0,0,.6.87,1.37,1.37,0,0,0,1,.37,1,1,0,0,0,1.12-1,1.4,1.4,0,0,0-.86-1.1l-0.67-.32-0.68-.32a4.15,4.15,0,0,1-1.36-.94,2.32,2.32,0,0,1-.5-1.54,2.73,2.73,0,0,1,.85-2.06,3,3,0,0,1,2.12-.81A2.89,2.89,0,0,1,345.45,12.68Z"/><path class="cls-1" d="M353.24,24.82l-2-.79a24.33,24.33,0,0,0,1.5-4.72,25,25,0,0,0,.44-5,25,25,0,0,0-.44-5,25.17,25.17,0,0,0-1.5-4.73l2-.79a24.09,24.09,0,0,1,2.14,10.48A24.09,24.09,0,0,1,353.24,24.82Z"/><line class="cls-2" x1="0.5" y1="50.66" x2="217.12" y2="50.66"/></svg>