<svg id="レイヤー_1" data-name="レイヤー 1" xmlns="http://www.w3.org/2000/svg" viewBox="0 0 713.69 322.6"><defs><style>.cls-1{fill:#231815;}.cls-2{fill:none;stroke:#231815;stroke-miterlimit:10;}</style></defs><title>prices-DG</title><path class="cls-1" d="M19.87,277.84l-0.55.55-6.95-6.93L5.46,278.4l-0.55-.55,6.91-6.93L4.94,264l0.55-.55,6.88,6.87,6.88-6.87L19.8,264l-6.87,6.88Zm-11.1-6.93a1.36,1.36,0,0,1-1.38,1.36,1.36,1.36,0,0,1,0-2.73A1.38,1.38,0,0,1,8.78,270.91Zm5-5a1.36,1.36,0,1,1-1.36-1.36A1.36,1.36,0,0,1,13.73,265.94Zm0,10a1.36,1.36,0,0,1-2.73,0A1.36,1.36,0,1,1,13.73,275.91Zm5-5a1.34,1.34,0,0,1-1.35,1.36A1.36,1.36,0,1,1,18.71,270.91Z"/><path class="cls-1" d="M42,266.45c0,0.13,0,.15-0.13.15s-0.68,0-2.42,0H32.21a17.5,17.5,0,0,1-1.05,2.12h5.4c1.68,0,2.41,0,2.53,0s0.15,0,.15.15,0,0.81,0,2.4v3.67c0,1.07,0,2,0,2.4a1.63,1.63,0,0,1-.44,1.31c-0.35.29-.87,0.41-2.4,0.41C36,279,36,279,36,278.6a2.61,2.61,0,0,0-.37-0.79,16.8,16.8,0,0,0,1.7.07,0.68,0.68,0,0,0,.83-0.75v-1.88H31.22v1.53c0,1.6,0,2.1,0,2.19s0,0.15-.15.15H30.28c-0.15,0-.17,0-0.17-0.15s0-.59,0-2.19v-6.54a16.71,16.71,0,0,1-3.26,3.3,0.64,0.64,0,0,1-.26.15,0.38,0.38,0,0,1-.26-0.2,2.25,2.25,0,0,0-.65-0.55,14.48,14.48,0,0,0,5.33-6.36h-2.6c-1.73,0-2.3,0-2.41,0s-0.15,0-.15-0.15v-0.79c0-.13,0-0.15.15-0.15s0.68,0,2.41,0h3c0.17-.48.33-1,0.46-1.44a6.56,6.56,0,0,0,.28-1.55,10.21,10.21,0,0,1,1.16.22,0.28,0.28,0,0,1,.26.22,0.56,0.56,0,0,1-.17.28,2.75,2.75,0,0,0-.31.7c-0.17.53-.33,1.07-0.52,1.57h6.82c1.73,0,2.3,0,2.42,0s0.13,0,.13.15v0.79Zm-3.87,3.19H31.22v1.83h6.89v-1.83Zm0,2.77H31.22v1.9h6.89v-1.9Z"/><path class="cls-1" d="M49.88,271.23c0.15-.15.18-0.17,0.29-0.07a20.23,20.23,0,0,1,1.88,1.73,8.91,8.91,0,0,0,.39-1,6.53,6.53,0,0,0,.39-1.66,6.81,6.81,0,0,1,1,.41,0.29,0.29,0,0,1,.2.22,0.84,0.84,0,0,1-.2.33,3.39,3.39,0,0,0-.33.79,13.75,13.75,0,0,1-.72,1.7c0.61,0.66,1.18,1.35,1.73,2,0.07,0.11.06,0.15-.07,0.28l-0.42.44c-0.17.18-.22,0.18-0.31,0.06a22.87,22.87,0,0,0-1.44-1.88,12.91,12.91,0,0,1-4.2,4.15,1,1,0,0,1-.28.13,0.45,0.45,0,0,1-.26-0.26,2.34,2.34,0,0,0-.53-0.52,12,12,0,0,0,4.57-4.29c-0.65-.68-1.35-1.35-2.1-2-0.09-.09-0.07-0.13,0-0.24Zm0.74-3a1.4,1.4,0,0,0-.37.46,12.76,12.76,0,0,1-1.94,2.71,0.59,0.59,0,0,1-.26.2,0.5,0.5,0,0,1-.26-0.2,1.35,1.35,0,0,0-.61-0.42,8.81,8.81,0,0,0,2.16-2.82,2.59,2.59,0,0,0,.24-0.83,5.39,5.39,0,0,1,1,.48,0.26,0.26,0,0,1,.17.2A0.27,0.27,0,0,1,50.62,268.19Zm5.31-1.75c0,0.11,0,.13-0.15.13s-0.65,0-2.3,0H50c-1.66,0-2.19,0-2.29,0s-0.15,0-.15-0.13v-0.77c0-.13,0-0.15.15-0.15s0.63,0,2.29,0h1.35v-1a8.79,8.79,0,0,0-.15-2,10.67,10.67,0,0,1,1.22.11c0.15,0,.22.07,0.22,0.15a0.86,0.86,0,0,1-.11.35,4.24,4.24,0,0,0-.11,1.35v1h1.09c1.66,0,2.19,0,2.3,0s0.15,0,.15.15v0.77Zm-2.27,1c0.18-.09.2-0.09,0.28,0a12,12,0,0,0,2.47,3.12,1.54,1.54,0,0,0-.63.46,0.45,0.45,0,0,1-.24.18,0.49,0.49,0,0,1-.28-0.22A17.39,17.39,0,0,1,53,268c-0.07-.13,0-0.18.13-0.26Zm7.3-.29c1.51,0,2,0,2.1,0s0.15,0,.15.17c0,0.57,0,1.11,0,1.64a60.9,60.9,0,0,1-.52,8.13,1.81,1.81,0,0,1-2,1.84c-0.5,0-.92,0-1.35-0.05s-0.35,0-.41-0.41a2.49,2.49,0,0,0-.26-0.79,10.82,10.82,0,0,0,1.88.17c0.63,0,.88-0.2,1.07-1.25a64.81,64.81,0,0,0,.48-8.42H59.41a25.61,25.61,0,0,1-.81,5.07A10.73,10.73,0,0,1,54.44,279a0.65,0.65,0,0,1-.26.17,0.6,0.6,0,0,1-.28-0.2,2,2,0,0,0-.68-0.52,9.76,9.76,0,0,0,4.39-5.68,24.16,24.16,0,0,0,.76-4.66H58.2c-1.51,0-2,0-2.08,0S56,268.17,56,268v-0.76c0-.13,0-0.15.15-0.15s0.57,0,2.08,0h0.22q0.05-1.08.06-2.21a10.55,10.55,0,0,0-.15-2.27,8.49,8.49,0,0,1,1.24.13,0.2,0.2,0,0,1,.2.18,1.69,1.69,0,0,1-.11.41,7.64,7.64,0,0,0-.11,1.66c0,0.66,0,1.38-.06,2.1H61Z"/><path class="cls-1" d="M72.34,276.24a1.45,1.45,0,0,0-.39.42A11.84,11.84,0,0,1,69.52,279a0.53,0.53,0,0,1-.26.13,0.41,0.41,0,0,1-.26-0.24,1.71,1.71,0,0,0-.52-0.52A7.93,7.93,0,0,0,71,276.13a2.88,2.88,0,0,0,.41-0.7,5.23,5.23,0,0,1,.9.42,0.24,0.24,0,0,1,.17.2A0.19,0.19,0,0,1,72.34,276.24Zm5.22-10.08c0,0.13,0,.15-0.15.15l-1.4,0V274c0.92,0,1.29,0,1.38,0s0.15,0,.15.15v0.72c0,0.13,0,.15-0.15.15s-0.66,0-2.32,0H71.29c-1.7,0-2.25,0-2.34,0s-0.15,0-.15-0.15v-0.72c0-.13,0-0.15.15-0.15s0.53,0,1.79,0v-7.74l-1.53,0c-0.15,0-.17,0-0.17-0.15v-0.72c0-.13,0-0.15.17-0.15s0.48,0,1.53,0V264.9a10.19,10.19,0,0,0-.13-2.17,7.57,7.57,0,0,1,1.14.09c0.15,0,.22.07,0.22,0.15a0.86,0.86,0,0,1-.11.35,6.71,6.71,0,0,0-.09,1.57v0.44H75v-0.48a11.84,11.84,0,0,0-.13-2.17,9.89,9.89,0,0,1,1.12.13,0.21,0.21,0,0,1,.2.15,0.83,0.83,0,0,1-.09.35,6.93,6.93,0,0,0-.09,1.59v0.44c1,0,1.33,0,1.4,0s0.15,0,.15.15v0.72Zm-2.56.11H71.77v2H75v-2Zm0,2.86H71.77v2H75v-2ZM75,272H71.77v2H75v-2Zm-0.37,3.52c0.15-.09.18-0.09,0.26,0a7.27,7.27,0,0,0,1.62,1.7,2.49,2.49,0,0,0-.57.52,0.39,0.39,0,0,1-.2.18,0.48,0.48,0,0,1-.22-0.15,8.35,8.35,0,0,1-1.44-1.7c-0.09-.13-0.11-0.17.09-0.28Zm9.64-.68c0,0.85,0,1.7,0,2.47a1.52,1.52,0,0,1-.48,1.29,3.47,3.47,0,0,1-2.12.37c-0.37,0-.39,0-0.48-0.37a2.21,2.21,0,0,0-.35-0.79c0.57,0,1,.06,1.57.06a0.66,0.66,0,0,0,.76-0.79V272.9H79.42a11.08,11.08,0,0,1-2,6,0.35,0.35,0,0,1-.22.22,0.52,0.52,0,0,1-.24-0.17,2.47,2.47,0,0,0-.72-0.44c1.75-2.25,2.19-3.93,2.19-9.33v-2.78c0-1.92,0-2.8,0-2.91s0-.15.15-0.15,0.52,0,1.81,0h1.94c1.31,0,1.73,0,1.82,0s0.15,0,.15.15,0,1,0,2.91v8.44Zm-1.07-6.21H79.55v0.57c0,1,0,1.94-.07,2.75H83.2v-3.32Zm0-4.26H79.55v3.28H83.2v-3.28Z"/><path class="cls-1" d="M95.39,263.52a1.15,1.15,0,0,0,.44-0.06,0.3,0.3,0,0,1,.17,0,0.79,0.79,0,0,1,.5.33,0.86,0.86,0,0,1,.33.48,0.38,0.38,0,0,1-.15.26,1.58,1.58,0,0,0-.33.55,35.3,35.3,0,0,1-2,3.78c1.71,2,2.08,3,2.08,4.24,0,1.44-.72,2.49-2.69,2.56-0.39,0-.39,0-0.46-0.33a1.6,1.6,0,0,0-.35-0.76c1.53,0.09,2.43-.22,2.43-1.47,0-1-.37-1.9-2.16-4.13a29.15,29.15,0,0,0,2.12-4.42H92.44v10.76c0,2.49,0,3.69,0,3.78s0,0.15-.15.15H91.49c-0.13,0-.15,0-0.15-0.15s0-1.22,0-3.78v-7.89c0-2.58,0-3.65,0-3.76s0-.15.15-0.15,0.52,0,1.46,0h2.45Zm6.19,7.41a12.36,12.36,0,0,0,1.09,3.08,18.24,18.24,0,0,0,2.18-1.81,3.1,3.1,0,0,0,.53-0.7,4.22,4.22,0,0,1,.77.7,0.35,0.35,0,0,1,.13.22,0.27,0.27,0,0,1-.22.2,4.1,4.1,0,0,0-.88.65,23.24,23.24,0,0,1-2,1.58,10.14,10.14,0,0,0,3.87,3.35,2.88,2.88,0,0,0-.57.72,0.39,0.39,0,0,1-.22.26,0.5,0.5,0,0,1-.28-0.13,11.53,11.53,0,0,1-5.4-8.13H98.71v6.16A24.47,24.47,0,0,0,102,276a4,4,0,0,0-.09.72c0,0.41,0,.41-0.35.5-1.46.52-3.06,1-5,1.47a2.49,2.49,0,0,0-.7.24,0.41,0.41,0,0,1-.24.11,0.19,0.19,0,0,1-.17-0.17,7.06,7.06,0,0,1-.31-1.05,12.77,12.77,0,0,0,1.58-.26l0.81-.17V267c0-2.18,0-3.17,0-3.28s0-.15.15-0.15,0.76,0,2.32,0H103c1.47,0,2,0,2.14,0s0.15,0,.15.15,0,0.66,0,2v3.17c0,1.35,0,1.88,0,2s0,0.15-.15.15-0.66,0-2.14,0h-1.42Zm2.58-6.41H98.71v2.21h5.46v-2.21Zm0,3.15H98.71V270h5.46v-2.34Z"/><path class="cls-1" d="M115.81,264.43a0.31,0.31,0,0,1,.11.5,3,3,0,0,0-.29.92,36.33,36.33,0,0,0-.88,6.8,23.88,23.88,0,0,0,.13,3.19c0.39-1,.81-1.92,1.29-3a2.84,2.84,0,0,0,.42.76,0.33,0.33,0,0,1,0,.41,16,16,0,0,0-1.11,2.91,3.2,3.2,0,0,0,0,.83,0.18,0.18,0,0,1-.09.24,4.88,4.88,0,0,1-.83.24c-0.13,0-.18,0-0.24-0.15a15.9,15.9,0,0,1-.7-5.38,41.5,41.5,0,0,1,.79-6.91,7.82,7.82,0,0,0,.09-1.82A4.64,4.64,0,0,1,115.81,264.43Zm7.06,4.31a33.6,33.6,0,0,1-4.11,0,0.16,0.16,0,0,1-.2-0.17,7.49,7.49,0,0,1-.07-1,31.21,31.21,0,0,0,4.35,0c0-.68,0-1.38,0-2.12a6.77,6.77,0,0,0-.18-1.64,6.14,6.14,0,0,1,1.42.26,0.27,0.27,0,0,1,.2.22,0.51,0.51,0,0,1-.07.26,2.57,2.57,0,0,0-.15.88c0,0.65,0,1.29,0,2,1-.09,2-0.24,2.91-0.42,0.15,0,.17,0,0.18.13a4.77,4.77,0,0,1,.07.74,0.2,0.2,0,0,1-.13.22,23.09,23.09,0,0,1-3,.44c0,2.16.07,3.91,0.17,5.57a13.16,13.16,0,0,1,3.24,1.9c0.09,0.07.09,0.11,0,.24a3.44,3.44,0,0,1-.5.81,0.12,0.12,0,0,1-.22,0,12,12,0,0,0-2.58-1.7c-0.07,1.62-1,2.49-3.08,2.49-1.73,0-2.88-.76-2.88-2.1s1.27-2.19,2.84-2.19a9.87,9.87,0,0,1,1.94.2C122.92,272.33,122.87,270.64,122.87,268.74ZM123,275a7.2,7.2,0,0,0-2-.31c-1,0-1.71.42-1.71,1.18s0.66,1.05,1.77,1.05c1.31,0,2-.59,2-1.57V275Z"/><path class="cls-1" d="M138.69,265.73a0.59,0.59,0,0,0,.37-0.07,0.33,0.33,0,0,1,.17-0.07,0.83,0.83,0,0,1,.48.35,0.92,0.92,0,0,1,.29.46,0.27,0.27,0,0,1-.17.22,1.27,1.27,0,0,0-.33.48,22,22,0,0,1-2,3.08,11.89,11.89,0,0,0,.92,1,12,12,0,0,0,.9-1.29,4,4,0,0,0,.37-0.79,7.22,7.22,0,0,1,.83.52,0.23,0.23,0,0,1,.13.22,0.22,0.22,0,0,1-.15.18,0.91,0.91,0,0,0-.37.35,14.93,14.93,0,0,1-1.14,1.36,14.12,14.12,0,0,0,1.55,1.22,2.51,2.51,0,0,0-.5.57,0.35,0.35,0,0,1-.22.22,0.55,0.55,0,0,1-.26-0.17,17.29,17.29,0,0,1-2.16-2.34V277c0,1.46,0,2.06,0,2.16s0,0.15-.15.15h-0.85c-0.13,0-.15,0-0.15-0.15s0-.7,0-2.16v-5.38a22.67,22.67,0,0,1-2.47,2.34,0.57,0.57,0,0,1-.28.15,0.3,0.3,0,0,1-.2-0.24,2.28,2.28,0,0,0-.42-0.59,17.93,17.93,0,0,0,5.55-6.52h-2.8c-1.38,0-1.81,0-1.9,0s-0.15,0-.15-0.15v-0.76c0-.13,0-0.15.15-0.15s0.52,0,1.9,0h0.63v-1a9.19,9.19,0,0,0-.13-2.06c0.46,0,.77,0,1.2.09a0.23,0.23,0,0,1,.22.17,0.86,0.86,0,0,1-.11.35,4.26,4.26,0,0,0-.11,1.44v1h1.27Zm7.94-1.27c1.7,0,2.27,0,2.36,0a0.13,0.13,0,0,1,.17.17c0,0.55,0,1.09,0,1.58a62.46,62.46,0,0,1-.68,10.47c-0.26,1.4-1,2.16-2.32,2.16a13.33,13.33,0,0,1-1.66-.09c-0.33,0-.33-0.06-0.39-0.44a2.11,2.11,0,0,0-.28-0.83,9.86,9.86,0,0,0,2.16.22,1.51,1.51,0,0,0,1.42-1.53,66,66,0,0,0,.61-10.6h-3.35a25.6,25.6,0,0,1-1,7.65,11.34,11.34,0,0,1-4.13,5.7,0.43,0.43,0,0,1-.26.17,0.53,0.53,0,0,1-.28-0.24,2.69,2.69,0,0,0-.72-0.53,10.1,10.1,0,0,0,4.31-5.57,22.86,22.86,0,0,0,.87-7.17h-0.59c-1.7,0-2.25,0-2.36,0s-0.15,0-.15-0.15v-0.85c0-.13,0-0.15.15-0.15s0.66,0,2.36,0h3.78Z"/><path class="cls-1" d="M170.41,272.28c0,5.7,0,6.75,0,6.86s0,0.15-.15.15h-0.88c-0.13,0-.15,0-0.15-0.15v-1.05H157v1.05c0,0.13,0,.15-0.15.15H156c-0.13,0-.15,0-0.15-0.15s0-1.16,0-6.86v-3.69c0-3.7,0-4.79,0-4.9s0-.15.15-0.15,0.74,0,2.56,0h9.16c1.82,0,2.45,0,2.56,0s0.15,0,.15.15,0,1.2,0,4.37v4.22Zm-1.14-7.67H157v12.46h12.22V264.61Zm-2.95,6.93c0,2.32,0,2.8,0,2.89s0,0.15-.15.15h-0.81c-0.13,0-.15,0-0.15-0.15v-0.63h-4.31v0.63c0,0.13,0,.15-0.15.15H160c-0.13,0-.15,0-0.15-0.15s0-.57,0-2.89v-1.86c0-1.36,0-1.83,0-1.94s0-.15.15-0.15,0.55,0,2,0h2.29c1.42,0,1.86,0,2,0s0.15,0,.15.15,0,0.57,0,1.79v2Zm-1.07-2.93h-4.31v4.22h4.31v-4.22Z"/><path class="cls-1" d="M184.7,269c0,0.13,0,.15-0.15.15s-0.59,0-2.19,0h-0.57a17.7,17.7,0,0,0,2.89,4,3.1,3.1,0,0,0-.5.72,0.27,0.27,0,0,1-.17.2,0.35,0.35,0,0,1-.2-0.17,17.73,17.73,0,0,1-2.36-3.94c0,4.88.15,8.94,0.15,9.22s0,0.15-.15.15h-0.92c-0.13,0-.15,0-0.15-0.15s0.15-4.42.17-9.2a22,22,0,0,1-3.48,6,0.35,0.35,0,0,1-.22.18,0.24,0.24,0,0,1-.17-0.2,2.25,2.25,0,0,0-.5-0.76,21,21,0,0,0,4-6h-1.29c-1.58,0-2.08,0-2.19,0s-0.13,0-.13-0.15v-0.72c0-.13,0-0.15.13-0.15s0.61,0,2.19,0h1.6v-2.91c-0.85.24-1.75,0.46-2.67,0.65-0.37.06-.37,0.06-0.53-0.26a2.17,2.17,0,0,0-.44-0.55,24.13,24.13,0,0,0,5.68-1.62,2.93,2.93,0,0,0,.83-0.53,6.24,6.24,0,0,1,.79.65,0.41,0.41,0,0,1,.17.31c0,0.11-.09.15-0.29,0.17a2.86,2.86,0,0,0-.79.24c-0.48.2-1,.41-1.64,0.61v3.26h0.81c1.6,0,2.08,0,2.19,0s0.15,0,.15.15V269Zm1.42-2.14a12.64,12.64,0,0,0-.13-2.51,11.61,11.61,0,0,1,1.2.11,0.17,0.17,0,0,1,.18.17,1.06,1.06,0,0,1-.09.29,8.28,8.28,0,0,0-.07,1.9v5c0,1.6,0,2.27,0,2.38s0,0.15-.15.15h-0.87c-0.13,0-.15,0-0.15-0.15s0-.77,0-2.38v-5Zm4.39-1.58a11.9,11.9,0,0,0-.13-2.25,11.89,11.89,0,0,1,1.23.11,0.23,0.23,0,0,1,.22.17,0.87,0.87,0,0,1-.11.35,5.2,5.2,0,0,0-.09,1.6v9.05c0,1,0,2.06,0,2.78a1.49,1.49,0,0,1-.53,1.44c-0.42.29-.79,0.37-2.53,0.37-0.35,0-.35,0-0.46-0.39a2.37,2.37,0,0,0-.39-0.85,11.6,11.6,0,0,0,1.82.11c0.7,0,.94-0.13.94-0.88V265.27Z"/><path class="cls-1" d="M210.44,263.69c1.86,0,2.53,0,2.64,0s0.15,0,.15.15,0,1,0,2.89v8.18c0,0.85,0,1.7,0,2.47a1.45,1.45,0,0,1-.53,1.27c-0.35.26-.81,0.37-2.29,0.37-0.39,0-.39,0-0.46-0.37a2.27,2.27,0,0,0-.33-0.85,17.76,17.76,0,0,0,1.82.07,0.6,0.6,0,0,0,.65-0.74v-3.89H206.9v2.19c0,2.08,0,2.95,0,3.06s0,0.15-.15.15h-0.88c-0.13,0-.15,0-0.15-0.15s0-1,0-3.06v-2.19h-4.94a10.26,10.26,0,0,1-1.88,5.49,0.39,0.39,0,0,1-.22.22,0.5,0.5,0,0,1-.26-0.18,3.4,3.4,0,0,0-.77-0.46c1.47-1.86,2.16-3.76,2.16-8.83v-2.77c0-1.92,0-2.8,0-2.89s0-.15.15-0.15,0.76,0,2.62,0h7.83ZM205.8,269H201v0.5c0,1,0,2-.07,2.76h4.87V269Zm0-4.26H201V268h4.79V264.7Zm6.27,0H206.9V268h5.16V264.7Zm0,4.26H206.9v3.26h5.16V269Z"/><path class="cls-1" d="M233.18,272.17c0,5.27,0,6.19,0,6.29s0,0.15-.15.15h-0.88c-0.13,0-.15,0-0.15-0.15v-1.12H223.5v1.16c0,0.13,0,.15-0.13.15h-0.9c-0.13,0-.15,0-0.15-0.15s0-1,0-6.32v-3.56c0-3.58,0-4.53,0-4.64s0-.15.15-0.15,0.74,0,2.56,0h5.47c1.82,0,2.45,0,2.56,0s0.15,0,.15.15,0,1.07,0,4.18v4ZM232,264.9H223.5v5H232v-5Zm0,6H223.5v5.34H232v-5.34Z"/><path class="cls-1" d="M254.07,266.91a0.13,0.13,0,0,1,.17.07,6.12,6.12,0,0,1,.29.94,0.14,0.14,0,0,1-.11.18,23.77,23.77,0,0,1-4.85.9,46,46,0,0,0,.35,5,19.65,19.65,0,0,1,5.25,2.38,0.17,0.17,0,0,1,.09.24,3.51,3.51,0,0,1-.55.9,0.13,0.13,0,0,1-.2,0,16.91,16.91,0,0,0-4.53-2.34c0,0.11,0,.29,0,0.52,0,1.53-1.23,2.67-3.32,2.67-2.27,0-3.52-.94-3.52-2.3s1.62-2.45,3.58-2.45a13.27,13.27,0,0,1,2,.13c-0.18-1.73-.31-3.87-0.33-6,0-.81,0-2,0-2.82a5.75,5.75,0,0,0-.17-1.51,7.5,7.5,0,0,1,1.46.24,0.25,0.25,0,0,1,.15.41,2.47,2.47,0,0,0-.18,1c0,0.59,0,1.57,0,2.75A19.45,19.45,0,0,0,254.07,266.91Zm-7.41,7.8c-1.57,0-2.45.61-2.45,1.36s0.87,1.2,2.29,1.2,2.25-.68,2.25-1.92a2.86,2.86,0,0,0,0-.42A10.37,10.37,0,0,0,246.66,274.71Z"/><path class="cls-1" d="M268.52,264a0.34,0.34,0,0,1,.24.28,0.46,0.46,0,0,1-.07.24,1.74,1.74,0,0,0-.33.72,27.59,27.59,0,0,0-.55,4.24,12.83,12.83,0,0,0,.07,2.08c0.39-.77.94-1.82,1.36-2.65a2.62,2.62,0,0,0,.37.76,0.39,0.39,0,0,1,0,.5,18.84,18.84,0,0,0-1.16,2.43,1.48,1.48,0,0,0-.13.59c0,0.17,0,.22-0.13.26s-0.57.09-.88,0.13a0.21,0.21,0,0,1-.18-0.18,11,11,0,0,1-.46-3.45,34.24,34.24,0,0,1,.42-4.33,10,10,0,0,0,.17-2A5.22,5.22,0,0,1,268.52,264Zm5.82-.18a0.27,0.27,0,0,1,.28.37,3.12,3.12,0,0,0,0,.87c0.15,2,.22,3.58.22,4.88,0,2.64-.46,4.63-1.51,6a9.46,9.46,0,0,1-3,2.67,0.35,0.35,0,0,1-.48,0,2.74,2.74,0,0,0-.94-0.52,8.62,8.62,0,0,0,3.21-2.53c1-1.38,1.51-2.95,1.51-5.58,0-1.27-.07-3-0.18-4.39a7.67,7.67,0,0,0-.37-1.94A6.5,6.5,0,0,1,274.34,263.82Z"/><path class="cls-1" d="M290.61,266.54a1.78,1.78,0,0,0-1.77-1.31c-1.92,0-2.89,1.9-3,5.62a3.51,3.51,0,0,1,3-1.88c2,0,3.45,1.64,3.45,4.24,0,2.86-1.62,4.61-3.85,4.61s-4.09-2-4.09-6.3c0-5.27,1.73-7.52,4.48-7.52a3.31,3.31,0,0,1,3.19,1.9Zm-2.12,10c1.42,0,2.3-1.16,2.3-3.34,0-1.92-.83-3-2.19-3-1,0-1.94.63-2.69,2C285.91,275.26,287,276.59,288.49,276.59Z"/><path class="cls-1" d="M305.68,270.84c0,4.88-1.44,7-4.06,7s-4-2.06-4-6.95,1.49-6.87,4.07-6.87S305.68,266,305.68,270.84Zm-6.53,0c0,4.13.81,5.7,2.47,5.7s2.49-1.57,2.49-5.7-0.79-5.58-2.45-5.58S299.16,266.71,299.16,270.86Z"/><path class="cls-1" d="M324.48,272.17c0,5.27,0,6.19,0,6.29s0,0.15-.15.15h-0.88c-0.13,0-.15,0-0.15-0.15v-1.12H314.8v1.16c0,0.13,0,.15-0.13.15h-0.9c-0.13,0-.15,0-0.15-0.15s0-1,0-6.32v-3.56c0-3.58,0-4.53,0-4.64s0-.15.15-0.15,0.74,0,2.56,0h5.47c1.83,0,2.45,0,2.56,0s0.15,0,.15.15,0,1.07,0,4.18v4Zm-1.14-7.26H314.8v5h8.53v-5Zm0,6H314.8v5.34h8.53v-5.34Z"/><path class="cls-1" d="M339,263.65a0.27,0.27,0,0,1,.22.24c0,0.18-.09.35-0.09,0.65s0.06,0.77.11,1.18a24.79,24.79,0,0,0,.72,3.72c1.09-.54,2.19-1.05,3.28-1.66a3,3,0,0,0,1.07-.85,7.77,7.77,0,0,1,.94,1,0.3,0.3,0,0,1-.22.52,7,7,0,0,0-1.62.59c-1.35.63-2.93,1.38-4.18,2.1-1.86,1.09-2.73,2-2.73,3.34,0,1.64,1.55,2,4.33,2a35.36,35.36,0,0,0,4.74-.39,0.19,0.19,0,0,1,.26.17,8.18,8.18,0,0,1,.11,1c0,0.17-.06.24-0.26,0.26a41,41,0,0,1-4.9.26c-3.19,0-5.49-.7-5.49-3.23,0-1.77,1.25-3.13,3.59-4.55a32.87,32.87,0,0,1-1-4.72,6.75,6.75,0,0,0-.41-1.81A8.41,8.41,0,0,1,339,263.65Z"/><path class="cls-1" d="M362.82,266.16c0.17,0,.22,0,0.24.11s0.07,0.55.09,0.79,0,0.2-.17.22c-1,.2-2,0.37-3.08.54a44.43,44.43,0,0,1-3.71,7.78,0.18,0.18,0,0,1-.29.06,4.27,4.27,0,0,1-.74-0.55c-0.11-.09-0.11-0.17,0-0.31a32.37,32.37,0,0,0,3.47-6.86c-0.79.07-1.53,0.13-2.32,0.13-0.28,0-.55,0-1,0-0.17,0-.18,0-0.22-0.22a5.71,5.71,0,0,1-.11-0.92c0.59,0.06,1.07.07,1.46,0.07a23.66,23.66,0,0,0,2.51-.15c0.22-.7.39-1.38,0.55-2.16a5.45,5.45,0,0,0,.15-1.44,7.69,7.69,0,0,1,1.44.37,0.21,0.21,0,0,1,.17.2,0.38,0.38,0,0,1-.15.28,1.67,1.67,0,0,0-.26.57c-0.2.66-.41,1.35-0.59,2A25.33,25.33,0,0,0,362.82,266.16Zm1.13,4.46a5.69,5.69,0,0,0-.11-1.18,5.79,5.79,0,0,1,1.25.24,0.23,0.23,0,0,1,.2.22,1,1,0,0,1-.11.33,2.86,2.86,0,0,0-.07.87,31.1,31.1,0,0,0,.22,3.39,16.07,16.07,0,0,1,3.48,1.84c0.15,0.09.13,0.15,0.07,0.29a5.82,5.82,0,0,1-.44.81c-0.09.13-.18,0.11-0.29,0a11.13,11.13,0,0,0-2.8-1.75c0,1.86-.92,2.88-3.3,2.88-1.4,0-2.86-.72-2.86-2.25s1.33-2.32,3.13-2.32a9.15,9.15,0,0,1,1.84.22C364.05,273.09,364,271.61,363.94,270.62ZM362.38,275c-1.47,0-2.14.57-2.14,1.25,0,0.85.68,1.24,1.9,1.24,1.51,0,2.06-.79,2.06-1.73a2.48,2.48,0,0,0,0-.44A6.09,6.09,0,0,0,362.38,275Zm3.13-8.26a0.21,0.21,0,0,1,.31-0.11,13,13,0,0,1,3.61,1.73,0.21,0.21,0,0,1,0,.33,4.81,4.81,0,0,1-.42.74c-0.09.13-.15,0.11-0.26,0a12.42,12.42,0,0,0-3.76-1.88C365.21,267.3,365.36,267,365.51,266.77Z"/><path class="cls-1" d="M381.35,264a0.34,0.34,0,0,1,.24.28,0.47,0.47,0,0,1-.07.24,1.73,1.73,0,0,0-.33.72,27.39,27.39,0,0,0-.55,4.24,12.84,12.84,0,0,0,.07,2.08c0.39-.77.94-1.82,1.36-2.65a2.61,2.61,0,0,0,.37.76,0.39,0.39,0,0,1,0,.5,19,19,0,0,0-1.16,2.43,1.48,1.48,0,0,0-.13.59c0,0.17,0,.22-0.13.26s-0.57.09-.88,0.13a0.21,0.21,0,0,1-.18-0.18,11,11,0,0,1-.46-3.45,34.08,34.08,0,0,1,.42-4.33,10.07,10.07,0,0,0,.17-2A5.21,5.21,0,0,1,381.35,264Zm5.82-.18a0.27,0.27,0,0,1,.28.37,3.13,3.13,0,0,0,0,.87c0.15,2,.22,3.58.22,4.88,0,2.64-.46,4.63-1.51,6a9.46,9.46,0,0,1-3,2.67,0.35,0.35,0,0,1-.48,0,2.74,2.74,0,0,0-.94-0.52,8.63,8.63,0,0,0,3.21-2.53c1-1.38,1.51-2.95,1.51-5.58,0-1.27-.07-3-0.18-4.39a7.69,7.69,0,0,0-.37-1.94A6.5,6.5,0,0,1,387.18,263.82Z"/><path class="cls-1" d="M404.77,271.37a36.07,36.07,0,0,1-4.24-.06c-0.15,0-.18-0.06-0.2-0.22a7.75,7.75,0,0,1-.06-0.94,27.56,27.56,0,0,0,4.46.13c0-.9,0-1.86,0-2.75a35.2,35.2,0,0,1-4.88-.09,0.17,0.17,0,0,1-.17-0.18,6.49,6.49,0,0,1-.07-1,31.32,31.32,0,0,0,5.12.15c0-.76,0-1.27,0-2a4.39,4.39,0,0,0-.17-1.22,7.49,7.49,0,0,1,1.46.24,0.29,0.29,0,0,1,.17.42,1.72,1.72,0,0,0-.22.85c0,0.59,0,1-.06,1.62a43,43,0,0,0,4.5-.61c0.15,0,.18,0,0.2.13a7.06,7.06,0,0,1,.05.81c0,0.15-.07.18-0.13,0.18a45.8,45.8,0,0,1-4.63.53c0,0.9,0,1.86,0,2.73a31,31,0,0,0,4.07-.54c0.13,0,.18,0,0.2.09s0,0.57,0,.88a0.17,0.17,0,0,1-.18.18,33.52,33.52,0,0,1-4.07.5c0,1.14.06,2.1,0.13,3.21A15,15,0,0,1,411,276.9a0.24,0.24,0,0,1,.07.31,2.47,2.47,0,0,1-.46.79,0.18,0.18,0,0,1-.28.05,13.59,13.59,0,0,0-4.2-2.34c0,2.06-1.07,2.88-3.3,2.88s-3.26-.83-3.26-2.19c0-1.2,1.25-2.25,3.39-2.25a11.59,11.59,0,0,1,1.94.15C404.83,273.25,404.79,272.44,404.77,271.37Zm-1.83,3.8c-1.55,0-2.32.5-2.32,1.16s0.72,1.14,2.06,1.14a2.52,2.52,0,0,0,1.88-.57,2.07,2.07,0,0,0,.33-1.49A8.72,8.72,0,0,0,402.95,275.17Z"/><path class="cls-1" d="M434.48,267c0,0.17-.06.18-0.24,0.18-2-.06-3.78-0.07-5.86,0,0,1.16,0,2.43,0,3.67a7.87,7.87,0,0,1,.22,1.94,6.1,6.1,0,0,1-3.59,5.7,1,1,0,0,1-.42.17,0.53,0.53,0,0,1-.33-0.15,2.75,2.75,0,0,0-.85-0.52c2.64-1.09,3.85-2.78,4-4.65a2.28,2.28,0,0,1-2,1.05,2.38,2.38,0,0,1-2.43-2.6,2.47,2.47,0,0,1,2.52-2.56,2.33,2.33,0,0,1,1.73.63c0-.9,0-1.73,0-2.6-2.64.15-5.12,0.33-6.87,0.55-0.44.05-.66,0.18-0.81,0.18a0.21,0.21,0,0,1-.22-0.18,6,6,0,0,1-.29-1.18,16.52,16.52,0,0,0,2.32-.11c1.49-.11,3.39-0.24,5.84-0.39,0-.76,0-1.12,0-1.71a4.85,4.85,0,0,0-.18-1.23,9.27,9.27,0,0,1,1.4.2,0.36,0.36,0,0,1,.33.28,0.69,0.69,0,0,1-.13.33,1.08,1.08,0,0,0-.13.5c0,0.41,0,.76,0,1.57,2-.06,3.85-0.06,5.9-0.06,0.17,0,.2,0,0.2.2V267Zm-10.42,4.76a1.46,1.46,0,0,0,1.49,1.58,1.63,1.63,0,0,0,1.68-1.62,1.54,1.54,0,0,0-1.64-1.57A1.52,1.52,0,0,0,424.06,271.78Z"/><path class="cls-1" d="M445.21,277a2.6,2.6,0,1,1-2.6-2.56A2.59,2.59,0,0,1,445.21,277ZM441,277a1.64,1.64,0,1,0,1.64-1.64A1.64,1.64,0,0,0,441,277Z"/><path class="cls-1" d="M19.87,311.4l-0.55.55L12.37,305l-6.91,6.93-0.55-.55,6.91-6.93-6.88-6.87L5.5,297l6.88,6.88L19.25,297l0.55,0.55-6.87,6.88Zm-11.1-6.93a1.37,1.37,0,0,1-1.38,1.36,1.36,1.36,0,0,1,0-2.73A1.38,1.38,0,0,1,8.78,304.46Zm5-5a1.36,1.36,0,1,1-1.36-1.36A1.36,1.36,0,0,1,13.73,299.49Zm0,10a1.36,1.36,0,0,1-2.73,0A1.36,1.36,0,1,1,13.73,309.46Zm5-5a1.35,1.35,0,0,1-1.35,1.36A1.36,1.36,0,1,1,18.71,304.46Z"/><path class="cls-1" d="M25.91,301.13a3.88,3.88,0,0,1,4-3.58c2.19,0,3.74,1.29,3.74,3.48,0,1.47-.55,2.58-2.78,4.53a12.6,12.6,0,0,0-3.54,4.29h6.34v1.27H25.8V310a15,15,0,0,1,3.94-5.24c1.9-1.77,2.32-2.54,2.32-3.72a2.06,2.06,0,0,0-2.17-2.21c-1.35,0-2.23.88-2.47,2.65Z"/><path class="cls-1" d="M58.51,309.48c0,2.6,0,3,0,3.13s0,0.15-.15.15H57.5c-0.13,0-.15,0-0.15-0.15v-0.94H50v1c0,0.11,0,.13-0.15.13H48.92c-0.13,0-.15,0-0.15-0.13s0-.63,0-3.21v-2.78a36.92,36.92,0,0,1-4,2c-0.33.13-.33,0.13-0.52-0.2a1.81,1.81,0,0,0-.53-0.63,24.58,24.58,0,0,0,7-3.8,13.41,13.41,0,0,0-2.4-2c-0.13-.09-0.15-0.11,0-0.28l0.41-.37c0.15-.15.18-0.15,0.31-0.07a16.55,16.55,0,0,1,2.54,1.94,27.28,27.28,0,0,0,3.65-4H49.85a19.2,19.2,0,0,1-4.65,3.74,0.83,0.83,0,0,1-.28.13,0.41,0.41,0,0,1-.26-0.28,1.88,1.88,0,0,0-.55-0.54,16.22,16.22,0,0,0,6-5.25,3.83,3.83,0,0,0,.57-1.07,8.79,8.79,0,0,1,1.12.39,0.21,0.21,0,0,1,.17.2,0.36,0.36,0,0,1-.2.24,1.66,1.66,0,0,0-.5.55q-0.33.47-.66,0.88h4.83a1.08,1.08,0,0,0,.44-0.06,0.64,0.64,0,0,1,.22-0.06,0.87,0.87,0,0,1,.53.31,0.85,0.85,0,0,1,.37.52,0.32,0.32,0,0,1-.22.28,2.53,2.53,0,0,0-.55.55,25.59,25.59,0,0,1-6,5.83h5.57c1.66,0,2.41,0,2.51,0s0.15,0,.15.13,0,0.57,0,2.12v1.51Zm-1.16-2.75H50v3.94h7.39v-3.94Z"/><path class="cls-1" d="M65.75,308.67a0.32,0.32,0,0,1,.2-0.11,0.37,0.37,0,0,1,.2.11A12.76,12.76,0,0,1,69.69,312a0.39,0.39,0,0,1,.09.22,0.26,0.26,0,0,1-.13.22L69,313a0.41,0.41,0,0,1-.18.11,0.21,0.21,0,0,1-.2-0.15,13.44,13.44,0,0,0-3.39-3.45,0.2,0.2,0,0,1-.13-0.13,0.28,0.28,0,0,1,.09-0.18Z"/><path class="cls-1" d="M90.75,300.24a4.1,4.1,0,0,1,4.11-2.69c2.34,0,4,1.35,4,3.28a3,3,0,0,1-2.73,3.08v0.17a3.38,3.38,0,0,1,3,3.39c0,2.36-1.75,3.91-4.31,3.91-2.19,0-3.63-.81-4.39-2.67l1.53-.55a2.68,2.68,0,0,0,2.86,2,2.49,2.49,0,0,0,2.67-2.64c0-1.73-1.07-2.75-3.28-2.75H93.16v-1.31h1c2,0,3.1-.94,3.1-2.47a2.15,2.15,0,0,0-2.41-2.16,2.5,2.5,0,0,0-2.56,1.94Z"/><path class="cls-1" d="M123.15,309.48c0,2.6,0,3,0,3.13s0,0.15-.15.15h-0.9c-0.13,0-.15,0-0.15-0.15v-0.94h-7.39v1c0,0.11,0,.13-0.15.13h-0.88c-0.13,0-.15,0-0.15-0.13s0-.63,0-3.21v-2.78a36.92,36.92,0,0,1-4,2c-0.33.13-.33,0.13-0.52-0.2a1.81,1.81,0,0,0-.53-0.63,24.58,24.58,0,0,0,7-3.8,13.41,13.41,0,0,0-2.4-2c-0.13-.09-0.15-0.11,0-0.28l0.41-.37c0.15-.15.18-0.15,0.31-0.07a16.55,16.55,0,0,1,2.54,1.94,27.28,27.28,0,0,0,3.65-4h-5.44a19.2,19.2,0,0,1-4.65,3.74,0.83,0.83,0,0,1-.28.13,0.41,0.41,0,0,1-.26-0.28,1.88,1.88,0,0,0-.55-0.54,16.22,16.22,0,0,0,6-5.25,3.83,3.83,0,0,0,.57-1.07,8.79,8.79,0,0,1,1.12.39,0.21,0.21,0,0,1,.17.2,0.36,0.36,0,0,1-.2.24,1.66,1.66,0,0,0-.5.55q-0.33.47-.66,0.88h4.83a1.08,1.08,0,0,0,.44-0.06,0.64,0.64,0,0,1,.22-0.06,0.87,0.87,0,0,1,.53.31,0.85,0.85,0,0,1,.37.52,0.32,0.32,0,0,1-.22.28,2.53,2.53,0,0,0-.55.55,25.59,25.59,0,0,1-6,5.83h5.57c1.66,0,2.41,0,2.51,0s0.15,0,.15.13,0,0.57,0,2.12v1.51ZM122,306.73h-7.39v3.94H122v-3.94Z"/><path class="cls-1" d="M140.35,300.06c-2.77.44-5.16,0.83-7.48,1.31a4,4,0,0,0-1.11.31,1,1,0,0,1-.35.13,0.31,0.31,0,0,1-.26-0.17,10.14,10.14,0,0,1-.52-1.31,14.39,14.39,0,0,0,2.29-.22c2.75-.44,6.49-1,11.43-1.6a0.25,0.25,0,0,1,.31.15,5.2,5.2,0,0,1,.11.92c0,0.17-.06.2-0.24,0.22a7.65,7.65,0,0,0-2.69.55c-2.69,1.07-4.76,3.34-4.76,5.81,0,3.06,2.67,4,5.36,4.18,0.24,0,.29.05,0.29,0.2a5.52,5.52,0,0,1-.11.88c0,0.2-.09.28-0.29,0.26-3.12-.28-6.47-1.6-6.47-5.33,0-2.6,1.6-4.74,4.5-6.27Zm2.25,2.6a0.14,0.14,0,0,1,.18,0,8.93,8.93,0,0,1,2.08,2.23,0.13,0.13,0,0,1,0,.2l-0.53.44a0.15,0.15,0,0,1-.24,0,8,8,0,0,0-2.14-2.36Zm1.53-1.2a0.15,0.15,0,0,1,.2,0,10.6,10.6,0,0,1,2.1,2.16,0.15,0.15,0,0,1-.06.22l-0.5.44c-0.07.07-.15,0.07-0.22,0a8.79,8.79,0,0,0-2.12-2.3Z"/><path class="cls-1" d="M160.31,299.84a20.57,20.57,0,0,1-2.43,8.05c-0.79,1.35-1.62,1.9-2.71,1.9-1.38,0-2.69-1.51-2.69-4.18a6.69,6.69,0,0,1,2.14-4.77,7.86,7.86,0,0,1,5.53-2c4.13,0,6.58,2.42,6.58,5.94,0,3-1.86,5.42-5.86,6.43a0.36,0.36,0,0,1-.48-0.2,2.16,2.16,0,0,0-.72-0.68c3.65-.72,5.75-2.69,5.75-5.77a4.61,4.61,0,0,0-4.76-4.66h-0.35Zm-4.88,1.77a5.71,5.71,0,0,0-1.77,4c0,2,.83,2.88,1.49,2.88a2.08,2.08,0,0,0,1.71-1.35,19.57,19.57,0,0,0,2.16-7.21A6.21,6.21,0,0,0,155.42,301.61Z"/><path class="cls-1" d="M184.22,300.06a1.43,1.43,0,0,0,.92-0.2,0.41,0.41,0,0,1,.48.07,5.4,5.4,0,0,1,.74.61,0.35,0.35,0,0,1,0,.55,1.84,1.84,0,0,0-.48.65,24.78,24.78,0,0,1-3.56,5.75,22.9,22.9,0,0,1-5.75,4.77,0.31,0.31,0,0,1-.41-0.06,2.61,2.61,0,0,0-1-.53,20.48,20.48,0,0,0,6.1-4.88,20.69,20.69,0,0,0,3.47-5.64l-5.31.15a26.68,26.68,0,0,1-3.65,3.94,0.39,0.39,0,0,1-.57,0,2.48,2.48,0,0,0-.94-0.39,19.7,19.7,0,0,0,4.81-5.36,5.49,5.49,0,0,0,.92-2.3,4.62,4.62,0,0,1,1.38.64,0.27,0.27,0,0,1,0,.48,2,2,0,0,0-.55.63c-0.28.44-.48,0.79-0.74,1.16Zm2-2.56a0.14,0.14,0,0,1,.2,0,8.93,8.93,0,0,1,2.08,2.23,0.13,0.13,0,0,1,0,.2l-0.53.44a0.15,0.15,0,0,1-.24,0,8,8,0,0,0-2.14-2.36Zm1.55-1.22a0.15,0.15,0,0,1,.2,0,10.58,10.58,0,0,1,2.1,2.16,0.14,0.14,0,0,1-.06.22l-0.5.44c-0.07.07-.15,0.07-0.22,0a8.79,8.79,0,0,0-2.12-2.3Z"/><path class="cls-1" d="M200.18,299.95c0.2,0.07.22,0.24,0.13,0.46a4.36,4.36,0,0,0-.18,1.44A11.88,11.88,0,0,1,199,306.9a9.65,9.65,0,0,1-2.64,3.28,0.35,0.35,0,0,1-.52.07,2.68,2.68,0,0,0-1-.46,8.76,8.76,0,0,0,3-3.43,10.8,10.8,0,0,0,1-4.77,7.58,7.58,0,0,0-.17-1.92A7,7,0,0,1,200.18,299.95Zm3.83,8.37a24,24,0,0,0,3.13-2,17.2,17.2,0,0,0,3.26-3.08,3.12,3.12,0,0,0,.31,1.16,0.35,0.35,0,0,1-.11.48,25.15,25.15,0,0,1-2.91,2.58,35.28,35.28,0,0,1-3.19,2.06,2.56,2.56,0,0,0-.61.41,0.35,0.35,0,0,1-.5,0,3.82,3.82,0,0,1-.72-0.72,0.51,0.51,0,0,1,0-.46,9.39,9.39,0,0,0,.07-1.83v-5.23a16.48,16.48,0,0,0-.18-3.23,12.76,12.76,0,0,1,1.53.24c0.28,0.09.22,0.28,0.11,0.54a8.78,8.78,0,0,0-.17,2.43v6.58Z"/><path class="cls-1" d="M220.17,305.29a15.06,15.06,0,0,0-2.49.18,0.3,0.3,0,0,1-.31-0.26,10.82,10.82,0,0,1-.18-1.4,33.65,33.65,0,0,0,4.07.17h5.66c1.27,0,2.64,0,4-.06,0.22,0,.28,0,0.28.22a8.25,8.25,0,0,1,0,1c0,0.2-.06.24-0.28,0.22-1.38,0-2.75,0-4,0h-6.8Z"/><path class="cls-1" d="M242.7,300.61c-1.09,0-2.1,0-3.1.11-0.22,0-.29-0.06-0.33-0.29s-0.07-.83-0.09-1.14a35,35,0,0,0,3.54.15h6.52a1.67,1.67,0,0,0,.92-0.17,0.45,0.45,0,0,1,.48,0,4.7,4.7,0,0,1,.83.75,0.39,0.39,0,0,1-.06.57,1.67,1.67,0,0,0-.41.63,19.74,19.74,0,0,1-3.61,6,20.11,20.11,0,0,1-5.47,4.44,0.46,0.46,0,0,1-.63,0,3.2,3.2,0,0,0-1-.63,17.67,17.67,0,0,0,6-4.55,17.35,17.35,0,0,0,3.47-5.9H242.7Zm12-2.95a1.86,1.86,0,1,1-1.86-1.86A1.86,1.86,0,0,1,254.74,297.66Zm-3,0a1.16,1.16,0,1,0,1.16-1.16A1.16,1.16,0,0,0,251.72,297.66Z"/><path class="cls-1" d="M266.42,302.38a26,26,0,0,1,6,2.56,0.2,0.2,0,0,1,.13.29,5.86,5.86,0,0,1-.44.9c-0.11.15-.18,0.18-0.35,0.07a20.44,20.44,0,0,0-5.36-2.47V308c0,1.13,0,2.56.06,3.76,0,0.18,0,.24-0.24.24a7.94,7.94,0,0,1-.94,0,0.21,0.21,0,0,1-.26-0.26c0.06-1.18.07-2.62,0.07-3.74v-8.2a15.61,15.61,0,0,0-.2-2.95,7.65,7.65,0,0,1,1.53.24c0.29,0.07.22,0.28,0.13,0.55a7.71,7.71,0,0,0-.13,2v2.67Z"/><path class="cls-1" d="M285.39,308.91a29.1,29.1,0,0,0,5.07-2.38,21.48,21.48,0,0,0,4.83-3.67,6.67,6.67,0,0,0,.17,1.33,0.34,0.34,0,0,1-.11.42,27,27,0,0,1-4.61,3.24c-1.42.83-2.84,1.46-4.52,2.23a3.47,3.47,0,0,0-1,.54,0.36,0.36,0,0,1-.52,0,4.46,4.46,0,0,1-.7-0.74,0.39,0.39,0,0,1,0-.44,2.58,2.58,0,0,0,.09-0.94l0-6a21,21,0,0,0-.18-4.18,7.57,7.57,0,0,1,1.57.29c0.22,0.07.24,0.22,0.13,0.52a15.6,15.6,0,0,0-.2,3.35Z"/><path class="cls-1" d="M306.36,305.29a15.06,15.06,0,0,0-2.49.18,0.3,0.3,0,0,1-.31-0.26,10.81,10.81,0,0,1-.18-1.4,33.66,33.66,0,0,0,4.07.17h5.66c1.27,0,2.64,0,4-.06,0.22,0,.28,0,0.28.22a8.25,8.25,0,0,1,0,1c0,0.2-.06.24-0.28,0.22-1.38,0-2.75,0-4,0h-6.8Z"/><path class="cls-1" d="M328.64,309.13c-1.29,0-2.43,0-3.43.09a0.24,0.24,0,0,1-.29-0.26c0-.31-0.07-0.74-0.09-1.24,1.23,0.09,2.41.11,3.82,0.11h6c1.53,0,3,0,4.17-.07,0.22,0,.28.06,0.28,0.24a7,7,0,0,1,0,.88c0,0.22-.06.28-0.28,0.28-1.18,0-2.75,0-4.11,0h-6.06Zm1.58-7.71c-1,0-2,0-2.86.07-0.18,0-.24-0.06-0.26-0.28S327,300.43,327,300c1.14,0.09,2.12.11,3.17,0.11h3c1.25,0,2.32,0,3.34-.07a0.18,0.18,0,0,1,.2.22,7.93,7.93,0,0,1,0,.94c0,0.2-.06.24-0.22,0.24-1,0-2.16,0-3.28,0h-3Z"/><path class="cls-1" d="M348.09,299a0.22,0.22,0,0,1,.33,0,17,17,0,0,1,3.32,2.45,0.23,0.23,0,0,1,.06.35,7.48,7.48,0,0,1-.63.79c-0.11.13-.17,0.15-0.29,0a19.13,19.13,0,0,0-3.5-2.73C347.61,299.56,347.89,299.23,348.09,299Zm1.66,9.77a31.32,31.32,0,0,0,5.33-3.43,28.75,28.75,0,0,0,5-5,5.5,5.5,0,0,0,.31,1.22,0.51,0.51,0,0,1-.13.65,34.05,34.05,0,0,1-4.48,4.24,38.28,38.28,0,0,1-5.53,3.59,6.82,6.82,0,0,0-1,.72,0.3,0.3,0,0,1-.5,0,6.91,6.91,0,0,1-.9-1.25A10.24,10.24,0,0,0,349.75,308.78Z"/><path class="cls-1" d="M378.13,300.06a1.43,1.43,0,0,0,.92-0.2,0.41,0.41,0,0,1,.48.07,5.45,5.45,0,0,1,.74.61,0.35,0.35,0,0,1,0,.55,1.84,1.84,0,0,0-.48.65,24.73,24.73,0,0,1-3.56,5.75,22.89,22.89,0,0,1-5.75,4.77,0.31,0.31,0,0,1-.41-0.06,2.61,2.61,0,0,0-1-.53,20.49,20.49,0,0,0,6.1-4.88,20.71,20.71,0,0,0,3.47-5.64l-5.31.15a26.71,26.71,0,0,1-3.65,3.94,0.39,0.39,0,0,1-.57,0,2.49,2.49,0,0,0-.94-0.39,19.7,19.7,0,0,0,4.81-5.36,5.48,5.48,0,0,0,.92-2.3,4.61,4.61,0,0,1,1.38.64,0.27,0.27,0,0,1,0,.48,2,2,0,0,0-.55.63c-0.28.44-.48,0.79-0.74,1.16Zm2-2.56a0.14,0.14,0,0,1,.2,0,8.92,8.92,0,0,1,2.08,2.23,0.13,0.13,0,0,1,0,.2l-0.53.44a0.15,0.15,0,0,1-.24,0,8,8,0,0,0-2.14-2.36Zm1.55-1.22a0.15,0.15,0,0,1,.2,0,10.57,10.57,0,0,1,2.1,2.16,0.14,0.14,0,0,1-.05.22l-0.5.44c-0.07.07-.15,0.07-0.22,0a8.8,8.8,0,0,0-2.12-2.3Z"/><path class="cls-1" d="M392.33,298.29a0.38,0.38,0,0,1,.26.29,0.49,0.49,0,0,1-.13.31,2.7,2.7,0,0,0-.37,1,30.18,30.18,0,0,0-.87,6.36,14,14,0,0,0,.28,3.17c0.44-1,.83-1.83,1.36-3.12a4.56,4.56,0,0,0,.44.74,0.3,0.3,0,0,1,.09.18,0.62,0.62,0,0,1-.09.29c-0.41.94-.79,1.84-1.18,2.93a1.09,1.09,0,0,0-.07.46c0,0.17,0,.28,0,0.41a0.16,0.16,0,0,1-.13.17,4.52,4.52,0,0,1-.83.18,0.23,0.23,0,0,1-.2-0.18,16.35,16.35,0,0,1-.83-5.35,33.55,33.55,0,0,1,.76-6.29,10.62,10.62,0,0,0,.26-2A6.79,6.79,0,0,1,392.33,298.29Zm3.82,8.77c0.09,0,.13,0,0.13.18,0.06,1.4,1.18,2,3.36,2a27.57,27.57,0,0,0,3.63-.26c0.15,0,.18,0,0.2.18s0.05,0.61.05,0.87,0,0.18-.24.22a27.62,27.62,0,0,1-3.3.2c-2.06,0-3.24-.29-4.05-1.16a3,3,0,0,1-.77-2.19Zm-0.33-6.86a0.21,0.21,0,0,1,.22-0.26,30.45,30.45,0,0,1,3.91-.33c1.07,0,2.12,0,2.62.09,0.24,0,.28,0,0.28.18s0,0.59,0,.87,0,0.18-.2.17c-0.72-.07-1.92-0.09-3-0.09a23.38,23.38,0,0,0-3.85.39C395.8,300.72,395.8,300.43,395.82,300.21Z"/><path class="cls-1" d="M418.81,299.71c0.17,0,.22,0,0.24.11s0.07,0.55.09,0.79,0,0.2-.17.22c-1,.2-2,0.37-3.08.54a44.43,44.43,0,0,1-3.71,7.78,0.18,0.18,0,0,1-.29.05,4.22,4.22,0,0,1-.74-0.55c-0.11-.09-0.11-0.17,0-0.31a32.42,32.42,0,0,0,3.46-6.86c-0.79.07-1.53,0.13-2.32,0.13-0.28,0-.55,0-1,0-0.17,0-.18,0-0.22-0.22a5.83,5.83,0,0,1-.11-0.92c0.59,0.06,1.07.07,1.46,0.07a23.54,23.54,0,0,0,2.51-.15c0.22-.7.39-1.38,0.55-2.16a5.41,5.41,0,0,0,.15-1.44,7.7,7.7,0,0,1,1.44.37,0.21,0.21,0,0,1,.17.2,0.37,0.37,0,0,1-.15.28,1.67,1.67,0,0,0-.26.57c-0.2.66-.41,1.35-0.59,2A25.63,25.63,0,0,0,418.81,299.71Zm1.12,4.46a5.76,5.76,0,0,0-.11-1.18,5.84,5.84,0,0,1,1.25.24,0.23,0.23,0,0,1,.2.22,1,1,0,0,1-.11.33,2.83,2.83,0,0,0-.07.87,31.1,31.1,0,0,0,.22,3.39,16,16,0,0,1,3.48,1.84c0.15,0.09.13,0.15,0.07,0.29a5.93,5.93,0,0,1-.44.81,0.17,0.17,0,0,1-.29,0,11.16,11.16,0,0,0-2.8-1.75c0,1.86-.92,2.88-3.3,2.88-1.4,0-2.86-.72-2.86-2.25s1.33-2.32,3.13-2.32a9.16,9.16,0,0,1,1.84.22C420,306.64,420,305.17,419.94,304.17Zm-1.57,4.41c-1.47,0-2.14.57-2.14,1.25,0,0.85.68,1.24,1.9,1.24,1.51,0,2.06-.79,2.06-1.73a2.64,2.64,0,0,0,0-.44A6.13,6.13,0,0,0,418.37,308.58Zm3.13-8.26a0.21,0.21,0,0,1,.31-0.11,13.08,13.08,0,0,1,3.61,1.73,0.21,0.21,0,0,1,0,.33,4.8,4.8,0,0,1-.42.74c-0.09.13-.15,0.11-0.26,0a12.41,12.41,0,0,0-3.76-1.88C421.21,300.85,421.36,300.54,421.5,300.32Z"/><path class="cls-1" d="M437.35,304.56a7.2,7.2,0,0,1,4-1.31c2.65,0,4.29,1.64,4.29,4,0,2.75-2.17,4.74-6.08,4.74-2.21,0-3.21-1-3.21-2.17a2,2,0,0,1,2.16-1.88,3.12,3.12,0,0,1,3.13,2.64,3.4,3.4,0,0,0,2.69-3.35,3,3,0,0,0-3.19-3,8.49,8.49,0,0,0-5.07,2.08,17.74,17.74,0,0,0-1.62,1.51c-0.15.15-.24,0.17-0.37,0a8.47,8.47,0,0,1-.68-0.74c-0.07-.09-0.05-0.17.07-0.28a50.17,50.17,0,0,0,4.17-4.11c1.07-1.16,2.18-2.34,3.59-4-1.53.24-3,.52-4.61,0.83a3,3,0,0,0-.64.17,1.11,1.11,0,0,1-.35.09,0.33,0.33,0,0,1-.29-0.22,5.84,5.84,0,0,1-.44-1.27,6.83,6.83,0,0,0,1.62,0c1.46-.15,3-0.35,4.59-0.66a2,2,0,0,0,.57-0.17,0.57,0.57,0,0,1,.26-0.13,0.55,0.55,0,0,1,.33.15,4.55,4.55,0,0,1,.79.77,0.5,0.5,0,0,1,.13.31,0.38,0.38,0,0,1-.28.35,2,2,0,0,0-.87.65c-1.64,1.73-2.88,3-4.72,4.9Zm1.16,4.41a1,1,0,0,0-1.12.87c0,0.61.66,1.12,1.9,1.12a6.64,6.64,0,0,0,1.2-.09A2.14,2.14,0,0,0,438.51,309Z"/><path class="cls-1" d="M469.23,298.36c0,0.13,0,.15-0.15.15l-2.08,0v8.74c0,2,0,2.78,0,3.43a1.49,1.49,0,0,1-.52,1.4c-0.44.33-1.46,0.39-3.11,0.35-0.37,0-.37,0-0.46-0.37a2.76,2.76,0,0,0-.37-0.85c0.57,0.06,1.51.09,2.21,0.09s1-.11,1-0.72V298.47h-10c-1.73,0-2.32,0-2.42,0s-0.15,0-.15-0.15V297.5c0-.13,0-0.15.15-0.15s0.68,0,2.42,0h10.84c1.73,0,2.32,0,2.42,0s0.15,0,.15.15v0.87Zm-6.91,6.82c0,2.71,0,3.15,0,3.26s0,0.15-.15.15h-0.83c-0.15,0-.17,0-0.17-0.15v-0.9h-4.44V309c0,0.13,0,.15-0.15.15h-0.85c-0.13,0-.15,0-0.15-0.15s0-.57,0-3.43v-1.81c0-1.73,0-2.23,0-2.32s0-.15.15-0.15,0.59,0,2,0h2.45c1.42,0,1.88,0,2,0s0.15,0,.15.15,0,0.57,0,1.92v1.86Zm-1.11-2.86h-4.44v4.18h4.44v-4.18Z"/><path class="cls-1" d="M480.61,298c0.15-.09.2-0.07,0.28,0a14.89,14.89,0,0,1,2,3c0.06,0.13,0,.18-0.13.29l-0.46.26a0.5,0.5,0,0,1-.22.09,0.18,0.18,0,0,1-.13-0.13c-0.13-.29-0.29-0.63-0.46-0.94-1.68.29-3.5,0.55-5.6,0.79a1.59,1.59,0,0,0-.77.2,0.32,0.32,0,0,1-.22.07c-0.07,0-.13-0.06-0.18-0.22a8.35,8.35,0,0,1-.22-1.07c0.5,0,1.14,0,1.6,0a25,25,0,0,0,1.38-2.87,6.77,6.77,0,0,0,.35-1.25,5.11,5.11,0,0,1,1,.28,0.29,0.29,0,0,1,.26.24,0.4,0.4,0,0,1-.18.29,1.4,1.4,0,0,0-.31.48c-0.37.79-.92,1.9-1.4,2.73,1.33-.13,2.6-0.28,3.78-0.46a14.61,14.61,0,0,0-.94-1.29c-0.07-.09-0.06-0.15.13-0.26Zm1.31,10.49c0,1,0,2,0,2.43a1.38,1.38,0,0,1-.37,1.2,2.86,2.86,0,0,1-1.9.33c-0.35,0-.37,0-0.46-0.37a2.68,2.68,0,0,0-.29-0.7,8.37,8.37,0,0,0,1.14.07c0.61,0,.83-0.18.83-0.74v-2.08H477v1.55c0,1.55,0,2.19,0,2.29s0,0.15-.15.15h-0.79c-0.13,0-.15,0-0.15-0.15s0-.66,0-2.27v-5.31c0-1.59,0-2.19,0-2.3s0-.15.15-0.15,0.53,0,1.86,0h2c1.33,0,1.77,0,1.86,0s0.13,0,.13.15,0,0.83,0,2.42v3.48Zm-1-5.09H477v1.7h3.91v-1.7Zm0,2.58H477v1.77h3.91V306Zm3.95-4.11c0,0.48.07,0.65,0.46,0.76a8.58,8.58,0,0,0,1.79.11,4,4,0,0,0,2.27-.37,2.47,2.47,0,0,0,.41-1.73,3.15,3.15,0,0,0,.72.41c0.28,0.13.31,0.15,0.28,0.46a2.21,2.21,0,0,1-.7,1.73c-0.46.37-1.42,0.5-3,.5a9.24,9.24,0,0,1-2.62-.22,1,1,0,0,1-.66-1.18v-4.07a10.49,10.49,0,0,0-.11-1.88,10.75,10.75,0,0,1,1.16.11,0.23,0.23,0,0,1,.24.17,0.64,0.64,0,0,1-.11.31,3.4,3.4,0,0,0-.09,1.25v1.33a20.11,20.11,0,0,0,3.34-1.47,3.37,3.37,0,0,0,1-.74,6.2,6.2,0,0,1,.77.72,0.31,0.31,0,0,1,.13.22,0.24,0.24,0,0,1-.24.18,3.81,3.81,0,0,0-.81.35,34.63,34.63,0,0,1-4.17,1.75v1.31Zm0,8.48a0.76,0.76,0,0,0,.48.85,6.58,6.58,0,0,0,1.92.17,4.38,4.38,0,0,0,2.12-.41c0.37-.33.42-0.74,0.48-1.81a4.24,4.24,0,0,0,.75.41c0.31,0.13.31,0.13,0.26,0.46a2.31,2.31,0,0,1-.77,1.77,5.31,5.31,0,0,1-2.88.57,7.55,7.55,0,0,1-2.76-.29,1.26,1.26,0,0,1-.68-1.36v-4.28a10,10,0,0,0-.11-1.86c0.41,0,.81.06,1.18,0.11,0.15,0,.22.07,0.22,0.17a0.8,0.8,0,0,1-.11.33,3.47,3.47,0,0,0-.09,1.23v1.18a20.68,20.68,0,0,0,3.52-1.58,3.53,3.53,0,0,0,1-.74,5.79,5.79,0,0,1,.76.66,0.37,0.37,0,0,1,.15.28,0.25,0.25,0,0,1-.24.18,2.75,2.75,0,0,0-.83.35,27.9,27.9,0,0,1-4.33,1.86v1.75Z"/><path class="cls-1" d="M497.49,300.24c0.2,0.06.22,0.07,0.2,0.2a13.56,13.56,0,0,1-.81,3.78c0,0.09-.07.11-0.26,0l-0.46-.17c-0.22-.07-0.29-0.07-0.2-0.29a11.69,11.69,0,0,0,.77-3.63c0-.13,0-0.15.28-0.07Zm0.94-1.57a12.21,12.21,0,0,0-.15-2.51,7.57,7.57,0,0,1,1.22.09,0.22,0.22,0,0,1,.22.15,1.58,1.58,0,0,1-.07.33,7.1,7.1,0,0,0-.13,1.9v10.71c0,2.19,0,3.15,0,3.24s0,0.15-.15.15h-0.87c-0.13,0-.15,0-0.15-0.15s0-1.05,0-3.23V298.68Zm2.19,1.07c0.15-.05.22-0.05,0.26,0.06a20.28,20.28,0,0,1,.74,2.53c0,0.13,0,.17-0.18.24l-0.41.17c-0.24.09-.29,0.09-0.31-0.05a15.91,15.91,0,0,0-.66-2.54c-0.05-.13,0-0.15.2-0.24Zm12.05,12.09c0,0.15,0,.17-0.15.17s-0.72,0-2.58,0h-6.14c-1.88,0-2.49,0-2.58,0s-0.15,0-.15-0.17v-0.77c0-.13,0-0.15.15-0.15s0.7,0,2.58,0h2.67v-4.48h-1.4c-1.71,0-2.27,0-2.38,0s-0.15,0-.15-0.15v-0.76c0-.13,0-0.15.15-0.15s0.66,0,2.38,0h1.4v-3.93h-2.91a17.63,17.63,0,0,1-1.31,2.64,0.39,0.39,0,0,1-.22.24,0.51,0.51,0,0,1-.24-0.11,2.49,2.49,0,0,0-.74-0.29,15.33,15.33,0,0,0,2.32-5.47,7,7,0,0,0,.07-1,6.6,6.6,0,0,1,1.09.29c0.18,0.07.22,0.13,0.22,0.2a0.36,0.36,0,0,1-.11.24,1.41,1.41,0,0,0-.22.53c-0.13.52-.29,1.11-0.52,1.73h2.56v-1.92a14.35,14.35,0,0,0-.15-2.53,10.19,10.19,0,0,1,1.22.11,0.22,0.22,0,0,1,.22.15,1.4,1.4,0,0,1-.07.33,8.21,8.21,0,0,0-.13,1.9v2h2c1.7,0,2.27,0,2.36,0s0.15,0,.15.15v0.76c0,0.13,0,.15-0.15.15s-0.66,0-2.36,0h-2v3.93H509c1.71,0,2.27,0,2.36,0s0.15,0,.15.15v0.76c0,0.13,0,.15-0.15.15s-0.65,0-2.36,0h-1.38V311h2.38c1.86,0,2.49,0,2.58,0s0.15,0,.15.15v0.77Z"/><path class="cls-1" d="M523.58,299a6.34,6.34,0,0,0,.17-1.77,7.78,7.78,0,0,1,1.44.5,0.27,0.27,0,0,1,.07.48,1.25,1.25,0,0,0-.31.61c-0.28.9-.52,1.77-0.79,2.67a16.83,16.83,0,0,1,1.79-.13c1.6,0,2.4.81,2.4,3a15.3,15.3,0,0,1-1,5.9,2.2,2.2,0,0,1-2.1,1.46,4.85,4.85,0,0,1-1.88-.33,0.3,0.3,0,0,1-.22-0.31,3.3,3.3,0,0,0-.22-1.11,5.36,5.36,0,0,0,2.14.52,1.24,1.24,0,0,0,1.24-1,13.93,13.93,0,0,0,.83-5.18c0-1.44-.28-2-1.27-2a13.06,13.06,0,0,0-2,.2,50.07,50.07,0,0,1-3.76,8.72,0.22,0.22,0,0,1-.31.09,5.19,5.19,0,0,1-.74-0.5,0.21,0.21,0,0,1,0-.29,39.13,39.13,0,0,0,3.54-7.85c-0.76.11-1.51,0.24-2.43,0.41a2.67,2.67,0,0,0-.81.24,0.29,0.29,0,0,1-.48-0.09,7,7,0,0,1-.42-1.25,12.53,12.53,0,0,0,1.92-.09c1-.11,1.73-0.22,2.6-0.35C523.13,300.74,523.34,300,523.58,299Zm6.67,1.51a0.23,0.23,0,0,1,.28.07,10.52,10.52,0,0,1,3,4.46,0.25,0.25,0,0,1-.06.31,4.09,4.09,0,0,1-.76.5c-0.15.09-.28,0.07-0.31-0.11a10.23,10.23,0,0,0-2.95-4.66A8.2,8.2,0,0,1,530.25,300.48Zm0.39-2.84c0.07-.06.11,0,0.18,0a8.94,8.94,0,0,1,2.08,2.23,0.13,0.13,0,0,1,0,.2l-0.53.44a0.15,0.15,0,0,1-.24,0,8,8,0,0,0-2.14-2.36Zm1.53-1.2a0.14,0.14,0,0,1,.2,0,10.6,10.6,0,0,1,2.1,2.16,0.15,0.15,0,0,1-.05.22l-0.5.44c-0.07.07-.15,0.07-0.22,0a8.78,8.78,0,0,0-2.12-2.3Z"/><path class="cls-1" d="M543.11,306.31a0.14,0.14,0,0,1,.05.24,2.93,2.93,0,0,0-.5,1.44c0,1.51,1.7,2.25,4.72,2.25a22.92,22.92,0,0,0,5.29-.53c0.17,0,.22,0,0.26.13a9.27,9.27,0,0,1,.17,1c0,0.15-.06.2-0.24,0.24a26.62,26.62,0,0,1-5.58.48c-3.59,0-5.73-1.09-5.73-3.47a3.83,3.83,0,0,1,.76-2.17C542.55,306,542.85,306.16,543.11,306.31Zm4.31-6.89c1.33,0,2.8-.06,4.07-0.17a0.19,0.19,0,0,1,.26.17,5.3,5.3,0,0,1,.06.83,0.23,0.23,0,0,1-.26.28,12.22,12.22,0,0,0-4.77,2.1,0.42,0.42,0,0,1-.52,0,2.07,2.07,0,0,0-.75-0.37,24.19,24.19,0,0,1,3.17-1.84c-0.61.05-1.42,0.07-2,.07a19.26,19.26,0,0,1-3.74-.33c-0.11,0-.17-0.07-0.17-0.26s0-.63,0-0.94A21.92,21.92,0,0,0,547.42,299.41Zm4.74-2.36a0.14,0.14,0,0,1,.2,0,8.94,8.94,0,0,1,2.08,2.23,0.13,0.13,0,0,1,0,.2l-0.53.44a0.15,0.15,0,0,1-.24,0,8,8,0,0,0-2.14-2.36Zm1.55-1.22a0.15,0.15,0,0,1,.2,0A10.57,10.57,0,0,1,556,298a0.15,0.15,0,0,1-.05.22l-0.5.44c-0.07.07-.15,0.07-0.22,0a8.81,8.81,0,0,0-2.12-2.3Z"/><path class="cls-1" d="M567.54,298.64a4.43,4.43,0,0,0-.77-1.44,11.2,11.2,0,0,1,1.46-.17,0.31,0.31,0,0,1,.39.28,2.22,2.22,0,0,0,0,.48A6.26,6.26,0,0,0,569,299c0.2,0.55.37,1,.61,1.55a31.37,31.37,0,0,0,4-1.14,0.18,0.18,0,0,1,.26.09,3.92,3.92,0,0,1,.24.81,0.19,0.19,0,0,1-.09.24c-1.14.39-2.42,0.72-3.91,1.07a17.56,17.56,0,0,0,3.06,4.5,3,3,0,0,0,.5.41,0.21,0.21,0,0,1,.13.17,0.38,0.38,0,0,1-.05.2c-0.13.22-.35,0.55-0.48,0.74a0.26,0.26,0,0,1-.46.07c-0.24-.17-0.44-0.28-0.66-0.41a8.67,8.67,0,0,0-4.11-1c-2.32,0-3.5.79-3.5,2.1,0,1.7,2.29,2.4,5,2.4a14.57,14.57,0,0,0,2.65-.22,6.22,6.22,0,0,1-.24,1.2,0.26,0.26,0,0,1-.24.18c-0.33,0-1.31.09-2.12,0.09-3.37,0-6.21-1.09-6.21-3.56,0-2.14,2-3.21,4.57-3.21a9.14,9.14,0,0,1,3.91.83,16.21,16.21,0,0,1-2.84-4.26c-1.42.24-2.69,0.37-4,.46a15.62,15.62,0,0,1-1.57.05c-0.13,0-.17-0.07-0.22-0.22a5.57,5.57,0,0,1-.2-1,15,15,0,0,0,1.83,0,30.57,30.57,0,0,0,3.61-.42C568.07,300,567.87,299.51,567.54,298.64Zm6.6-1.55a0.18,0.18,0,0,1,.2,0,9,9,0,0,1,2,2.34,0.15,0.15,0,0,1-.06.2l-0.55.41a0.15,0.15,0,0,1-.24-0.05,7.86,7.86,0,0,0-2-2.47Zm1.57-1.07a0.14,0.14,0,0,1,.2,0,9.53,9.53,0,0,1,2,2.27c0.05,0.09,0,.15-0.07.22l-0.53.41c-0.09.07-.13,0.07-0.2-0.06a9.39,9.39,0,0,0-2-2.41Z"/><path class="cls-1" d="M585.36,299.27a0.25,0.25,0,0,1,.17.2,1.35,1.35,0,0,1-.07.33,6.32,6.32,0,0,0-.15,1.7,29.47,29.47,0,0,0,.26,4.18c0.28,2.18,1.07,3.76,2,3.76s1.44-1.18,2-2.89a2.35,2.35,0,0,0,.61.92,0.41,0.41,0,0,1,.15.46c-0.52,1.49-1.51,2.89-2.75,2.89-1.55,0-2.71-2.14-3.12-5a40.51,40.51,0,0,1-.33-5.14,7.78,7.78,0,0,0-.15-1.77A5.06,5.06,0,0,1,585.36,299.27Zm8.79,1.42a0.22,0.22,0,0,1,.28,0,11.18,11.18,0,0,1,3.59,6.38,0.21,0.21,0,0,1-.13.24,3.65,3.65,0,0,1-.85.42,0.17,0.17,0,0,1-.24-0.15,10.74,10.74,0,0,0-3.47-6.4A7.56,7.56,0,0,1,594.15,300.69Z"/><path class="cls-1" d="M611.61,304.93a35.87,35.87,0,0,1-4.24-.05c-0.15,0-.18-0.06-0.2-0.22a7.75,7.75,0,0,1-.06-0.94,27.67,27.67,0,0,0,4.46.13c0-.9,0-1.86,0-2.75a35.06,35.06,0,0,1-4.88-.09,0.17,0.17,0,0,1-.17-0.18,6.65,6.65,0,0,1-.07-1,31.38,31.38,0,0,0,5.12.15c0-.76,0-1.27,0-2a4.39,4.39,0,0,0-.17-1.22,7.38,7.38,0,0,1,1.46.24,0.28,0.28,0,0,1,.17.42,1.72,1.72,0,0,0-.22.85c0,0.59,0,1-.06,1.62a42.86,42.86,0,0,0,4.5-.61c0.15,0,.18,0,0.2.13a6.86,6.86,0,0,1,.06.81c0,0.15-.07.18-0.13,0.18a45.8,45.8,0,0,1-4.63.53c0,0.9,0,1.86,0,2.73a30.77,30.77,0,0,0,4.07-.53c0.13,0,.18,0,0.2.09s0,0.57,0,.88a0.17,0.17,0,0,1-.18.18,33.72,33.72,0,0,1-4.07.5c0,1.14.05,2.1,0.13,3.21a15,15,0,0,1,4.92,2.38,0.24,0.24,0,0,1,.07.31,2.47,2.47,0,0,1-.46.79,0.18,0.18,0,0,1-.28.06,13.57,13.57,0,0,0-4.2-2.34c0,2.06-1.07,2.88-3.3,2.88s-3.26-.83-3.26-2.19c0-1.2,1.25-2.25,3.39-2.25a11.58,11.58,0,0,1,1.94.15C611.67,306.81,611.63,306,611.61,304.93Zm-1.83,3.8c-1.55,0-2.32.5-2.32,1.16s0.72,1.14,2.06,1.14a2.52,2.52,0,0,0,1.88-.57,2.08,2.08,0,0,0,.33-1.49A8.73,8.73,0,0,0,609.79,308.72Z"/><path class="cls-1" d="M641.32,300.58c0,0.17-.05.18-0.24,0.18-2-.06-3.78-0.07-5.86,0,0,1.16,0,2.43,0,3.67a7.81,7.81,0,0,1,.22,1.94,6.1,6.1,0,0,1-3.59,5.7,1,1,0,0,1-.42.17,0.54,0.54,0,0,1-.33-0.15,2.74,2.74,0,0,0-.85-0.52c2.64-1.09,3.85-2.78,4-4.64a2.28,2.28,0,0,1-2,1.05,2.38,2.38,0,0,1-2.43-2.6,2.47,2.47,0,0,1,2.53-2.56,2.32,2.32,0,0,1,1.73.63c0-.9,0-1.73,0-2.6-2.64.15-5.12,0.33-6.88,0.55-0.44.06-.66,0.18-0.81,0.18a0.22,0.22,0,0,1-.22-0.18,6,6,0,0,1-.29-1.18,16.34,16.34,0,0,0,2.32-.11c1.49-.11,3.39-0.24,5.84-0.39,0-.76,0-1.12,0-1.71a4.86,4.86,0,0,0-.18-1.23,9.28,9.28,0,0,1,1.4.2,0.36,0.36,0,0,1,.33.28,0.69,0.69,0,0,1-.13.33,1.08,1.08,0,0,0-.13.5c0,0.41,0,.76,0,1.57,2-.05,3.85-0.05,5.9-0.05,0.17,0,.2,0,0.2.2v0.79Zm-10.41,4.76a1.46,1.46,0,0,0,1.49,1.58,1.62,1.62,0,0,0,1.68-1.62,1.54,1.54,0,0,0-1.64-1.57A1.52,1.52,0,0,0,630.9,305.33Z"/><path class="cls-1" d="M652.07,310.51a2.6,2.6,0,1,1-2.6-2.56A2.59,2.59,0,0,1,652.07,310.51Zm-4.24,0a1.64,1.64,0,1,0,1.64-1.64A1.64,1.64,0,0,0,647.83,310.51Z"/><path class="cls-1" d="M13,211c0,2.34-1.79,3.91-4.53,3.91s-4.55-1.46-4.55-3.83c0-1.62.85-2.58,2.73-3.5A3.74,3.74,0,0,1,4.24,204c0-2,1.68-3.63,4.2-3.63s4.24,1.47,4.24,3.56c0,1.51-.81,2.53-2.47,3.21C12.24,208.07,13,209.17,13,211Zm-5-2.73c-1.31.72-1.94,1.47-1.94,2.65a2.17,2.17,0,0,0,2.34,2.29,2.09,2.09,0,0,0,2.36-2.14c0-1.11-.53-1.73-2.23-2.54Zm0.81-1.82A2.52,2.52,0,0,0,10.51,204a1.92,1.92,0,0,0-2.06-2,1.85,1.85,0,0,0-2,1.92c0,1,.46,1.57,1.92,2.25Z"/><path class="cls-1" d="M25,215.9c0,0.18,0,.2-0.2.2H23.22c-0.18,0-.2,0-0.2-0.2s0-1.36,0-7.06v-3.63c0-3.67,0-4.94,0-5.07s0-.2.2-0.2,0.74,0,2.47,0h9.94c1.73,0,2.34,0,2.47,0s0.2,0,.2.2,0,1.4,0,4.44v4.26c0,5.7,0,6.93,0,7s0,0.2-.2.2H36.51c-0.18,0-.2,0-0.2-0.2V215H25v0.9Zm0-14.17v11.54h11.3V201.72H25Zm9,6.91c0,1.77,0,2.4,0,2.53s0,0.2-.2.2H32.46c-0.2,0-.22,0-0.22-0.2v-0.44H29v0.44c0,0.18,0,.2-0.2.2H27.35c-0.18,0-.2,0-0.2-0.2s0-.76,0-2.53v-2.49c0-1.22,0-1.73,0-1.84s0-.2.2-0.2,0.59,0,2,0h2.53c1.42,0,1.88,0,2,0s0.2,0,.2.2,0,0.63,0,1.75v2.58ZM29,205.78v3.28h3.24v-3.28H29Z"/><path class="cls-1" d="M11.3,139.56h1.75v1.73H11.3v3.19H9.18v-3.19H3.82v-1.62l4.57-9.35H11.3v9.23Zm-2.12-3.1c0-1.49.06-2.89,0.11-4.31H9c-0.46,1.22-1,2.45-1.57,3.69l-1.73,3.72H9.18v-3.1Z"/><path class="cls-1" d="M25,145.74c0,0.18,0,.2-0.2.2H23.22c-0.18,0-.2,0-0.2-0.2s0-1.36,0-7.06V135c0-3.67,0-4.94,0-5.07s0-.2.2-0.2,0.74,0,2.47,0h9.94c1.73,0,2.34,0,2.47,0s0.2,0,.2.2,0,1.4,0,4.44v4.26c0,5.7,0,6.93,0,7s0,0.2-.2.2H36.51c-0.18,0-.2,0-0.2-0.2v-0.88H25v0.9Zm0-14.17V143.1h11.3V131.56H25Zm9,6.91c0,1.77,0,2.4,0,2.53s0,0.2-.2.2H32.46c-0.2,0-.22,0-0.22-0.2v-0.44H29V141c0,0.18,0,.2-0.2.2H27.35c-0.18,0-.2,0-0.2-0.2s0-.76,0-2.53V136c0-1.22,0-1.73,0-1.84s0-.2.2-0.2,0.59,0,2,0h2.53c1.42,0,1.88,0,2,0s0.2,0,.2.2,0,0.63,0,1.75v2.58ZM29,135.62v3.28h3.24v-3.28H29Z"/><path class="cls-1" d="M9.79,74.52h2.64v1.79H4.83V74.52H7.6v-10A10.34,10.34,0,0,1,5,65.75L4.63,63.81a10.39,10.39,0,0,0,3.28-1.66H9.79V74.52Z"/><path class="cls-1" d="M25,77.56c0,0.18,0,.2-0.2.2H23.22c-0.18,0-.2,0-0.2-0.2s0-1.36,0-7.06V66.87c0-3.67,0-4.94,0-5.07s0-.2.2-0.2,0.74,0,2.47,0h9.94c1.73,0,2.34,0,2.47,0s0.2,0,.2.2,0,1.4,0,4.44V70.5c0,5.7,0,6.93,0,7s0,0.2-.2.2H36.51c-0.18,0-.2,0-0.2-0.2V76.66H25v0.9Zm0-14.17V74.93h11.3V63.39H25Zm9,6.91c0,1.77,0,2.4,0,2.53s0,0.2-.2.2H32.46c-0.2,0-.22,0-0.22-0.2V72.38H29v0.44c0,0.18,0,.2-0.2.2H27.35c-0.18,0-.2,0-0.2-0.2s0-.76,0-2.53V67.81c0-1.22,0-1.73,0-1.84s0-.2.2-0.2,0.59,0,2,0h2.53c1.42,0,1.88,0,2,0s0.2,0,.2.2,0,0.63,0,1.75V70.3ZM29,67.44v3.28h3.24V67.44H29Z"/><path class="cls-1" d="M403.54,74.15c0,4.14-3.16,6.91-8,6.91s-8.05-2.57-8.05-6.78c0-2.87,1.5-4.56,4.82-6.19-3.1-1.6-4.24-3.59-4.24-6.36,0-3.58,3-6.42,7.43-6.42s7.5,2.61,7.5,6.29c0,2.67-1.43,4.47-4.37,5.67C402.21,69,403.54,70.93,403.54,74.15Zm-8.77-4.82c-2.31,1.27-3.42,2.61-3.42,4.69a3.84,3.84,0,0,0,4.14,4c2.57,0,4.17-1.43,4.17-3.78,0-2-.95-3.06-3.94-4.5Zm1.43-3.23c2.18-1.14,2.93-2.41,2.93-4.33a3.39,3.39,0,0,0-3.65-3.46,3.27,3.27,0,0,0-3.59,3.39c0,1.7.82,2.77,3.39,4Z"/><path class="cls-1" d="M427.53,68.09c0,9.22-2.8,13-7.89,13s-7.79-3.68-7.79-12.91,2.83-12.84,7.85-12.84S427.53,58.9,427.53,68.09Zm-11.47,0c0,7.33,1,9.71,3.58,9.71s3.68-2.41,3.68-9.71-1-9.58-3.62-9.58S416.05,60.76,416.05,68.12Z"/><path class="cls-1" d="M451.71,68.09c0,9.22-2.8,13-7.89,13S436,77.38,436,68.16s2.84-12.84,7.85-12.84S451.71,58.9,451.71,68.09Zm-11.47,0c0,7.33,1,9.71,3.59,9.71s3.68-2.41,3.68-9.71-1-9.58-3.62-9.58S440.23,60.76,440.23,68.12Z"/><path class="cls-1" d="M475.88,68.09c0,9.22-2.8,13-7.89,13s-7.79-3.68-7.79-12.91,2.84-12.84,7.85-12.84S475.88,58.9,475.88,68.09Zm-11.47,0c0,7.33,1,9.71,3.59,9.71s3.68-2.41,3.68-9.71-1-9.58-3.62-9.58S464.41,60.76,464.41,68.12Z"/><path class="cls-1" d="M520.37,73.27c0,2.84.06,4.53,0.06,5.64a3.08,3.08,0,0,1-1,2.71c-0.78.62-1.86,0.85-5.31,0.85-1,0-1.08,0-1.27-1a9.43,9.43,0,0,0-.85-2.51c1.37,0.13,2.9.16,3.68,0.16,1,0,1.27-.29,1.27-1.11V69.82h-19v6.94c0,3.55.07,5.38,0.07,5.57s0,0.36-.39.36h-2.84c-0.33,0-.36,0-0.36-0.36s0.07-2.22.07-6.39V62c0-4.17-.07-6.23-0.07-6.42,0-.36,0-0.39.36-0.39s1.34,0.07,4.43.07h16.53c3.1,0,4.2-.07,4.4-0.07s0.36,0,.36.39c0,0.2-.06,2.38-0.06,6.55V73.27Zm-14.83-6.62V58.44h-7.66v8.21h7.66Zm3.39-8.21v8.21h8V58.44h-8Z"/><path class="cls-1" d="M387.77,132.25c0.95-3.52,3.75-5.38,7.53-5.38,4.53,0,7.46,2.64,7.46,6.26a5.41,5.41,0,0,1-4.76,5.61V139c3.36,0.72,5.25,3,5.25,6.26,0,4.4-3.19,7.4-8,7.4-4.11,0-6.81-1.66-7.92-5.51l4-1.17c0.55,2.51,1.73,3.52,3.88,3.52,2.35,0,3.81-1.56,3.81-4.2,0-2.84-1.34-4.5-4.82-4.5h-1.89v-3.32h1.73c3.26,0,4.56-1.4,4.56-3.91a3.16,3.16,0,0,0-3.42-3.49c-1.73,0-3.13,1.08-3.46,3.42Z"/><path class="cls-1" d="M427.53,139.65c0,9.22-2.8,13-7.89,13s-7.79-3.68-7.79-12.91,2.83-12.84,7.85-12.84S427.53,130.46,427.53,139.65Zm-11.47,0c0,7.33,1,9.71,3.58,9.71s3.68-2.41,3.68-9.71-1-9.58-3.62-9.58S416.05,132.32,416.05,139.68Z"/><path class="cls-1" d="M441.41,152.16L439,157.25h-2l2.18-5.08h-2.38v-4.4h4.66v4.4Z"/><path class="cls-1" d="M466.34,139.65c0,9.22-2.8,13-7.89,13s-7.79-3.68-7.79-12.91,2.84-12.84,7.85-12.84S466.34,130.46,466.34,139.65Zm-11.47,0c0,7.33,1,9.71,3.59,9.71s3.68-2.41,3.68-9.71-1-9.58-3.62-9.58S454.86,132.32,454.86,139.68Z"/><path class="cls-1" d="M490.52,139.65c0,9.22-2.8,13-7.89,13s-7.79-3.68-7.79-12.91,2.84-12.84,7.86-12.84S490.52,130.46,490.52,139.65Zm-11.47,0c0,7.33,1,9.71,3.58,9.71s3.68-2.41,3.68-9.71-1-9.58-3.62-9.58S479,132.32,479,139.68Z"/><path class="cls-1" d="M514.69,139.65c0,9.22-2.8,13-7.89,13S499,148.94,499,139.71s2.84-12.84,7.86-12.84S514.69,130.46,514.69,139.65Zm-11.47,0c0,7.33,1,9.71,3.58,9.71s3.68-2.41,3.68-9.71-1-9.58-3.62-9.58S503.22,132.32,503.22,139.68Z"/><path class="cls-1" d="M559.18,144.83c0,2.84.06,4.53,0.06,5.64a3.08,3.08,0,0,1-1,2.71c-0.78.62-1.86,0.85-5.31,0.85-1,0-1.08,0-1.27-1a9.42,9.42,0,0,0-.85-2.51c1.37,0.13,2.9.16,3.68,0.16,1,0,1.27-.29,1.27-1.11v-8.15h-19v6.94c0,3.55.07,5.38,0.07,5.57s0,0.36-.39.36h-2.84c-0.33,0-.36,0-0.36-0.36s0.07-2.22.07-6.39V133.55c0-4.17-.07-6.23-0.07-6.42,0-.36,0-0.39.36-0.39s1.34,0.06,4.43.06h16.53c3.1,0,4.2-.06,4.4-0.06s0.36,0,.36.39c0,0.2-.06,2.38-0.06,6.55v11.15Zm-14.83-6.62V130h-7.66v8.21h7.66Zm3.39-8.21v8.21h8V130h-8Z"/><path class="cls-1" d="M402.14,199.05H392.3l-0.2,5c0,0.75-.1,1.63-0.2,2.35a5,5,0,0,1,4.27-2.15c4.11,0,7,3.23,7,8.15,0,5.25-3.26,8.7-8,8.7-3.91,0-6.68-1.76-7.56-5.41l4-1.21c0.46,2.41,1.73,3.45,3.55,3.45,2.35,0,3.81-2,3.81-5.48,0-3.23-1.34-5.05-3.62-5.05a3.61,3.61,0,0,0-3.52,2.8l-3.39-.49L389,195.79h13.17v3.26Z"/><path class="cls-1" d="M412.08,202.24c0.55-4.47,3.58-6.88,7.66-6.88,4.47,0,7.43,2.41,7.43,6.71,0,2.77-1.21,4.86-5,8.41-3.42,3.06-5.05,4.89-6.06,6.91h11.18v3.26H411.85v-2.9a31.45,31.45,0,0,1,7.1-9.22c3.26-3.13,4-4.43,4-6.49s-1.27-3.45-3.26-3.45-3.33,1.53-3.52,4.5Z"/><path class="cls-1" d="M441.41,220.66L439,225.74h-2l2.18-5.08h-2.38v-4.4h4.66v4.4Z"/><path class="cls-1" d="M466.34,208.14c0,9.22-2.8,13-7.89,13s-7.79-3.68-7.79-12.91,2.84-12.84,7.85-12.84S466.34,199,466.34,208.14Zm-11.47,0c0,7.33,1,9.71,3.59,9.71s3.68-2.41,3.68-9.71-1-9.58-3.62-9.58S454.86,200.81,454.86,208.18Z"/><path class="cls-1" d="M490.52,208.14c0,9.22-2.8,13-7.89,13s-7.79-3.68-7.79-12.91,2.84-12.84,7.86-12.84S490.52,199,490.52,208.14Zm-11.47,0c0,7.33,1,9.71,3.58,9.71s3.68-2.41,3.68-9.71-1-9.58-3.62-9.58S479,200.81,479,208.18Z"/><path class="cls-1" d="M514.69,208.14c0,9.22-2.8,13-7.89,13S499,217.43,499,208.21s2.84-12.84,7.86-12.84S514.69,199,514.69,208.14Zm-11.47,0c0,7.33,1,9.71,3.58,9.71s3.68-2.41,3.68-9.71-1-9.58-3.62-9.58S503.22,200.81,503.22,208.18Z"/><path class="cls-1" d="M559.18,213.33c0,2.84.06,4.53,0.06,5.64a3.08,3.08,0,0,1-1,2.71c-0.78.62-1.86,0.85-5.31,0.85-1,0-1.08,0-1.27-1a9.42,9.42,0,0,0-.85-2.51c1.37,0.13,2.9.16,3.68,0.16,1,0,1.27-.29,1.27-1.11v-8.15h-19v6.94c0,3.55.07,5.38,0.07,5.57s0,0.36-.39.36h-2.84c-0.33,0-.36,0-0.36-0.36s0.07-2.22.07-6.39V202c0-4.17-.07-6.23-0.07-6.42,0-.36,0-0.39.36-0.39s1.34,0.06,4.43.06h16.53c3.1,0,4.2-.06,4.4-0.06s0.36,0,.36.39c0,0.2-.06,2.38-0.06,6.55v11.15Zm-14.83-6.62V198.5h-7.66v8.21h7.66Zm3.39-8.21v8.21h8V198.5h-8Z"/><path class="cls-1" d="M7.59,18.61c-2.07,0-2.76,0-2.9,0s-0.23,0-.23-0.28V16.94c0-.23,0-0.25.23-0.25s0.84,0,2.9,0H9.21V10H8.65c-2.16,0-2.92,0-3.06,0s-0.26,0-.26-0.26V8.31c0-.23,0-0.26.26-0.26s0.91,0,3.06,0H9.21a15.21,15.21,0,0,0-.14-2.34c0.84,0,1.56.07,2.34,0.14a0.29,0.29,0,0,1,.3.23,1.55,1.55,0,0,1-.12.44,5.48,5.48,0,0,0-.12,1.53h6.45a12.91,12.91,0,0,0-.14-2.34c0.81,0,1.55.07,2.34,0.16,0.21,0,.33.09,0.33,0.21a1.19,1.19,0,0,1-.14.46,5.13,5.13,0,0,0-.12,1.51h0.72c2.18,0,2.92,0,3.09,0s0.26,0,.26.26V9.79c0,0.23,0,.26-0.26.26s-0.91,0-3.09,0H20.21v6.73H22c2.07,0,2.76,0,2.9,0s0.26,0,.26.25v1.44c0,0.26,0,.28-0.26.28s-0.84,0-2.9,0H20.35a12,12,0,0,0,5.48,2.25,6.26,6.26,0,0,0-.88,1.46c-0.19.42-.26,0.56-0.46,0.56a1.78,1.78,0,0,1-.53-0.14,15.44,15.44,0,0,1-3.48-1.6,0.35,0.35,0,0,1,0,.16V22.7c0,0.23,0,.26-0.26.26s-0.86,0-2.92,0H15.85v1.53h4.83c2.23,0,3,0,3.13,0s0.26,0,.26.26v1.49c0,0.23,0,.26-0.26.26s-0.9,0-3.13,0H8.91c-2.2,0-3,0-3.11,0s-0.26,0-.26-0.26V24.65c0-.23,0-0.26.26-0.26s0.91,0,3.11,0H13.6V22.91H12.3c-2.09,0-2.79,0-2.92,0s-0.26,0-.26-0.26V21.12a17.54,17.54,0,0,1-3.3,1.69,1.49,1.49,0,0,1-.56.16,0.63,0.63,0,0,1-.46-0.49,4.86,4.86,0,0,0-.93-1.35,15.53,15.53,0,0,0,5.38-2.53H7.59Zm1.79,2.44c0.14,0,.84,0,2.92,0h1.3a12.75,12.75,0,0,0-.14-1.81c0.86,0,1.56.07,2.32,0.14,0.19,0,.28.09,0.28,0.21A1.11,1.11,0,0,1,16,20a3.16,3.16,0,0,0-.12,1.11h1.46c2.07,0,2.78,0,2.92,0h0.14a13,13,0,0,1-2.81-2.44h-5.5a14.48,14.48,0,0,1-2.83,2.44H9.37Zm8.56-9.86V10H11.48v1.18h6.45Zm0,2.76V12.77H11.48v1.18h6.45Zm0,2.79V15.53H11.48v1.21h6.45Z"/><path class="cls-1" d="M35.07,12.63c-2.11,0-2.83,0-3,0s-0.26,0-.26-0.26V10.56c0-.23,0-0.25.26-0.25s0.86,0,3,0h5.41V8.8a18.69,18.69,0,0,0-.16-3c0.84,0,1.74.07,2.55,0.16a0.33,0.33,0,0,1,.35.23,2.54,2.54,0,0,1-.14.6A9,9,0,0,0,43,8.73v1.63h5.78c2.11,0,2.85,0,3,0s0.26,0,.26.25v1.86c0,0.23,0,.26-0.26.26s-0.88,0-3,0h-4.8a21,21,0,0,0,8.84,8.29,7,7,0,0,0-1.14,1.67,0.76,0.76,0,0,1-.44.56,1.19,1.19,0,0,1-.49-0.26,22.13,22.13,0,0,1-7.84-8.49c0,1.93,0,4.2.07,6.27h1.21c2,0,2.72,0,2.85,0s0.28,0,.28.26v1.76c0,0.23,0,.25-0.28.25s-0.81,0-2.85,0H43c0,2,.07,3.48.07,3.88,0,0.21,0,.23-0.26.23H40.64c-0.23,0-.25,0-0.25-0.23,0-.39,0-1.9.07-3.88h-1c-2,0-2.72,0-2.85,0s-0.26,0-.26-0.25V20.87c0-.23,0-0.26.26-0.26s0.81,0,2.85,0h1c0-2,.07-4.11.07-6a23,23,0,0,1-7.31,8.24,1.14,1.14,0,0,1-.53.28,0.69,0.69,0,0,1-.44-0.51,5.16,5.16,0,0,0-1.21-1.55,21.69,21.69,0,0,0,8.47-8.47H35.07Z"/><path class="cls-1" d="M74.17,10.44a4.27,4.27,0,0,0,1.93-.21,0.69,0.69,0,0,1,.33-0.12,0.57,0.57,0,0,1,.39.19,10.71,10.71,0,0,1,1.67,1.86,1,1,0,0,1,.19.51,0.58,0.58,0,0,1-.3.49,6.92,6.92,0,0,0-1.11.88A82.89,82.89,0,0,1,71,20.26a24.76,24.76,0,0,1,2,2.32,0.53,0.53,0,0,1,.16.35,0.56,0.56,0,0,1-.21.37,17,17,0,0,1-1.51,1.37,0.62,0.62,0,0,1-.3.12,0.37,0.37,0,0,1-.28-0.21,34.81,34.81,0,0,0-7.45-7.22c0.46-.44,1.25-1.18,1.67-1.56a0.49,0.49,0,0,1,.26-0.12,0.7,0.7,0,0,1,.33.16,36.24,36.24,0,0,1,3.3,2.6A52,52,0,0,0,74.38,13l-9.77,0c-1.35,0-3.06,0-4.32.16a0.38,0.38,0,0,1-.42-0.42,21.39,21.39,0,0,1-.28-2.48c1.58,0.16,3.46.16,5.06,0.16h9.52Z"/><path class="cls-1" d="M89.31,8.87a0.43,0.43,0,0,1,.33-0.19,0.62,0.62,0,0,1,.3.12,24.2,24.2,0,0,1,4.43,3.3,0.54,0.54,0,0,1,.21.33,0.5,0.5,0,0,1-.14.3c-0.35.46-1.11,1.39-1.44,1.74a0.45,0.45,0,0,1-.28.19,0.49,0.49,0,0,1-.3-0.19,24.57,24.57,0,0,0-4.73-3.78C88.19,10.05,88.87,9.33,89.31,8.87Zm2,12.23A34.43,34.43,0,0,0,98,16.78a34.88,34.88,0,0,0,6.36-6.31,10.35,10.35,0,0,0,.65,2.72,1.13,1.13,0,0,1,.12.44,1.14,1.14,0,0,1-.37.7,37.93,37.93,0,0,1-5.34,4.92,49.9,49.9,0,0,1-7,4.55,8,8,0,0,0-1.56,1.07,0.64,0.64,0,0,1-.42.23,0.6,0.6,0,0,1-.39-0.26,16.11,16.11,0,0,1-1.86-2.58A14,14,0,0,0,91.33,21.1Z"/><path class="cls-1" d="M116.12,9.4a0.43,0.43,0,0,1,.63.16,18.64,18.64,0,0,1,2.6,4.39,0.89,0.89,0,0,1,.09.3,0.44,0.44,0,0,1-.28.35,14.25,14.25,0,0,1-1.79.91c-0.35.14-.49,0-0.6-0.35A18.47,18.47,0,0,0,114,10.47,18.11,18.11,0,0,1,116.12,9.4Zm16.25,0.35a0.53,0.53,0,0,1,.26.46,0.57,0.57,0,0,1-.19.39,4.62,4.62,0,0,0-.9,1.53A35.84,35.84,0,0,1,127,20a25,25,0,0,1-6.13,5.76,1,1,0,0,1-.53.21,0.68,0.68,0,0,1-.39-0.16,7.11,7.11,0,0,0-2.23-1.09,26.64,26.64,0,0,0,6.89-6.13,27.89,27.89,0,0,0,4-7.19,10.47,10.47,0,0,0,.67-3A16.65,16.65,0,0,1,132.36,9.75ZM122.17,8a0.43,0.43,0,0,1,.6.19,19.3,19.3,0,0,1,2.27,4.29,0.45,0.45,0,0,1-.23.65,15.47,15.47,0,0,1-1.76.84c-0.37.14-.51,0.09-0.63-0.28A18.63,18.63,0,0,0,120,9C120.73,8.63,121.48,8.26,122.17,8Z"/><path class="cls-1" d="M145.57,18a18.57,18.57,0,0,0-3.41.28,0.51,0.51,0,0,1-.53-0.49,25.13,25.13,0,0,1-.35-2.81,29.83,29.83,0,0,0,5,.28h7.47c1.76,0,3.55,0,5.34-.07,0.35,0,.42,0,0.42.32a17.12,17.12,0,0,1,0,2.18c0,0.28-.09.37-0.42,0.35-1.74,0-3.46,0-5.18,0h-8.35Z"/><path class="cls-1" d="M182.7,10.44a4.27,4.27,0,0,0,1.93-.21,0.69,0.69,0,0,1,.33-0.12,0.57,0.57,0,0,1,.39.19A10.71,10.71,0,0,1,187,12.16a1,1,0,0,1,.19.51,0.58,0.58,0,0,1-.3.49,6.92,6.92,0,0,0-1.11.88,82.89,82.89,0,0,1-6.24,6.22,24.76,24.76,0,0,1,2,2.32,0.53,0.53,0,0,1,.16.35,0.56,0.56,0,0,1-.21.37A17,17,0,0,1,180,24.67a0.62,0.62,0,0,1-.3.12,0.37,0.37,0,0,1-.28-0.21A34.81,34.81,0,0,0,172,17.36c0.46-.44,1.25-1.18,1.67-1.56a0.49,0.49,0,0,1,.26-0.12,0.7,0.7,0,0,1,.33.16,36.24,36.24,0,0,1,3.3,2.6A52.08,52.08,0,0,0,182.91,13l-9.77,0c-1.35,0-3.06,0-4.32.16a0.38,0.38,0,0,1-.42-0.42,21.39,21.39,0,0,1-.28-2.48c1.58,0.16,3.46.16,5.06,0.16h9.52Z"/><path class="cls-1" d="M197.84,8.87a0.44,0.44,0,0,1,.33-0.19,0.62,0.62,0,0,1,.3.12,24.2,24.2,0,0,1,4.43,3.3,0.54,0.54,0,0,1,.21.33,0.5,0.5,0,0,1-.14.3c-0.35.46-1.11,1.39-1.44,1.74a0.45,0.45,0,0,1-.28.19,0.49,0.49,0,0,1-.3-0.19,24.57,24.57,0,0,0-4.73-3.78C196.72,10.05,197.4,9.33,197.84,8.87Zm2,12.23a34.43,34.43,0,0,0,6.68-4.32,34.88,34.88,0,0,0,6.36-6.31,10.35,10.35,0,0,0,.65,2.72,1.13,1.13,0,0,1,.12.44,1.14,1.14,0,0,1-.37.7A37.93,37.93,0,0,1,208,19.24a49.9,49.9,0,0,1-7,4.55,8,8,0,0,0-1.56,1.07,0.64,0.64,0,0,1-.42.23,0.6,0.6,0,0,1-.39-0.26,16.11,16.11,0,0,1-1.86-2.58A14,14,0,0,0,199.86,21.1Z"/><path class="cls-1" d="M231.07,13.21a32.74,32.74,0,0,1,7.38,3.16,0.43,0.43,0,0,1,.26.6,13.65,13.65,0,0,1-1,2,0.39,0.39,0,0,1-.3.26,0.35,0.35,0,0,1-.26-0.12,25.72,25.72,0,0,0-6.1-3v5.13c0,1.51,0,2.88.09,4.55,0,0.28-.09.35-0.42,0.35a15.35,15.35,0,0,1-2.07,0c-0.33,0-.44-0.07-0.44-0.35,0.07-1.72.09-3.09,0.09-4.57V9.84a17.74,17.74,0,0,0-.23-3.44,17.16,17.16,0,0,1,2.9.37,0.43,0.43,0,0,1,.44.39,1.23,1.23,0,0,1-.19.53,6,6,0,0,0-.16,2.18v3.32Z"/><path class="cls-1" d="M255.23,21.07a38.19,38.19,0,0,0,5.92-2.92,28.68,28.68,0,0,0,6.15-4.73,10.45,10.45,0,0,0,.37,2.69,0.73,0.73,0,0,1-.23.93,37.61,37.61,0,0,1-5.8,4A51.93,51.93,0,0,1,256,23.91a5.35,5.35,0,0,0-1.3.74,0.67,0.67,0,0,1-.42.19,0.62,0.62,0,0,1-.39-0.19,7.16,7.16,0,0,1-1.42-1.58,0.57,0.57,0,0,1-.14-0.37,1,1,0,0,1,.12-0.39A4.58,4.58,0,0,0,252.5,21l0-8.73a22,22,0,0,0-.25-4,23.65,23.65,0,0,1,3,.51,0.45,0.45,0,0,1,.37.44,1.78,1.78,0,0,1-.12.49,9.54,9.54,0,0,0-.26,2.88Z"/><path class="cls-1" d="M281.23,18a18.57,18.57,0,0,0-3.41.28,0.51,0.51,0,0,1-.53-0.49,25.13,25.13,0,0,1-.35-2.81,29.83,29.83,0,0,0,5,.28h7.47c1.76,0,3.55,0,5.34-.07,0.35,0,.42,0,0.42.32a17.12,17.12,0,0,1,0,2.18c0,0.28-.09.37-0.42,0.35-1.74,0-3.46,0-5.18,0h-8.35Z"/><path class="cls-1" d="M308.5,22.81c-1.51,0-3,0-4.18.12-0.23,0-.3-0.14-0.35-0.44-0.09-.53-0.14-1.32-0.21-2.55,1.67,0.12,3.34.14,4.8,0.14H317c2.58,0,4.15-.07,5.22-0.12,0.3,0,.37.12,0.37,0.42a14.51,14.51,0,0,1,0,2c0,0.35,0,.49-0.35.49-1.11,0-3.5-.07-5.08-0.07H308.5ZM310.64,13c-1.46,0-2.48,0-3.55.09-0.23,0-.3-0.14-0.33-0.49a15.74,15.74,0,0,1-.14-2.46c1.46,0.12,2.55.14,3.95,0.14h4.6c1.79,0,3.18-.07,4.18-0.12,0.19,0,.26.12,0.26,0.39a15.52,15.52,0,0,1,0,2.07c0,0.32-.07.44-0.3,0.44-1.09,0-2.58-.07-4.06-0.07h-4.6Z"/><path class="cls-1" d="M333.5,8.87a0.43,0.43,0,0,1,.33-0.19,0.62,0.62,0,0,1,.3.12,24.22,24.22,0,0,1,4.43,3.3,0.54,0.54,0,0,1,.21.33,0.5,0.5,0,0,1-.14.3c-0.35.46-1.11,1.39-1.44,1.74a0.45,0.45,0,0,1-.28.19,0.48,0.48,0,0,1-.3-0.19,24.57,24.57,0,0,0-4.74-3.78C332.38,10.05,333.06,9.33,333.5,8.87Zm2,12.23a34.41,34.41,0,0,0,6.68-4.32,34.89,34.89,0,0,0,6.36-6.31,10.33,10.33,0,0,0,.65,2.72,1.12,1.12,0,0,1,.12.44,1.14,1.14,0,0,1-.37.7,38,38,0,0,1-5.34,4.92,49.93,49.93,0,0,1-7,4.55,8,8,0,0,0-1.56,1.07,0.64,0.64,0,0,1-.42.23,0.6,0.6,0,0,1-.39-0.26,16.14,16.14,0,0,1-1.86-2.58A14,14,0,0,0,335.52,21.1Z"/><path class="cls-1" d="M371.24,10.42a2.15,2.15,0,0,0,1.16-.28,0.47,0.47,0,0,1,.3-0.09,0.67,0.67,0,0,1,.37.14,10.65,10.65,0,0,1,1.58,1.25,0.75,0.75,0,0,1,.3.53,0.67,0.67,0,0,1-.28.49,2.79,2.79,0,0,0-.77,1,32,32,0,0,1-4.6,7.17,29.5,29.5,0,0,1-7.05,5.78,0.63,0.63,0,0,1-.37.12,0.82,0.82,0,0,1-.53-0.26,6.1,6.1,0,0,0-2.21-1.07,26.75,26.75,0,0,0,7.73-5.92,23.66,23.66,0,0,0,4.29-6.59l-5.62.16a32.37,32.37,0,0,1-4.39,4.76,0.72,0.72,0,0,1-.49.26,0.56,0.56,0,0,1-.35-0.14,6.28,6.28,0,0,0-2.23-1,27.52,27.52,0,0,0,6.24-6.89,9.91,9.91,0,0,0,1.37-3.13,11.44,11.44,0,0,1,2.71,1.23,0.48,0.48,0,0,1,.23.39,0.46,0.46,0,0,1-.26.39,2.53,2.53,0,0,0-.58.63l-0.77,1.16Zm2.88-3.13a0.24,0.24,0,0,1,.35,0,10.67,10.67,0,0,1,2.21,2.48,0.23,0.23,0,0,1-.07.37l-1,.72a0.24,0.24,0,0,1-.39-0.07,11.51,11.51,0,0,0-2.34-2.69Zm2.07-1.51a0.24,0.24,0,0,1,.35,0,9.68,9.68,0,0,1,2.21,2.39,0.27,0.27,0,0,1-.07.42l-0.93.72a0.24,0.24,0,0,1-.39-0.07A11,11,0,0,0,375,6.62Z"/><line class="cls-2" x1="81.44" y1="69.29" x2="344.86" y2="69.29"/><line class="cls-2" x1="81.44" y1="138.49" x2="344.86" y2="138.49"/><line class="cls-2" x1="81.44" y1="199.31" x2="344.86" y2="199.31"/></svg>