<svg id="レイヤー_3" data-name="レイヤー 3" xmlns="http://www.w3.org/2000/svg" viewBox="0 0 113.59 166.58"><defs><style>.cls-1{fill:#d3dc00;}.cls-2{fill:#f7f7f7;}.cls-3{fill:#f4f4f4;}</style></defs><title>toplogosm</title><path class="cls-1" d="M46.53,93.38c0,13.44-10.48,24.44-23.28,24.44H3.31V0H23.25C36,0,46.53,11,46.53,24.44V93.38ZM37.89,24.44c0-8.55-6.49-15.36-14.64-15.36H12v99.65h11.3c8.15,0,14.64-6.81,14.64-15.36"/><path class="cls-1" d="M86.24,57.48h21.47v60l-7.26-1.52v-3.88a21.31,21.31,0,0,1-14.21,5.4,21.66,21.66,0,0,1-21.48-21.9V22.26a21.48,21.48,0,1,1,43,0V35.74l-8.59,1V22.26a12.89,12.89,0,1,0-25.77,0v73.3a12.89,12.89,0,1,0,25.77,0V66.24H86.24V57.48Z"/><rect class="cls-1" y="133.57" width="111.29" height="11.1"/><path class="cls-2" d="M14.93,155.78v7.47H13.62v-7.47h-2v-1.23h5.31v1.23h-2Z"/><path class="cls-2" d="M25.17,161.13H21.44l-1,2.11H19.06L23.36,154l4.15,9.25H26.08Zm-0.54-1.23-1.29-3-1.35,3h2.64Z"/><path class="cls-2" d="M31.87,159.71v3.53H30.56v-8.7H32a6.71,6.71,0,0,1,1.65.15,2.22,2.22,0,0,1,1,.57,2.48,2.48,0,0,1,.75,1.85,2.39,2.39,0,0,1-.8,1.89,3.17,3.17,0,0,1-2.16.7H31.87Zm0-1.22h0.49q1.81,0,1.81-1.39t-1.87-1.35H31.87v2.74Z"/><path class="cls-2" d="M46.66,155.78v7.47H45.34v-7.47h-2v-1.23h5.31v1.23h-2Z"/><path class="cls-2" d="M51.34,158.85a4.26,4.26,0,0,1,1.35-3.16,4.43,4.43,0,0,1,3.22-1.32,4.55,4.55,0,0,1,4.53,4.53,4.28,4.28,0,0,1-1.34,3.18,4.6,4.6,0,0,1-6.28.15A4.28,4.28,0,0,1,51.34,158.85Zm1.32,0a3.14,3.14,0,0,0,1,2.37,3.21,3.21,0,0,0,4.54,0,3.38,3.38,0,0,0,0-4.67,3.24,3.24,0,0,0-4.58,0A3.14,3.14,0,0,0,52.66,158.87Z"/><path class="cls-2" d="M74.36,155.78H70.87v2.09h3.39v1.23H70.87V162h3.49v1.23h-4.8v-8.7h4.8v1.23Z"/><path class="cls-2" d="M78,163.24v-9.29l6.35,6.64v-6h1.31v9.23l-6.35-6.62v6.09H78Z"/><path class="cls-2" d="M92.13,155.78v7.47H90.82v-7.47h-2v-1.23h5.31v1.23h-2Z"/><path class="cls-2" d="M102.05,155.78H98.56v2.09h3.39v1.23H98.56V162h3.49v1.23h-4.8v-8.7h4.8v1.23Z"/><path class="cls-2" d="M108.68,159.54l2.69,3.71h-1.61l-2.49-3.56H107v3.56h-1.31v-8.7h1.54a3.85,3.85,0,0,1,2.49.65,2.38,2.38,0,0,1,.85,1.9,2.47,2.47,0,0,1-.53,1.59A2.36,2.36,0,0,1,108.68,159.54Zm-1.63-1h0.42q1.87,0,1.87-1.43t-1.81-1.34H107v2.76Z"/><path class="cls-3" d="M6,157.27l-2-.39v-1.27a1.09,1.09,0,0,0-2.17,0v2.7A1.82,1.82,0,0,0,1.17,158,0.94,0.94,0,0,0,0,159a1.17,1.17,0,0,0,.37.82c1.44,1.44,2.06,1.85,2.19,3.45H6.17v-0.63c0-1.86,1.08-2.18,1.08-3.63A1.53,1.53,0,0,0,6,157.27Zm0.13,2.9a4.51,4.51,0,0,0-.68,2.32H3.23C3,161.11,1.85,160.21.91,159.26c-0.25-.25-0.14-0.5.16-0.5a2.86,2.86,0,0,1,1.49,1.16v-4.31a0.36,0.36,0,0,1,.72,0v2.51a0.21,0.21,0,1,0,.41,0v-0.21a0.31,0.31,0,0,1,.61,0v0.46a0.21,0.21,0,0,0,.41,0v-0.3a0.31,0.31,0,0,1,.61,0v0.55a0.21,0.21,0,1,0,.41,0V158.3a0.26,0.26,0,0,1,.37-0.23,0.85,0.85,0,0,1,.42.9A2.29,2.29,0,0,1,6.13,160.17Z"/></svg>