<svg id="レイヤー_3" data-name="レイヤー 3" xmlns="http://www.w3.org/2000/svg" viewBox="0 0 114.5 168.78"><defs><style>.cls-1{fill:#d3dc00;}</style></defs><title>toplogo</title><path class="cls-1" d="M46.53,93.38c0,13.44-10.48,24.44-23.28,24.44H3.31V0H23.25C36,0,46.53,11,46.53,24.44V93.38ZM37.89,24.44c0-8.55-6.49-15.36-14.64-15.36H12v99.65h11.3c8.15,0,14.64-6.81,14.64-15.36"/><path class="cls-1" d="M86.24,57.48h21.47v60l-7.26-1.52v-3.88a21.31,21.31,0,0,1-14.21,5.4,21.66,21.66,0,0,1-21.48-21.9V22.26a21.48,21.48,0,1,1,43,0V35.74l-8.59,1V22.26a12.89,12.89,0,1,0-25.77,0v73.3a12.89,12.89,0,1,0,25.77,0V66.24H86.24V57.48Z"/><rect class="cls-1" y="133.57" width="111.29" height="11.1"/><path d="M0.75,153.78H3.1a2.72,2.72,0,0,1,2.07.76,3,3,0,0,1,.72,2.11v5.19a3.1,3.1,0,0,1-.76,2.3,3,3,0,0,1-2.17.74H0.75v-11.1Zm1.59,9.6H3.07A1.18,1.18,0,0,0,4,163,1.62,1.62,0,0,0,4.3,162v-5.35a1.68,1.68,0,0,0-.27-1,1.13,1.13,0,0,0-1-.36H2.34v8.11Z"/><path d="M10,153.78h4.74v1.5H11.61v3.26h2.74V160H11.61v3.26h3.15v1.59H10v-11.1Z"/><path d="M18.42,153.78h4.74v1.5H20v3.37h2.74v1.5H20v4.74H18.42v-11.1Z"/><path d="M26.87,153.78h1.59v11.1H26.87v-11.1Z"/><path d="M32.58,153.78h1.53l2.4,6.69h0v-6.69h1.59v11.1h-1.5l-2.43-6.67h0v6.67H32.58v-11.1Z"/><path d="M42.24,153.78h1.59v11.1H42.24v-11.1Z"/><path d="M49.05,155.28H47.21v-1.5h5.27v1.5H50.64v9.6H49.05v-9.6Z"/><path d="M55.86,153.78h1.59v11.1H55.86v-11.1Z"/><path d="M61.54,156.4a2.83,2.83,0,0,1,.23-1.18,2.47,2.47,0,0,1,.62-0.85,2.66,2.66,0,0,1,.86-0.51,2.77,2.77,0,0,1,1.92,0,2.66,2.66,0,0,1,.86.51,2.48,2.48,0,0,1,.62.85,2.84,2.84,0,0,1,.23,1.18v5.86a2.82,2.82,0,0,1-.23,1.19,2.5,2.5,0,0,1-.62.84,2.65,2.65,0,0,1-.86.51,2.76,2.76,0,0,1-1.92,0,2.65,2.65,0,0,1-.86-0.51,2.49,2.49,0,0,1-.62-0.84,2.81,2.81,0,0,1-.23-1.19V156.4Zm1.59,5.86a1.06,1.06,0,0,0,.32.85,1.19,1.19,0,0,0,1.51,0,1.06,1.06,0,0,0,.32-0.85V156.4a1.06,1.06,0,0,0-.32-0.85,1.18,1.18,0,0,0-1.51,0,1.06,1.06,0,0,0-.32.85v5.86Z"/><path d="M70.84,153.78h1.53l2.4,6.69h0v-6.69h1.59v11.1H74.9l-2.43-6.67h0v6.67H70.84v-11.1Z"/><path d="M85.9,156.4a2.83,2.83,0,0,1,.23-1.18,2.47,2.47,0,0,1,.62-0.85,2.66,2.66,0,0,1,.86-0.51,2.77,2.77,0,0,1,1.92,0,2.66,2.66,0,0,1,.86.51,2.48,2.48,0,0,1,.62.85,2.84,2.84,0,0,1,.23,1.18V157H89.64V156.4a1.06,1.06,0,0,0-.32-0.85,1.18,1.18,0,0,0-1.51,0,1.06,1.06,0,0,0-.32.85v5.86a1.06,1.06,0,0,0,.32.85,1.19,1.19,0,0,0,1.51,0,1.06,1.06,0,0,0,.32-0.85v-2.09H88.38v-1.4h2.85v3.49a2.82,2.82,0,0,1-.23,1.19,2.5,2.5,0,0,1-.62.84,2.65,2.65,0,0,1-.86.51,2.76,2.76,0,0,1-1.92,0,2.65,2.65,0,0,1-.86-0.51,2.49,2.49,0,0,1-.62-0.84,2.81,2.81,0,0,1-.23-1.19V156.4Z"/><path d="M96.75,160.19l-2.18-6.41h1.68l1.28,4.41h0l1.28-4.41h1.68l-2.18,6.41v4.69H96.75v-4.69Z"/><path d="M104,153.78h1.53l2,5.88h0l2-5.88h1.54v11.1h-1.59v-6.75h0l-1.57,4.77h-0.79l-1.56-4.77h0v6.75H104v-11.1Z"/></svg>