<svg id="レイヤー_1" data-name="レイヤー 1" xmlns="http://www.w3.org/2000/svg" viewBox="0 0 45.11 58.65"><defs><style>.cls-1{fill:#d4dd00;}</style></defs><title>ロゴ</title><path class="cls-1" d="M18.86,37.85a9.71,9.71,0,0,1-9.44,9.91H1.34V0H9.43a9.71,9.71,0,0,1,9.44,9.91V37.85ZM15.36,9.91A6.05,6.05,0,0,0,9.43,3.68H4.85v40.4H9.43a6.05,6.05,0,0,0,5.93-6.23"/><path class="cls-1" d="M35,23.3h8.7V47.62L40.72,47V45.43A8.64,8.64,0,0,1,35,47.62a8.78,8.78,0,0,1-8.71-8.88V9A8.71,8.71,0,1,1,43.67,9v5.46l-3.48.41V9A5.22,5.22,0,1,0,29.74,9V38.74a5.22,5.22,0,1,0,10.45,0V26.85H35V23.3Z"/><rect class="cls-1" y="54.15" width="45.11" height="4.5"/><line class="cls-1" x1="6.09" y1="47.76" x2="6.09" y2="54.15"/><line class="cls-1" x1="18.86" y1="21.66" x2="11.36" y2="21.64"/></svg>