<svg id="レイヤー_1" data-name="レイヤー 1" xmlns="http://www.w3.org/2000/svg" xmlns:xlink="http://www.w3.org/1999/xlink" viewBox="0 0 554.53 35.24"><defs><style>.cls-1{fill:#000300;}.cls-2{opacity:0.8;}.cls-3{clip-path:url(#clip-path);}.cls-4{fill:#eeeeef;}</style><clipPath id="clip-path"><rect class="cls-1" x="0.2" y="1.79" width="550.55" height="31.14"/></clipPath></defs><title>prices</title><g class="cls-2"><rect class="cls-1" x="0.2" y="1.79" width="550.55" height="31.14"/><g class="cls-3"><rect class="cls-1" x="0.2" y="1.79" width="550.56" height="31.14"/></g></g><path class="cls-4" d="M233.52,12.82c2.29,0,3.33.93,3.33,2.54a2.41,2.41,0,0,1-2.05,2.45l2.31,4.71h-1.26L233.72,18h-2.34v4.53h-1.12V12.82h3.26Zm-2.14,4.27h2c1.62,0,2.3-.63,2.3-1.72s-0.6-1.63-2.22-1.63h-2.08v3.35Z"/><path class="cls-4" d="M239.54,19.3c0,1.64.78,2.57,2,2.57a1.61,1.61,0,0,0,1.71-1.37l1,0.33a2.6,2.6,0,0,1-2.71,1.84c-1.81,0-3-1.32-3-3.5s1.24-3.54,2.91-3.54,2.84,1.28,2.84,3.43V19.3h-4.71Zm3.67-.76c-0.11-1.35-.76-2.09-1.79-2.09a2,2,0,0,0-1.85,2.09h3.64Z"/><path class="cls-4" d="M249.73,17.58a1.44,1.44,0,0,0-1.46-1.16,1.13,1.13,0,0,0-1.37,1c0,0.64.29,0.91,1.38,1.17l0.54,0.13c1.54,0.37,2.1.88,2.1,2s-0.84,2-2.59,2A2.57,2.57,0,0,1,245.67,21l1-.37a1.63,1.63,0,0,0,1.66,1.21c1.1,0,1.53-.51,1.53-1.1s-0.25-.93-1.47-1.25l-0.54-.12c-1.51-.38-2-0.91-2-1.95s0.79-1.83,2.38-1.83a2.39,2.39,0,0,1,2.47,1.62Z"/><path class="cls-4" d="M253.51,19.3c0,1.64.78,2.57,2,2.57a1.61,1.61,0,0,0,1.71-1.37l1,0.33a2.6,2.6,0,0,1-2.71,1.84c-1.81,0-3-1.32-3-3.5s1.24-3.54,2.91-3.54,2.84,1.28,2.84,3.43V19.3h-4.71Zm3.67-.76c-0.11-1.35-.76-2.09-1.79-2.09a2,2,0,0,0-1.85,2.09h3.64Z"/><path class="cls-4" d="M263.32,16.68c-0.83,0-1.64.66-2.06,2v3.85h-1.07V15.79h1V17.5a2.42,2.42,0,0,1,2.18-1.85Z"/><path class="cls-4" d="M267.68,22.51h-1.33l-2.16-6.72h1.16l1,3.68c0.21,0.76.37,1.41,0.57,2.17h0.2c0.22-.76.37-1.43,0.59-2.21l1-3.64h1.08Z"/><path class="cls-4" d="M272.06,19.3c0,1.64.78,2.57,2,2.57a1.61,1.61,0,0,0,1.71-1.37l1,0.33A2.6,2.6,0,0,1,274,22.67c-1.81,0-3-1.32-3-3.5s1.24-3.54,2.91-3.54,2.84,1.28,2.84,3.43V19.3h-4.71Zm3.67-.76c-0.11-1.35-.76-2.09-1.79-2.09a2,2,0,0,0-1.85,2.09h3.64Z"/><path class="cls-4" d="M283.52,17a3.11,3.11,0,0,1,2.35-1.37,1.76,1.76,0,0,1,1.87,1.92v4.95h-1.09V17.95a1.11,1.11,0,0,0-1.13-1.37,2.67,2.67,0,0,0-2,1.33v4.6h-1.07V15.79h1V17Z"/><path class="cls-4" d="M295.48,19.14c0,2.17-1.18,3.54-2.89,3.54s-2.88-1.34-2.88-3.5,1.18-3.54,2.89-3.54S295.48,17,295.48,19.14Zm-4.68,0c0,1.74.67,2.7,1.79,2.7s1.8-.95,1.8-2.7-0.67-2.68-1.79-2.68S290.8,17.43,290.8,19.16Z"/><path class="cls-4" d="M304.12,22.51h-1.34l-0.88-3.78c-0.16-.7-0.29-1.32-0.45-2.08h-0.21c-0.14.75-.25,1.38-0.42,2.09l-0.91,3.76h-1.34l-1.91-6.72h1.13l0.89,3.78c0.18,0.75.3,1.39,0.46,2.08h0.21c0.16-.68.28-1.36,0.45-2.07l0.88-3.79h1.39L303,19.54c0.17,0.75.32,1.41,0.45,2.1h0.21c0.17-.72.29-1.37,0.47-2.1L305,15.79h1.05Z"/><path class="cls-4" d="M309.34,22.51H307.9V21.1h1.43v1.41ZM309,19.8h-0.84l-0.26-7h1.39Z"/></svg>