<svg id="レイヤー_1" data-name="レイヤー 1" xmlns="http://www.w3.org/2000/svg" viewBox="0 0 713.69 288.36"><defs><style>.cls-1{fill:#231815;}.cls-2{fill:none;stroke:#231815;stroke-miterlimit:10;}</style></defs><title>prices-DG</title><path class="cls-1" d="M19.87,275.9l-0.55.55-6.95-6.93-6.91,6.93-0.55-.55L11.82,269l-6.88-6.87,0.55-.55,6.88,6.88,6.88-6.87,0.55,0.55L12.92,269ZM8.78,269a1.37,1.37,0,0,1-1.38,1.36,1.36,1.36,0,0,1,0-2.73A1.38,1.38,0,0,1,8.78,269Zm5-5a1.36,1.36,0,1,1-1.36-1.36A1.36,1.36,0,0,1,13.73,264Zm0,10A1.36,1.36,0,0,1,11,274,1.36,1.36,0,1,1,13.73,274Zm5-5a1.35,1.35,0,0,1-1.35,1.36A1.36,1.36,0,1,1,18.71,269Z"/><path class="cls-1" d="M42,264.5c0,0.13,0,.15-0.13.15s-0.68,0-2.42,0H32.21a17.47,17.47,0,0,1-1.05,2.12h5.4c1.68,0,2.41,0,2.53,0s0.15,0,.15.15,0,0.81,0,2.4v3.67c0,1.07,0,2,0,2.4a1.63,1.63,0,0,1-.44,1.31c-0.35.29-.87,0.41-2.4,0.41C36,277,36,277,36,276.65a2.61,2.61,0,0,0-.37-0.79c0.61,0.05,1.05.07,1.7,0.07a0.68,0.68,0,0,0,.83-0.76V273.3H31.22v1.53c0,1.6,0,2.1,0,2.19s0,0.15-.15.15H30.28c-0.15,0-.17,0-0.17-0.15s0-.59,0-2.19v-6.54a16.71,16.71,0,0,1-3.26,3.3,0.64,0.64,0,0,1-.26.15,0.38,0.38,0,0,1-.26-0.2,2.25,2.25,0,0,0-.65-0.55,14.48,14.48,0,0,0,5.33-6.36h-2.6c-1.73,0-2.3,0-2.41,0s-0.15,0-.15-0.15v-0.79c0-.13,0-0.15.15-0.15s0.68,0,2.41,0h3c0.17-.48.33-1,0.46-1.44a6.56,6.56,0,0,0,.28-1.55,10.09,10.09,0,0,1,1.16.22,0.28,0.28,0,0,1,.26.22,0.55,0.55,0,0,1-.17.28,2.74,2.74,0,0,0-.31.7c-0.17.53-.33,1.07-0.52,1.57h6.82c1.73,0,2.3,0,2.42,0s0.13,0,.13.15v0.79Zm-3.87,3.19H31.22v1.83h6.89v-1.83Zm0,2.76H31.22v1.9h6.89v-1.9Z"/><path class="cls-1" d="M49.88,269.28c0.15-.15.18-0.17,0.29-0.07a20.23,20.23,0,0,1,1.88,1.73,8.91,8.91,0,0,0,.39-1,6.53,6.53,0,0,0,.39-1.66,6.81,6.81,0,0,1,1,.41,0.29,0.29,0,0,1,.2.22,0.84,0.84,0,0,1-.2.33,3.41,3.41,0,0,0-.33.79,13.82,13.82,0,0,1-.72,1.7c0.61,0.66,1.18,1.34,1.73,2,0.07,0.11.06,0.15-.07,0.28l-0.42.44c-0.17.18-.22,0.18-0.31,0.06a23.05,23.05,0,0,0-1.44-1.88,12.91,12.91,0,0,1-4.2,4.15,1,1,0,0,1-.28.13,0.45,0.45,0,0,1-.26-0.26,2.34,2.34,0,0,0-.53-0.52,12,12,0,0,0,4.57-4.29c-0.65-.68-1.35-1.35-2.1-2-0.09-.09-0.07-0.13,0-0.24Zm0.74-3a1.39,1.39,0,0,0-.37.46,12.76,12.76,0,0,1-1.94,2.71,0.59,0.59,0,0,1-.26.2,0.5,0.5,0,0,1-.26-0.2,1.36,1.36,0,0,0-.61-0.42,8.79,8.79,0,0,0,2.16-2.82,2.59,2.59,0,0,0,.24-0.83,5.39,5.39,0,0,1,1,.48,0.26,0.26,0,0,1,.17.2A0.27,0.27,0,0,1,50.62,266.24Zm5.31-1.75c0,0.11,0,.13-0.15.13s-0.65,0-2.3,0H50c-1.66,0-2.19,0-2.29,0s-0.15,0-.15-0.13v-0.77c0-.13,0-0.15.15-0.15s0.63,0,2.29,0h1.35v-1a8.79,8.79,0,0,0-.15-2,10.78,10.78,0,0,1,1.22.11c0.15,0,.22.07,0.22,0.15a0.87,0.87,0,0,1-.11.35,4.25,4.25,0,0,0-.11,1.35v1h1.09c1.66,0,2.19,0,2.3,0s0.15,0,.15.15v0.77Zm-2.27,1c0.18-.09.2-0.09,0.28,0a12,12,0,0,0,2.47,3.11,1.55,1.55,0,0,0-.63.46,0.45,0.45,0,0,1-.24.18,0.49,0.49,0,0,1-.28-0.22A17.37,17.37,0,0,1,53,266c-0.07-.13,0-0.18.13-0.26Zm7.3-.29c1.51,0,2,0,2.1,0s0.15,0,.15.17c0,0.57,0,1.11,0,1.64a60.9,60.9,0,0,1-.52,8.13,1.81,1.81,0,0,1-2,1.84c-0.5,0-.92,0-1.35-0.05s-0.35,0-.41-0.41a2.49,2.49,0,0,0-.26-0.79,10.82,10.82,0,0,0,1.88.17c0.63,0,.88-0.2,1.07-1.25a64.81,64.81,0,0,0,.48-8.42H59.41a25.61,25.61,0,0,1-.81,5.07,10.73,10.73,0,0,1-4.17,5.82,0.64,0.64,0,0,1-.26.17,0.6,0.6,0,0,1-.28-0.2,2,2,0,0,0-.68-0.52,9.76,9.76,0,0,0,4.39-5.68,24.16,24.16,0,0,0,.76-4.66H58.2c-1.51,0-2,0-2.08,0s-0.15,0-.15-0.15v-0.76c0-.13,0-0.15.15-0.15s0.57,0,2.08,0h0.22q0.05-1.08.06-2.21a10.55,10.55,0,0,0-.15-2.27,8.56,8.56,0,0,1,1.24.13,0.2,0.2,0,0,1,.2.18,1.68,1.68,0,0,1-.11.41,7.65,7.65,0,0,0-.11,1.66c0,0.66,0,1.38-.06,2.1H61Z"/><path class="cls-1" d="M72.34,274.29a1.46,1.46,0,0,0-.39.42,11.84,11.84,0,0,1-2.43,2.34,0.53,0.53,0,0,1-.26.13,0.41,0.41,0,0,1-.26-0.24,1.72,1.72,0,0,0-.52-0.52A7.93,7.93,0,0,0,71,274.18a2.89,2.89,0,0,0,.41-0.7,5.23,5.23,0,0,1,.9.42,0.24,0.24,0,0,1,.17.2A0.19,0.19,0,0,1,72.34,274.29Zm5.22-10.08c0,0.13,0,.15-0.15.15l-1.4,0v7.74c0.92,0,1.29,0,1.38,0s0.15,0,.15.15v0.72c0,0.13,0,.15-0.15.15s-0.66,0-2.32,0H71.29c-1.7,0-2.25,0-2.34,0s-0.15,0-.15-0.15v-0.72c0-.13,0-0.15.15-0.15s0.53,0,1.79,0v-7.74l-1.53,0c-0.15,0-.17,0-0.17-0.15v-0.72c0-.13,0-0.15.17-0.15s0.48,0,1.53,0V263a10.19,10.19,0,0,0-.13-2.17,7.63,7.63,0,0,1,1.14.09c0.15,0,.22.07,0.22,0.15a0.86,0.86,0,0,1-.11.35,6.7,6.7,0,0,0-.09,1.57v0.44H75V262.9a11.86,11.86,0,0,0-.13-2.18,9.89,9.89,0,0,1,1.12.13,0.21,0.21,0,0,1,.2.15,0.83,0.83,0,0,1-.09.35,6.93,6.93,0,0,0-.09,1.58v0.44c1,0,1.33,0,1.4,0s0.15,0,.15.15v0.72Zm-2.56.11H71.77v2H75v-2Zm0,2.86H71.77v2H75v-2ZM75,270H71.77v2H75v-2Zm-0.37,3.52c0.15-.09.18-0.09,0.26,0a7.26,7.26,0,0,0,1.62,1.7,2.51,2.51,0,0,0-.57.52,0.39,0.39,0,0,1-.2.18,0.48,0.48,0,0,1-.22-0.15,8.35,8.35,0,0,1-1.44-1.7c-0.09-.13-0.11-0.17.09-0.28Zm9.64-.68c0,0.85,0,1.7,0,2.47a1.52,1.52,0,0,1-.48,1.29,3.46,3.46,0,0,1-2.12.37c-0.37,0-.39,0-0.48-0.37a2.21,2.21,0,0,0-.35-0.79c0.57,0,1,.06,1.57.06a0.66,0.66,0,0,0,.76-0.79V271H79.42a11.07,11.07,0,0,1-2,6,0.35,0.35,0,0,1-.22.22A0.53,0.53,0,0,1,77,277a2.43,2.43,0,0,0-.72-0.44c1.75-2.25,2.19-3.93,2.19-9.33v-2.78c0-1.92,0-2.8,0-2.91s0-.15.15-0.15,0.52,0,1.81,0h1.94c1.31,0,1.73,0,1.82,0s0.15,0,.15.15,0,1,0,2.91v8.44Zm-1.07-6.21H79.55v0.57c0,1,0,1.94-.07,2.75H83.2v-3.32Zm0-4.26H79.55v3.28H83.2V262.4Z"/><path class="cls-1" d="M95.39,261.57a1.14,1.14,0,0,0,.44-0.06,0.3,0.3,0,0,1,.17,0,0.79,0.79,0,0,1,.5.33,0.86,0.86,0,0,1,.33.48,0.38,0.38,0,0,1-.15.26,1.58,1.58,0,0,0-.33.55,35.31,35.31,0,0,1-2,3.78c1.71,2,2.08,3,2.08,4.24,0,1.44-.72,2.49-2.69,2.56-0.39,0-.39,0-0.46-0.33a1.6,1.6,0,0,0-.35-0.76c1.53,0.09,2.43-.22,2.43-1.47,0-1-.37-1.9-2.16-4.13a29.15,29.15,0,0,0,2.12-4.42H92.44v10.76c0,2.49,0,3.69,0,3.78s0,0.15-.15.15H91.49c-0.13,0-.15,0-0.15-0.15s0-1.22,0-3.78v-7.89c0-2.58,0-3.65,0-3.76s0-.15.15-0.15,0.52,0,1.46,0h2.45Zm6.19,7.41a12.36,12.36,0,0,0,1.09,3.08,18.24,18.24,0,0,0,2.18-1.81,3.09,3.09,0,0,0,.53-0.7,4.25,4.25,0,0,1,.77.7,0.35,0.35,0,0,1,.13.22,0.27,0.27,0,0,1-.22.2,4.08,4.08,0,0,0-.88.64,23.06,23.06,0,0,1-2,1.59,10.14,10.14,0,0,0,3.87,3.35,2.88,2.88,0,0,0-.57.72,0.38,0.38,0,0,1-.22.26,0.5,0.5,0,0,1-.28-0.13,11.53,11.53,0,0,1-5.4-8.13H98.71v6.16A24.47,24.47,0,0,0,102,274a4,4,0,0,0-.09.72c0,0.41,0,.41-0.35.5-1.46.52-3.06,1-5,1.47a2.51,2.51,0,0,0-.7.24,0.41,0.41,0,0,1-.24.11,0.19,0.19,0,0,1-.17-0.17,7.06,7.06,0,0,1-.31-1.05,12.77,12.77,0,0,0,1.58-.26l0.81-.17V265c0-2.17,0-3.17,0-3.28s0-.15.15-0.15,0.76,0,2.32,0H103c1.47,0,2,0,2.14,0s0.15,0,.15.15,0,0.66,0,2v3.17c0,1.35,0,1.88,0,2s0,0.15-.15.15-0.66,0-2.14,0h-1.42Zm2.58-6.41H98.71v2.21h5.46v-2.21Zm0,3.15H98.71v2.34h5.46v-2.34Z"/><path class="cls-1" d="M115.81,262.48a0.31,0.31,0,0,1,.11.5,3,3,0,0,0-.29.92,36.33,36.33,0,0,0-.88,6.8,23.88,23.88,0,0,0,.13,3.19c0.39-1,.81-1.92,1.29-3a2.81,2.81,0,0,0,.42.75,0.33,0.33,0,0,1,0,.41,16,16,0,0,0-1.11,2.91,3.2,3.2,0,0,0,0,.83,0.18,0.18,0,0,1-.09.24,5,5,0,0,1-.83.24c-0.13,0-.18,0-0.24-0.15a15.91,15.91,0,0,1-.7-5.38,41.52,41.52,0,0,1,.79-6.91,7.81,7.81,0,0,0,.09-1.82A4.67,4.67,0,0,1,115.81,262.48Zm7.06,4.31a33.8,33.8,0,0,1-4.11,0,0.16,0.16,0,0,1-.2-0.17,7.49,7.49,0,0,1-.07-1,31.21,31.21,0,0,0,4.35,0c0-.68,0-1.38,0-2.12a6.78,6.78,0,0,0-.18-1.64,6.16,6.16,0,0,1,1.42.26,0.27,0.27,0,0,1,.2.22,0.5,0.5,0,0,1-.07.26,2.57,2.57,0,0,0-.15.88c0,0.65,0,1.29,0,2,1-.09,2-0.24,2.91-0.42,0.15,0,.17,0,0.18.13a4.77,4.77,0,0,1,.07.74,0.2,0.2,0,0,1-.13.22,23.09,23.09,0,0,1-3,.44c0,2.16.07,3.91,0.17,5.57a13.19,13.19,0,0,1,3.24,1.9c0.09,0.07.09,0.11,0,.24a3.44,3.44,0,0,1-.5.81,0.12,0.12,0,0,1-.22,0,12,12,0,0,0-2.58-1.7c-0.07,1.62-1,2.49-3.08,2.49-1.73,0-2.88-.76-2.88-2.1s1.27-2.19,2.84-2.19a9.87,9.87,0,0,1,1.94.2C122.92,270.38,122.87,268.69,122.87,266.79ZM123,273a7.2,7.2,0,0,0-2-.31c-1,0-1.71.42-1.71,1.18S119.94,275,121,275c1.31,0,2-.59,2-1.57V273Z"/><path class="cls-1" d="M138.69,263.79a0.59,0.59,0,0,0,.37-0.07,0.33,0.33,0,0,1,.17-0.07,0.83,0.83,0,0,1,.48.35,0.92,0.92,0,0,1,.29.46,0.27,0.27,0,0,1-.17.22,1.27,1.27,0,0,0-.33.48,22,22,0,0,1-2,3.08,11.89,11.89,0,0,0,.92,1,11.89,11.89,0,0,0,.9-1.29,4,4,0,0,0,.37-0.79,7.09,7.09,0,0,1,.83.52,0.23,0.23,0,0,1,.13.22,0.22,0.22,0,0,1-.15.18,0.92,0.92,0,0,0-.37.35,14.93,14.93,0,0,1-1.14,1.36,14.12,14.12,0,0,0,1.55,1.22,2.51,2.51,0,0,0-.5.57,0.35,0.35,0,0,1-.22.22,0.54,0.54,0,0,1-.26-0.17,17.23,17.23,0,0,1-2.16-2.34V275c0,1.46,0,2.06,0,2.16s0,0.15-.15.15h-0.85c-0.13,0-.15,0-0.15-0.15s0-.7,0-2.16v-5.38a22.67,22.67,0,0,1-2.47,2.34,0.57,0.57,0,0,1-.28.15,0.3,0.3,0,0,1-.2-0.24,2.28,2.28,0,0,0-.42-0.59,17.94,17.94,0,0,0,5.55-6.53h-2.8c-1.38,0-1.81,0-1.9,0s-0.15,0-.15-0.15V263.9c0-.13,0-0.15.15-0.15s0.52,0,1.9,0h0.63v-1a9.2,9.2,0,0,0-.13-2.06c0.46,0,.77,0,1.2.09a0.23,0.23,0,0,1,.22.17,0.85,0.85,0,0,1-.11.35,4.27,4.27,0,0,0-.11,1.44v1h1.27Zm7.94-1.27c1.7,0,2.27,0,2.36,0a0.13,0.13,0,0,1,.17.17c0,0.55,0,1.09,0,1.59a62.46,62.46,0,0,1-.68,10.47c-0.26,1.4-1,2.16-2.32,2.16a13.33,13.33,0,0,1-1.66-.09c-0.33,0-.33-0.06-0.39-0.44a2.11,2.11,0,0,0-.28-0.83,9.86,9.86,0,0,0,2.16.22,1.51,1.51,0,0,0,1.42-1.53,66,66,0,0,0,.61-10.6h-3.35a25.61,25.61,0,0,1-1,7.65,11.33,11.33,0,0,1-4.13,5.7,0.42,0.42,0,0,1-.26.17,0.53,0.53,0,0,1-.28-0.24,2.67,2.67,0,0,0-.72-0.53,10.1,10.1,0,0,0,4.31-5.57,22.85,22.85,0,0,0,.87-7.17h-0.59c-1.7,0-2.25,0-2.36,0s-0.15,0-.15-0.15v-0.85c0-.13,0-0.15.15-0.15s0.66,0,2.36,0h3.78Z"/><path class="cls-1" d="M170.41,270.33c0,5.7,0,6.75,0,6.86s0,0.15-.15.15h-0.88c-0.13,0-.15,0-0.15-0.15v-1.05H157v1.05c0,0.13,0,.15-0.15.15H156c-0.13,0-.15,0-0.15-0.15s0-1.16,0-6.86v-3.69c0-3.71,0-4.79,0-4.9s0-.15.15-0.15,0.74,0,2.56,0h9.16c1.82,0,2.45,0,2.56,0s0.15,0,.15.15,0,1.2,0,4.37v4.22Zm-1.14-7.67H157v12.46h12.22V262.66Zm-2.95,6.93c0,2.32,0,2.8,0,2.89s0,0.15-.15.15h-0.81c-0.13,0-.15,0-0.15-0.15v-0.63h-4.31v0.63c0,0.13,0,.15-0.15.15H160c-0.13,0-.15,0-0.15-0.15s0-.57,0-2.89v-1.86c0-1.36,0-1.83,0-1.94s0-.15.15-0.15,0.55,0,2,0h2.29c1.42,0,1.86,0,2,0s0.15,0,.15.15,0,0.57,0,1.79v2Zm-1.07-2.93h-4.31v4.22h4.31v-4.22Z"/><path class="cls-1" d="M184.7,267c0,0.13,0,.15-0.15.15s-0.59,0-2.19,0h-0.57a17.7,17.7,0,0,0,2.89,4,3.08,3.08,0,0,0-.5.72,0.27,0.27,0,0,1-.17.2,0.35,0.35,0,0,1-.2-0.17,17.73,17.73,0,0,1-2.36-3.94c0,4.88.15,8.94,0.15,9.22s0,0.15-.15.15h-0.92c-0.13,0-.15,0-0.15-0.15s0.15-4.42.17-9.2a22,22,0,0,1-3.48,6,0.35,0.35,0,0,1-.22.18,0.24,0.24,0,0,1-.17-0.2,2.24,2.24,0,0,0-.5-0.76,21,21,0,0,0,4-6h-1.29c-1.58,0-2.08,0-2.19,0s-0.13,0-.13-0.15v-0.72c0-.13,0-0.15.13-0.15s0.61,0,2.19,0h1.6v-2.91c-0.85.24-1.75,0.46-2.67,0.64-0.37.06-.37,0.06-0.53-0.26a2.17,2.17,0,0,0-.44-0.55,24.11,24.11,0,0,0,5.68-1.62,3,3,0,0,0,.83-0.53,6.24,6.24,0,0,1,.79.64,0.41,0.41,0,0,1,.17.31c0,0.11-.09.15-0.29,0.17a2.87,2.87,0,0,0-.79.24c-0.48.2-1,.41-1.64,0.61v3.26h0.81c1.6,0,2.08,0,2.19,0s0.15,0,.15.15V267Zm1.42-2.14a12.64,12.64,0,0,0-.13-2.51,11.75,11.75,0,0,1,1.2.11,0.17,0.17,0,0,1,.18.17,1.07,1.07,0,0,1-.09.29,8.28,8.28,0,0,0-.07,1.9v5c0,1.6,0,2.27,0,2.38s0,0.15-.15.15h-0.87c-0.13,0-.15,0-0.15-0.15s0-.77,0-2.38v-5Zm4.39-1.58a11.9,11.9,0,0,0-.13-2.25,12,12,0,0,1,1.23.11,0.23,0.23,0,0,1,.22.17,0.86,0.86,0,0,1-.11.35,5.2,5.2,0,0,0-.09,1.6v9.05c0,1,0,2.06,0,2.78a1.49,1.49,0,0,1-.53,1.44c-0.42.29-.79,0.37-2.53,0.37-0.35,0-.35,0-0.46-0.39a2.37,2.37,0,0,0-.39-0.85,11.6,11.6,0,0,0,1.82.11c0.7,0,.94-0.13.94-0.88V263.32Z"/><path class="cls-1" d="M210.44,261.74c1.86,0,2.53,0,2.64,0s0.15,0,.15.15,0,1,0,2.89v8.18c0,0.85,0,1.7,0,2.47a1.45,1.45,0,0,1-.53,1.27c-0.35.26-.81,0.37-2.29,0.37-0.39,0-.39,0-0.46-0.37a2.27,2.27,0,0,0-.33-0.85,17.76,17.76,0,0,0,1.82.07,0.6,0.6,0,0,0,.65-0.74v-3.89H206.9v2.19c0,2.08,0,2.95,0,3.06s0,0.15-.15.15h-0.88c-0.13,0-.15,0-0.15-0.15s0-1,0-3.06v-2.19h-4.94a10.26,10.26,0,0,1-1.88,5.49,0.39,0.39,0,0,1-.22.22,0.5,0.5,0,0,1-.26-0.18,3.47,3.47,0,0,0-.77-0.46c1.47-1.86,2.16-3.76,2.16-8.83v-2.76c0-1.92,0-2.8,0-2.89s0-.15.15-0.15,0.76,0,2.62,0h7.83ZM205.8,267H201v0.5c0,1.05,0,2-.07,2.77h4.87V267Zm0-4.26H201V266h4.79v-3.26Zm6.27,0H206.9V266h5.16v-3.26Zm0,4.26H206.9v3.26h5.16V267Z"/><path class="cls-1" d="M233.18,270.22c0,5.27,0,6.19,0,6.29s0,0.15-.15.15h-0.88c-0.13,0-.15,0-0.15-0.15v-1.12H223.5v1.16c0,0.13,0,.15-0.13.15h-0.9c-0.13,0-.15,0-0.15-0.15s0-1,0-6.32v-3.56c0-3.58,0-4.53,0-4.64s0-.15.15-0.15,0.74,0,2.56,0h5.47c1.82,0,2.45,0,2.56,0s0.15,0,.15.15,0,1.07,0,4.18v4ZM232,263H223.5v5H232v-5Zm0,6H223.5v5.35H232V269Z"/><path class="cls-1" d="M254.07,265a0.13,0.13,0,0,1,.17.07,6.07,6.07,0,0,1,.29.94,0.14,0.14,0,0,1-.11.18,23.77,23.77,0,0,1-4.85.9,46.05,46.05,0,0,0,.35,5,19.65,19.65,0,0,1,5.25,2.38,0.17,0.17,0,0,1,.09.24,3.51,3.51,0,0,1-.55.9,0.13,0.13,0,0,1-.2,0,16.93,16.93,0,0,0-4.53-2.34c0,0.11,0,.29,0,0.52,0,1.53-1.23,2.67-3.32,2.67-2.27,0-3.52-.94-3.52-2.3s1.62-2.45,3.58-2.45a13.27,13.27,0,0,1,2,.13c-0.18-1.73-.31-3.87-0.33-6,0-.81,0-2,0-2.82a5.75,5.75,0,0,0-.17-1.51,7.54,7.54,0,0,1,1.46.24,0.25,0.25,0,0,1,.15.41,2.47,2.47,0,0,0-.18,1c0,0.59,0,1.57,0,2.75A19.5,19.5,0,0,0,254.07,265Zm-7.41,7.8c-1.57,0-2.45.61-2.45,1.36s0.87,1.2,2.29,1.2,2.25-.68,2.25-1.92a2.84,2.84,0,0,0,0-.42A10.37,10.37,0,0,0,246.66,272.76Z"/><path class="cls-1" d="M268.52,262.05a0.34,0.34,0,0,1,.24.28,0.46,0.46,0,0,1-.07.24,1.73,1.73,0,0,0-.33.72,27.58,27.58,0,0,0-.55,4.24,12.84,12.84,0,0,0,.07,2.08c0.39-.77.94-1.83,1.36-2.65a2.62,2.62,0,0,0,.37.76,0.39,0.39,0,0,1,0,.5,18.84,18.84,0,0,0-1.16,2.43,1.48,1.48,0,0,0-.13.59c0,0.17,0,.22-0.13.26s-0.57.09-.88,0.13a0.21,0.21,0,0,1-.18-0.18,11,11,0,0,1-.46-3.45,34.26,34.26,0,0,1,.42-4.33,10,10,0,0,0,.17-2A5.26,5.26,0,0,1,268.52,262.05Zm5.82-.18a0.27,0.27,0,0,1,.28.37,3.12,3.12,0,0,0,0,.87c0.15,2,.22,3.58.22,4.88,0,2.64-.46,4.63-1.51,6a9.46,9.46,0,0,1-3,2.67,0.35,0.35,0,0,1-.48,0,2.74,2.74,0,0,0-.94-0.52,8.62,8.62,0,0,0,3.21-2.53c1-1.38,1.51-2.95,1.51-5.58,0-1.27-.07-3-0.18-4.39a7.66,7.66,0,0,0-.37-1.93A6.47,6.47,0,0,1,274.34,261.87Z"/><path class="cls-1" d="M290.61,264.6a1.78,1.78,0,0,0-1.77-1.31c-1.92,0-2.89,1.9-3,5.62a3.51,3.51,0,0,1,3-1.88c2,0,3.45,1.64,3.45,4.24,0,2.86-1.62,4.61-3.85,4.61s-4.09-2-4.09-6.3c0-5.27,1.73-7.52,4.48-7.52a3.31,3.31,0,0,1,3.19,1.9Zm-2.12,10c1.42,0,2.3-1.16,2.3-3.34,0-1.92-.83-3-2.19-3-1,0-1.94.63-2.69,2C285.91,273.31,287,274.64,288.49,274.64Z"/><path class="cls-1" d="M305.68,268.89c0,4.88-1.44,7-4.06,7s-4-2.06-4-6.95,1.49-6.88,4.07-6.88S305.68,264,305.68,268.89Zm-6.53,0c0,4.13.81,5.7,2.47,5.7s2.49-1.57,2.49-5.7-0.79-5.58-2.45-5.58S299.16,264.76,299.16,268.91Z"/><path class="cls-1" d="M324.48,270.22c0,5.27,0,6.19,0,6.29s0,0.15-.15.15h-0.88c-0.13,0-.15,0-0.15-0.15v-1.12H314.8v1.16c0,0.13,0,.15-0.13.15h-0.9c-0.13,0-.15,0-0.15-0.15s0-1,0-6.32v-3.56c0-3.58,0-4.53,0-4.64s0-.15.15-0.15,0.74,0,2.56,0h5.47c1.83,0,2.45,0,2.56,0s0.15,0,.15.15,0,1.07,0,4.18v4ZM323.33,263H314.8v5h8.53v-5Zm0,6H314.8v5.35h8.53V269Z"/><path class="cls-1" d="M339,261.7a0.27,0.27,0,0,1,.22.24c0,0.18-.09.35-0.09,0.65s0.06,0.77.11,1.18a24.78,24.78,0,0,0,.72,3.72c1.09-.53,2.19-1,3.28-1.66a3,3,0,0,0,1.07-.85,7.83,7.83,0,0,1,.94,1,0.3,0.3,0,0,1-.22.52,7,7,0,0,0-1.62.59c-1.35.63-2.93,1.38-4.18,2.1-1.86,1.09-2.73,2-2.73,3.34,0,1.64,1.55,2,4.33,2a35.37,35.37,0,0,0,4.74-.39,0.19,0.19,0,0,1,.26.17,8.18,8.18,0,0,1,.11,1c0,0.17-.06.24-0.26,0.26a41.21,41.21,0,0,1-4.9.26c-3.19,0-5.49-.7-5.49-3.23,0-1.77,1.25-3.13,3.59-4.55a32.89,32.89,0,0,1-1-4.72,6.75,6.75,0,0,0-.41-1.81A8.37,8.37,0,0,1,339,261.7Z"/><path class="cls-1" d="M362.82,264.21c0.17,0,.22,0,0.24.11s0.07,0.55.09,0.79,0,0.2-.17.22c-1,.2-2,0.37-3.08.54a44.43,44.43,0,0,1-3.71,7.78,0.18,0.18,0,0,1-.29.05,4.22,4.22,0,0,1-.74-0.55c-0.11-.09-0.11-0.17,0-0.31a32.37,32.37,0,0,0,3.47-6.86c-0.79.07-1.53,0.13-2.32,0.13-0.28,0-.55,0-1,0-0.17,0-.18,0-0.22-0.22a5.71,5.71,0,0,1-.11-0.92c0.59,0.06,1.07.07,1.46,0.07a23.54,23.54,0,0,0,2.51-.15c0.22-.7.39-1.38,0.55-2.16a5.45,5.45,0,0,0,.15-1.44,7.69,7.69,0,0,1,1.44.37,0.21,0.21,0,0,1,.17.2,0.38,0.38,0,0,1-.15.28,1.67,1.67,0,0,0-.26.57c-0.2.66-.41,1.35-0.59,2A25.61,25.61,0,0,0,362.82,264.21Zm1.13,4.46a5.7,5.7,0,0,0-.11-1.18,5.85,5.85,0,0,1,1.25.24,0.23,0.23,0,0,1,.2.22,1,1,0,0,1-.11.33,2.86,2.86,0,0,0-.07.87,31.1,31.1,0,0,0,.22,3.39,16.07,16.07,0,0,1,3.48,1.84c0.15,0.09.13,0.15,0.07,0.29a5.82,5.82,0,0,1-.44.81c-0.09.13-.18,0.11-0.29,0a11.13,11.13,0,0,0-2.8-1.75c0,1.86-.92,2.88-3.3,2.88-1.4,0-2.86-.72-2.86-2.25s1.33-2.32,3.13-2.32a9.15,9.15,0,0,1,1.84.22C364.05,271.14,364,269.67,363.94,268.67Zm-1.57,4.41c-1.47,0-2.14.57-2.14,1.25,0,0.85.68,1.24,1.9,1.24,1.51,0,2.06-.79,2.06-1.73a2.5,2.5,0,0,0,0-.44A6.12,6.12,0,0,0,362.38,273.08Zm3.13-8.26a0.21,0.21,0,0,1,.31-0.11,13.06,13.06,0,0,1,3.61,1.73,0.21,0.21,0,0,1,0,.33,4.72,4.72,0,0,1-.42.74c-0.09.13-.15,0.11-0.26,0a12.42,12.42,0,0,0-3.76-1.88C365.21,265.35,365.36,265,365.51,264.82Z"/><path class="cls-1" d="M381.35,262.05a0.34,0.34,0,0,1,.24.28,0.47,0.47,0,0,1-.07.24,1.73,1.73,0,0,0-.33.72,27.39,27.39,0,0,0-.55,4.24,12.84,12.84,0,0,0,.07,2.08c0.39-.77.94-1.83,1.36-2.65a2.61,2.61,0,0,0,.37.76,0.39,0.39,0,0,1,0,.5,19,19,0,0,0-1.16,2.43,1.48,1.48,0,0,0-.13.59c0,0.17,0,.22-0.13.26s-0.57.09-.88,0.13a0.21,0.21,0,0,1-.18-0.18,11,11,0,0,1-.46-3.45,34.09,34.09,0,0,1,.42-4.33,10.07,10.07,0,0,0,.17-2A5.25,5.25,0,0,1,381.35,262.05Zm5.82-.18a0.27,0.27,0,0,1,.28.37,3.13,3.13,0,0,0,0,.87c0.15,2,.22,3.58.22,4.88,0,2.64-.46,4.63-1.51,6a9.46,9.46,0,0,1-3,2.67,0.35,0.35,0,0,1-.48,0,2.74,2.74,0,0,0-.94-0.52,8.63,8.63,0,0,0,3.21-2.53c1-1.38,1.51-2.95,1.51-5.58,0-1.27-.07-3-0.18-4.39a7.67,7.67,0,0,0-.37-1.93A6.46,6.46,0,0,1,387.18,261.87Z"/><path class="cls-1" d="M404.77,269.42a35.86,35.86,0,0,1-4.24-.05c-0.15,0-.18-0.06-0.2-0.22a7.75,7.75,0,0,1-.06-0.94,27.67,27.67,0,0,0,4.46.13c0-.9,0-1.86,0-2.75a35.06,35.06,0,0,1-4.88-.09,0.17,0.17,0,0,1-.17-0.18,6.5,6.5,0,0,1-.07-1,31.38,31.38,0,0,0,5.12.15c0-.76,0-1.27,0-2a4.39,4.39,0,0,0-.17-1.22,7.41,7.41,0,0,1,1.46.24,0.29,0.29,0,0,1,.17.42,1.71,1.71,0,0,0-.22.85c0,0.59,0,1-.06,1.62a42.86,42.86,0,0,0,4.5-.61c0.15,0,.18,0,0.2.13a7.06,7.06,0,0,1,.05.81c0,0.15-.07.18-0.13,0.18a45.8,45.8,0,0,1-4.63.53c0,0.9,0,1.86,0,2.73a30.79,30.79,0,0,0,4.07-.53c0.13,0,.18,0,0.2.09s0,0.57,0,.88a0.17,0.17,0,0,1-.18.18,33.72,33.72,0,0,1-4.07.5c0,1.14.06,2.1,0.13,3.21A15,15,0,0,1,411,275a0.24,0.24,0,0,1,.07.31,2.46,2.46,0,0,1-.46.79,0.18,0.18,0,0,1-.28.06,13.57,13.57,0,0,0-4.2-2.34c0,2.06-1.07,2.88-3.3,2.88s-3.26-.83-3.26-2.19c0-1.2,1.25-2.25,3.39-2.25a11.58,11.58,0,0,1,1.94.15C404.83,271.31,404.79,270.49,404.77,269.42Zm-1.83,3.8c-1.55,0-2.32.5-2.32,1.16s0.72,1.14,2.06,1.14a2.52,2.52,0,0,0,1.88-.57,2.07,2.07,0,0,0,.33-1.49A8.72,8.72,0,0,0,402.95,273.22Z"/><path class="cls-1" d="M434.48,265.08c0,0.17-.06.18-0.24,0.18-2-.06-3.78-0.07-5.86,0,0,1.16,0,2.43,0,3.67a7.86,7.86,0,0,1,.22,1.94,6.1,6.1,0,0,1-3.59,5.7,1,1,0,0,1-.42.17,0.53,0.53,0,0,1-.33-0.15,2.77,2.77,0,0,0-.85-0.52c2.64-1.09,3.85-2.78,4-4.64a2.28,2.28,0,0,1-2,1.05,2.38,2.38,0,0,1-2.43-2.6,2.47,2.47,0,0,1,2.52-2.56,2.33,2.33,0,0,1,1.73.63c0-.9,0-1.73,0-2.6-2.64.15-5.12,0.33-6.87,0.55-0.44.06-.66,0.18-0.81,0.18a0.22,0.22,0,0,1-.22-0.18,5.91,5.91,0,0,1-.29-1.18,16.35,16.35,0,0,0,2.32-.11c1.49-.11,3.39-0.24,5.84-0.39,0-.76,0-1.12,0-1.71a4.86,4.86,0,0,0-.18-1.23,9.28,9.28,0,0,1,1.4.2,0.36,0.36,0,0,1,.33.28,0.69,0.69,0,0,1-.13.33,1.08,1.08,0,0,0-.13.5c0,0.41,0,.76,0,1.57,2-.05,3.85-0.05,5.9-0.05,0.17,0,.2,0,0.2.2v0.79Zm-10.42,4.76a1.46,1.46,0,0,0,1.49,1.58,1.63,1.63,0,0,0,1.68-1.62,1.54,1.54,0,0,0-1.64-1.57A1.52,1.52,0,0,0,424.06,269.83Z"/><path class="cls-1" d="M445.21,275a2.6,2.6,0,1,1-2.6-2.56A2.59,2.59,0,0,1,445.21,275ZM441,275a1.64,1.64,0,1,0,1.64-1.64A1.64,1.64,0,0,0,441,275Z"/><path class="cls-1" d="M13,208.44c0,2.34-1.79,3.91-4.53,3.91s-4.55-1.46-4.55-3.83c0-1.62.85-2.58,2.73-3.5a3.74,3.74,0,0,1-2.4-3.59c0-2,1.68-3.63,4.2-3.63s4.24,1.47,4.24,3.56c0,1.51-.81,2.53-2.47,3.21C12.25,205.51,13,206.61,13,208.44Zm-5-2.73c-1.31.72-1.94,1.47-1.94,2.65a2.17,2.17,0,0,0,2.34,2.29,2.09,2.09,0,0,0,2.36-2.14c0-1.11-.53-1.73-2.23-2.54Zm0.81-1.83a2.52,2.52,0,0,0,1.66-2.45,1.92,1.92,0,0,0-2.06-2,1.85,1.85,0,0,0-2,1.92c0,1,.46,1.57,1.92,2.25Z"/><path class="cls-1" d="M25,213.34c0,0.18,0,.2-0.2.2H23.22c-0.18,0-.2,0-0.2-0.2s0-1.36,0-7.06v-3.63c0-3.67,0-4.94,0-5.07s0-.2.2-0.2,0.74,0,2.47,0h9.94c1.73,0,2.34,0,2.47,0s0.2,0,.2.2,0,1.4,0,4.44v4.26c0,5.7,0,6.93,0,7s0,0.2-.2.2H36.51c-0.18,0-.2,0-0.2-0.2v-0.88H25v0.9Zm0-14.17v11.54h11.3V199.17H25Zm9,6.91c0,1.77,0,2.4,0,2.53s0,0.2-.2.2H32.46c-0.2,0-.22,0-0.22-0.2v-0.44H29v0.44c0,0.18,0,.2-0.2.2H27.35c-0.18,0-.2,0-0.2-0.2s0-.76,0-2.53v-2.49c0-1.22,0-1.73,0-1.84s0-.2.2-0.2,0.59,0,2,0h2.52c1.42,0,1.88,0,2,0s0.2,0,.2.2,0,0.63,0,1.75v2.58ZM29,203.22v3.28h3.24v-3.28H29Z"/><path class="cls-1" d="M11.31,137h1.75v1.73H11.31v3.19H9.19v-3.19H3.82v-1.62l4.57-9.34h2.91V137Zm-2.12-3.1c0-1.49.06-2.89,0.11-4.31H9c-0.46,1.22-1,2.45-1.57,3.69L5.74,137H9.19v-3.1Z"/><path class="cls-1" d="M25,143.18c0,0.18,0,.2-0.2.2H23.22c-0.18,0-.2,0-0.2-0.2s0-1.36,0-7.06v-3.63c0-3.67,0-4.94,0-5.07s0-.2.2-0.2,0.74,0,2.47,0h9.94c1.73,0,2.34,0,2.47,0s0.2,0,.2.2,0,1.4,0,4.44v4.26c0,5.7,0,6.93,0,7s0,0.2-.2.2H36.51c-0.18,0-.2,0-0.2-0.2v-0.88H25v0.9ZM25,129v11.54h11.3V129H25Zm9,6.91c0,1.77,0,2.4,0,2.52s0,0.2-.2.2H32.46c-0.2,0-.22,0-0.22-0.2V138H29v0.44c0,0.18,0,.2-0.2.2H27.35c-0.18,0-.2,0-0.2-0.2s0-.75,0-2.52v-2.49c0-1.22,0-1.73,0-1.84s0-.2.2-0.2,0.59,0,2,0h2.52c1.42,0,1.88,0,2,0s0.2,0,.2.2,0,0.63,0,1.75v2.58ZM29,133.06v3.28h3.24v-3.28H29Z"/><path class="cls-1" d="M9.79,72h2.64v1.79H4.83V72H7.6v-10A10.31,10.31,0,0,1,5,63.19L4.63,61.26A10.4,10.4,0,0,0,7.91,59.6H9.79V72Z"/><path class="cls-1" d="M25,75c0,0.18,0,.2-0.2.2H23.22c-0.18,0-.2,0-0.2-0.2s0-1.36,0-7.06V64.31c0-3.67,0-4.94,0-5.07s0-.2.2-0.2,0.74,0,2.47,0h9.94c1.73,0,2.34,0,2.47,0s0.2,0,.2.2,0,1.4,0,4.44v4.26c0,5.7,0,6.93,0,7s0,0.2-.2.2H36.51c-0.18,0-.2,0-0.2-0.2V74.1H25V75Zm0-14.17V72.37h11.3V60.83H25Zm9,6.91c0,1.77,0,2.4,0,2.52s0,0.2-.2.2H32.46c-0.2,0-.22,0-0.22-0.2V69.83H29v0.44c0,0.18,0,.2-0.2.2H27.35c-0.18,0-.2,0-0.2-0.2s0-.75,0-2.52V65.25c0-1.22,0-1.73,0-1.84s0-.2.2-0.2,0.59,0,2,0h2.52c1.42,0,1.88,0,2,0s0.2,0,.2.2,0,0.63,0,1.75v2.58ZM29,64.89v3.28h3.24V64.89H29Z"/><path class="cls-1" d="M397.87,74.88h4.66V78H389.11V74.88H394V57.15a18.27,18.27,0,0,1-4.6,2.22l-0.65-3.42a18.38,18.38,0,0,0,5.8-2.93h3.32V74.88Z"/><path class="cls-1" d="M411.95,58.13c0.95-3.52,3.75-5.38,7.53-5.38,4.53,0,7.46,2.64,7.46,6.26a5.41,5.41,0,0,1-4.76,5.61v0.23c3.36,0.72,5.25,3,5.25,6.26,0,4.4-3.19,7.4-8,7.4-4.11,0-6.81-1.66-7.92-5.51l4-1.17c0.55,2.51,1.73,3.52,3.88,3.52,2.35,0,3.81-1.56,3.81-4.21,0-2.83-1.34-4.5-4.82-4.5h-1.89V63.31h1.73c3.26,0,4.56-1.4,4.56-3.91a3.16,3.16,0,0,0-3.42-3.49c-1.73,0-3.13,1.08-3.46,3.42Z"/><path class="cls-1" d="M441.41,78L439,83.13h-2L439.13,78h-2.38v-4.4h4.66V78Z"/><path class="cls-1" d="M466.34,65.53c0,9.22-2.8,13-7.89,13s-7.79-3.68-7.79-12.91,2.84-12.84,7.85-12.84S466.34,56.34,466.34,65.53Zm-11.47,0c0,7.33,1,9.71,3.59,9.71s3.68-2.41,3.68-9.71-1-9.58-3.62-9.58S454.86,58.2,454.86,65.56Z"/><path class="cls-1" d="M490.52,65.53c0,9.22-2.8,13-7.89,13s-7.79-3.68-7.79-12.91,2.84-12.84,7.86-12.84S490.52,56.34,490.52,65.53Zm-11.47,0c0,7.33,1,9.71,3.58,9.71s3.68-2.41,3.68-9.71-1-9.58-3.62-9.58S479,58.2,479,65.56Z"/><path class="cls-1" d="M514.69,65.53c0,9.22-2.8,13-7.89,13S499,74.82,499,65.6s2.84-12.84,7.86-12.84S514.69,56.34,514.69,65.53Zm-11.47,0c0,7.33,1,9.71,3.58,9.71s3.68-2.41,3.68-9.71-1-9.58-3.62-9.58S503.22,58.2,503.22,65.56Z"/><path class="cls-1" d="M559.18,70.71c0,2.84.06,4.53,0.06,5.64a3.08,3.08,0,0,1-1,2.71c-0.78.62-1.86,0.85-5.31,0.85-1,0-1.08,0-1.27-1a9.43,9.43,0,0,0-.85-2.51c1.37,0.13,2.9.16,3.68,0.16,1,0,1.27-.29,1.27-1.11V67.26h-19V74.2c0,3.55.07,5.38,0.07,5.57s0,0.36-.39.36h-2.84c-0.33,0-.36,0-0.36-0.36s0.07-2.22.07-6.39V59.44c0-4.17-.07-6.23-0.07-6.42,0-.36,0-0.39.36-0.39s1.34,0.07,4.43.07h16.53c3.1,0,4.2-.07,4.4-0.07s0.36,0,.36.39c0,0.2-.06,2.38-0.06,6.55V70.71ZM544.35,64.1V55.88h-7.66V64.1h7.66Zm3.39-8.21V64.1h8V55.88h-8Z"/><path class="cls-1" d="M400.55,140.9h3.1V144h-3.1v5.64H396.8V144h-9.49V141.1l8.08-16.52h5.15V140.9Zm-3.75-5.48c0-2.64.1-5.12,0.2-7.63h-0.46c-0.82,2.15-1.76,4.33-2.77,6.52l-3.06,6.58h6.1v-5.48Z"/><path class="cls-1" d="M427.53,137.09c0,9.22-2.8,13-7.89,13s-7.79-3.68-7.79-12.91,2.83-12.84,7.85-12.84S427.53,127.9,427.53,137.09Zm-11.47,0c0,7.33,1,9.71,3.58,9.71s3.68-2.41,3.68-9.71-1-9.58-3.62-9.58S416.05,129.76,416.05,137.12Z"/><path class="cls-1" d="M441.41,149.61L439,154.69h-2l2.18-5.08h-2.38v-4.4h4.66v4.4Z"/><path class="cls-1" d="M466.34,137.09c0,9.22-2.8,13-7.89,13s-7.79-3.68-7.79-12.91,2.84-12.84,7.85-12.84S466.34,127.9,466.34,137.09Zm-11.47,0c0,7.33,1,9.71,3.59,9.71s3.68-2.41,3.68-9.71-1-9.58-3.62-9.58S454.86,129.76,454.86,137.12Z"/><path class="cls-1" d="M490.52,137.09c0,9.22-2.8,13-7.89,13s-7.79-3.68-7.79-12.91,2.84-12.84,7.86-12.84S490.52,127.9,490.52,137.09Zm-11.47,0c0,7.33,1,9.71,3.58,9.71s3.68-2.41,3.68-9.71-1-9.58-3.62-9.58S479,129.76,479,137.12Z"/><path class="cls-1" d="M514.69,137.09c0,9.22-2.8,13-7.89,13S499,146.38,499,137.16s2.84-12.84,7.86-12.84S514.69,127.9,514.69,137.09Zm-11.47,0c0,7.33,1,9.71,3.58,9.71s3.68-2.41,3.68-9.71-1-9.58-3.62-9.58S503.22,129.76,503.22,137.12Z"/><path class="cls-1" d="M559.18,142.27c0,2.84.06,4.53,0.06,5.64a3.08,3.08,0,0,1-1,2.71c-0.78.62-1.86,0.85-5.31,0.85-1,0-1.08,0-1.27-1a9.43,9.43,0,0,0-.85-2.51c1.37,0.13,2.9.16,3.68,0.16,1,0,1.27-.29,1.27-1.11v-8.15h-19v6.94c0,3.55.07,5.38,0.07,5.57s0,0.36-.39.36h-2.84c-0.33,0-.36,0-0.36-0.36s0.07-2.22.07-6.39V131c0-4.17-.07-6.23-0.07-6.42,0-.36,0-0.39.36-0.39s1.34,0.07,4.43.07h16.53c3.1,0,4.2-.07,4.4-0.07s0.36,0,.36.39c0,0.2-.06,2.38-0.06,6.55v11.15Zm-14.83-6.62v-8.21h-7.66v8.21h7.66Zm3.39-8.21v8.21h8v-8.21h-8Z"/><path class="cls-1" d="M403,196.13c-4.14,6.68-6.16,13.2-6.75,22h-4.6a45.76,45.76,0,0,1,7.4-21.54H387.83v-3.32H403v2.9Z"/><path class="cls-1" d="M427.53,205.59c0,9.22-2.8,13-7.89,13s-7.79-3.68-7.79-12.91,2.83-12.84,7.85-12.84S427.53,196.39,427.53,205.59Zm-11.47,0c0,7.33,1,9.71,3.58,9.71s3.68-2.41,3.68-9.71-1-9.58-3.62-9.58S416.05,198.25,416.05,205.62Z"/><path class="cls-1" d="M441.41,218.1L439,223.18h-2l2.18-5.08h-2.38v-4.4h4.66v4.4Z"/><path class="cls-1" d="M466.34,205.59c0,9.22-2.8,13-7.89,13s-7.79-3.68-7.79-12.91,2.84-12.84,7.85-12.84S466.34,196.39,466.34,205.59Zm-11.47,0c0,7.33,1,9.71,3.59,9.71s3.68-2.41,3.68-9.71-1-9.58-3.62-9.58S454.86,198.25,454.86,205.62Z"/><path class="cls-1" d="M490.52,205.59c0,9.22-2.8,13-7.89,13s-7.79-3.68-7.79-12.91,2.84-12.84,7.86-12.84S490.52,196.39,490.52,205.59Zm-11.47,0c0,7.33,1,9.71,3.58,9.71s3.68-2.41,3.68-9.71-1-9.58-3.62-9.58S479,198.25,479,205.62Z"/><path class="cls-1" d="M514.69,205.59c0,9.22-2.8,13-7.89,13S499,214.87,499,205.65s2.84-12.84,7.86-12.84S514.69,196.39,514.69,205.59Zm-11.47,0c0,7.33,1,9.71,3.58,9.71s3.68-2.41,3.68-9.71-1-9.58-3.62-9.58S503.22,198.25,503.22,205.62Z"/><path class="cls-1" d="M559.18,210.77c0,2.84.06,4.53,0.06,5.64a3.08,3.08,0,0,1-1,2.71c-0.78.62-1.86,0.85-5.31,0.85-1,0-1.08,0-1.27-1a9.43,9.43,0,0,0-.85-2.51c1.37,0.13,2.9.16,3.68,0.16,1,0,1.27-.29,1.27-1.11v-8.15h-19v6.94c0,3.55.07,5.38,0.07,5.57s0,0.36-.39.36h-2.84c-0.33,0-.36,0-0.36-0.36s0.07-2.22.07-6.39V199.49c0-4.17-.07-6.23-0.07-6.42,0-.36,0-0.39.36-0.39s1.34,0.07,4.43.07h16.53c3.1,0,4.2-.07,4.4-0.07s0.36,0,.36.39c0,0.2-.06,2.38-0.06,6.55v11.15Zm-14.83-6.62v-8.21h-7.66v8.21h7.66Zm3.39-8.21v8.21h8v-8.21h-8Z"/><line class="cls-2" x1="81.44" y1="66.73" x2="344.86" y2="66.73"/><line class="cls-2" x1="81.44" y1="135.93" x2="344.86" y2="135.93"/><line class="cls-2" x1="81.44" y1="196.75" x2="344.86" y2="196.75"/><path class="cls-1" d="M19.91,8.36a4.26,4.26,0,0,0,1.93-.21A0.69,0.69,0,0,1,22.16,8a0.57,0.57,0,0,1,.39.19,10.69,10.69,0,0,1,1.67,1.86,1,1,0,0,1,.19.51,0.58,0.58,0,0,1-.3.49A6.86,6.86,0,0,0,23,12a82.89,82.89,0,0,1-6.24,6.22,24.76,24.76,0,0,1,2,2.32,0.52,0.52,0,0,1,.16.35,0.56,0.56,0,0,1-.21.37,17.11,17.11,0,0,1-1.51,1.37,0.62,0.62,0,0,1-.3.12,0.37,0.37,0,0,1-.28-0.21,34.78,34.78,0,0,0-7.45-7.22c0.46-.44,1.25-1.18,1.67-1.56a0.49,0.49,0,0,1,.26-0.12,0.7,0.7,0,0,1,.33.16,36.24,36.24,0,0,1,3.3,2.6,52,52,0,0,0,5.36-5.48l-9.77,0C9,10.93,7.28,11,6,11.1a0.38,0.38,0,0,1-.42-0.42,21.41,21.41,0,0,1-.28-2.48c1.58,0.16,3.46.16,5.06,0.16h9.52Z"/><path class="cls-1" d="M35,6.78a0.43,0.43,0,0,1,.33-0.19,0.62,0.62,0,0,1,.3.12A24.18,24.18,0,0,1,40.1,10a0.53,0.53,0,0,1,.21.32,0.5,0.5,0,0,1-.14.3c-0.35.46-1.11,1.39-1.44,1.74a0.45,0.45,0,0,1-.28.19,0.48,0.48,0,0,1-.3-0.19,24.57,24.57,0,0,0-4.73-3.78C33.93,8,34.6,7.24,35,6.78Zm2,12.23a34.41,34.41,0,0,0,6.68-4.32,34.83,34.83,0,0,0,6.36-6.31,10.37,10.37,0,0,0,.65,2.72,1.13,1.13,0,0,1,.12.44,1.14,1.14,0,0,1-.37.7,37.93,37.93,0,0,1-5.34,4.92,50,50,0,0,1-7,4.55,8,8,0,0,0-1.56,1.07,0.64,0.64,0,0,1-.42.23,0.6,0.6,0,0,1-.39-0.25,16.08,16.08,0,0,1-1.86-2.58A14,14,0,0,0,37.06,19Z"/><path class="cls-1" d="M61.85,7.31a0.43,0.43,0,0,1,.63.16,18.65,18.65,0,0,1,2.6,4.39,0.89,0.89,0,0,1,.09.3,0.43,0.43,0,0,1-.28.35,14.06,14.06,0,0,1-1.79.91c-0.35.14-.49,0-0.6-0.35a18.47,18.47,0,0,0-2.72-4.69A18,18,0,0,1,61.85,7.31ZM78.1,7.66a0.54,0.54,0,0,1,.26.46,0.57,0.57,0,0,1-.19.39,4.6,4.6,0,0,0-.9,1.53,35.85,35.85,0,0,1-4.5,7.89,25,25,0,0,1-6.13,5.75,1,1,0,0,1-.53.21,0.68,0.68,0,0,1-.39-0.16,7.13,7.13,0,0,0-2.23-1.09,26.65,26.65,0,0,0,6.89-6.13,27.89,27.89,0,0,0,4-7.19,10.48,10.48,0,0,0,.67-3A16.69,16.69,0,0,1,78.1,7.66ZM67.91,5.87a0.43,0.43,0,0,1,.6.19,19.27,19.27,0,0,1,2.27,4.29,0.45,0.45,0,0,1-.23.65,15.64,15.64,0,0,1-1.76.83c-0.37.14-.51,0.09-0.63-0.28a18.63,18.63,0,0,0-2.39-4.69C66.47,6.55,67.21,6.17,67.91,5.87Z"/><path class="cls-1" d="M91.3,15.88a18.5,18.5,0,0,0-3.41.28,0.51,0.51,0,0,1-.53-0.49A25.16,25.16,0,0,1,87,12.86a29.78,29.78,0,0,0,5,.28H99.5c1.76,0,3.55,0,5.34-.07,0.35,0,.42,0,0.42.33a17.1,17.1,0,0,1,0,2.18c0,0.28-.09.37-0.42,0.35-1.74,0-3.46,0-5.18,0H91.3Z"/><path class="cls-1" d="M128.44,8.36a4.26,4.26,0,0,0,1.93-.21A0.69,0.69,0,0,1,130.69,8a0.57,0.57,0,0,1,.39.19,10.69,10.69,0,0,1,1.67,1.86,1,1,0,0,1,.19.51,0.58,0.58,0,0,1-.3.49,6.86,6.86,0,0,0-1.11.88,82.89,82.89,0,0,1-6.24,6.22,24.76,24.76,0,0,1,2,2.32,0.52,0.52,0,0,1,.16.35,0.56,0.56,0,0,1-.21.37,17.11,17.11,0,0,1-1.51,1.37,0.62,0.62,0,0,1-.3.12,0.37,0.37,0,0,1-.28-0.21,34.78,34.78,0,0,0-7.45-7.22c0.46-.44,1.25-1.18,1.67-1.56a0.49,0.49,0,0,1,.26-0.12,0.7,0.7,0,0,1,.33.16,36.24,36.24,0,0,1,3.3,2.6,52,52,0,0,0,5.36-5.48l-9.77,0c-1.35,0-3.06,0-4.32.16a0.38,0.38,0,0,1-.42-0.42,21.41,21.41,0,0,1-.28-2.48c1.58,0.16,3.46.16,5.06,0.16h9.52Z"/><path class="cls-1" d="M143.57,6.78a0.43,0.43,0,0,1,.33-0.19,0.62,0.62,0,0,1,.3.12,24.18,24.18,0,0,1,4.43,3.3,0.53,0.53,0,0,1,.21.32,0.5,0.5,0,0,1-.14.3c-0.35.46-1.11,1.39-1.44,1.74a0.45,0.45,0,0,1-.28.19,0.48,0.48,0,0,1-.3-0.19,24.57,24.57,0,0,0-4.73-3.78C142.46,8,143.13,7.24,143.57,6.78Zm2,12.23a34.41,34.41,0,0,0,6.68-4.32,34.83,34.83,0,0,0,6.36-6.31,10.37,10.37,0,0,0,.65,2.72,1.13,1.13,0,0,1,.12.44,1.14,1.14,0,0,1-.37.7,37.93,37.93,0,0,1-5.34,4.92,50,50,0,0,1-7,4.55,8,8,0,0,0-1.56,1.07,0.64,0.64,0,0,1-.42.23,0.6,0.6,0,0,1-.39-0.25,16.08,16.08,0,0,1-1.86-2.58A14,14,0,0,0,145.59,19Z"/><path class="cls-1" d="M176.81,11.12a32.74,32.74,0,0,1,7.38,3.16,0.43,0.43,0,0,1,.26.6,13.61,13.61,0,0,1-1,2,0.39,0.39,0,0,1-.3.26,0.36,0.36,0,0,1-.26-0.12,25.71,25.71,0,0,0-6.1-3V19.2c0,1.51,0,2.88.09,4.55,0,0.28-.09.35-0.42,0.35a15.19,15.19,0,0,1-2.07,0c-0.33,0-.44-0.07-0.44-0.35C174,22,174,20.66,174,19.17V7.75a17.74,17.74,0,0,0-.23-3.43,17.11,17.11,0,0,1,2.9.37,0.43,0.43,0,0,1,.44.39,1.23,1.23,0,0,1-.19.53,6,6,0,0,0-.16,2.18v3.32Z"/><path class="cls-1" d="M201,19a38.22,38.22,0,0,0,5.92-2.92A28.69,28.69,0,0,0,213,11.33a10.44,10.44,0,0,0,.37,2.69,0.73,0.73,0,0,1-.23.93,37.5,37.5,0,0,1-5.8,4,51.76,51.76,0,0,1-5.69,2.88,5.38,5.38,0,0,0-1.3.74,0.67,0.67,0,0,1-.42.19,0.62,0.62,0,0,1-.39-0.19A7.16,7.16,0,0,1,198.16,21a0.57,0.57,0,0,1-.14-0.37,0.94,0.94,0,0,1,.12-0.39,4.59,4.59,0,0,0,.09-1.32l0-8.73a22,22,0,0,0-.25-4,23.45,23.45,0,0,1,3,.51,0.44,0.44,0,0,1,.37.44,1.78,1.78,0,0,1-.12.49,9.55,9.55,0,0,0-.26,2.88Z"/><path class="cls-1" d="M227,15.88a18.5,18.5,0,0,0-3.41.28,0.51,0.51,0,0,1-.53-0.49,25.16,25.16,0,0,1-.35-2.81,29.78,29.78,0,0,0,5,.28h7.47c1.76,0,3.55,0,5.34-.07,0.35,0,.42,0,0.42.33a17.1,17.1,0,0,1,0,2.18c0,0.28-.09.37-0.42,0.35-1.74,0-3.46,0-5.18,0H227Z"/><path class="cls-1" d="M254.24,20.73c-1.51,0-3,0-4.18.12-0.23,0-.3-0.14-0.35-0.44-0.09-.53-0.14-1.32-0.21-2.55,1.67,0.12,3.34.14,4.8,0.14h8.45c2.58,0,4.15-.07,5.22-0.12,0.3,0,.37.12,0.37,0.42a14.67,14.67,0,0,1,0,2c0,0.35,0,.49-0.35.49-1.11,0-3.5-.07-5.08-0.07h-8.68Zm2.14-9.86c-1.46,0-2.48,0-3.55.09-0.23,0-.3-0.14-0.33-0.49A15.69,15.69,0,0,1,252.36,8c1.46,0.12,2.55.14,3.95,0.14h4.6c1.79,0,3.18-.07,4.18-0.12,0.19,0,.26.12,0.26,0.39a15.35,15.35,0,0,1,0,2.07c0,0.33-.07.44-0.3,0.44-1.09,0-2.58-.07-4.06-0.07h-4.6Z"/><path class="cls-1" d="M279.23,6.78a0.43,0.43,0,0,1,.33-0.19,0.62,0.62,0,0,1,.3.12,24.18,24.18,0,0,1,4.43,3.3,0.53,0.53,0,0,1,.21.32,0.5,0.5,0,0,1-.14.3c-0.35.46-1.11,1.39-1.44,1.74a0.45,0.45,0,0,1-.28.19,0.48,0.48,0,0,1-.3-0.19,24.57,24.57,0,0,0-4.73-3.78C278.12,8,278.79,7.24,279.23,6.78Zm2,12.23a34.41,34.41,0,0,0,6.68-4.32,34.83,34.83,0,0,0,6.36-6.31,10.37,10.37,0,0,0,.65,2.72,1.13,1.13,0,0,1,.12.44,1.14,1.14,0,0,1-.37.7,37.93,37.93,0,0,1-5.34,4.92,50,50,0,0,1-7,4.55,8,8,0,0,0-1.56,1.07,0.64,0.64,0,0,1-.42.23,0.6,0.6,0,0,1-.39-0.25,16.08,16.08,0,0,1-1.86-2.58A14,14,0,0,0,281.25,19Z"/><path class="cls-1" d="M317,8.33a2.15,2.15,0,0,0,1.16-.28,0.47,0.47,0,0,1,.3-0.09,0.68,0.68,0,0,1,.37.14,10.71,10.71,0,0,1,1.58,1.25,0.75,0.75,0,0,1,.3.53,0.67,0.67,0,0,1-.28.49,2.79,2.79,0,0,0-.77,1A32,32,0,0,1,315,18.55,29.46,29.46,0,0,1,308,24.32a0.63,0.63,0,0,1-.37.12,0.82,0.82,0,0,1-.53-0.25,6.11,6.11,0,0,0-2.21-1.07,26.73,26.73,0,0,0,7.73-5.92,23.63,23.63,0,0,0,4.29-6.59l-5.62.16a32.33,32.33,0,0,1-4.39,4.76,0.72,0.72,0,0,1-.49.25,0.56,0.56,0,0,1-.35-0.14,6.28,6.28,0,0,0-2.23-1,27.53,27.53,0,0,0,6.24-6.89,9.9,9.9,0,0,0,1.37-3.13,11.37,11.37,0,0,1,2.72,1.23,0.48,0.48,0,0,1,.23.39,0.46,0.46,0,0,1-.25.39,2.51,2.51,0,0,0-.58.63l-0.77,1.16Zm2.88-3.13a0.24,0.24,0,0,1,.35,0,10.68,10.68,0,0,1,2.2,2.48,0.23,0.23,0,0,1-.07.37l-1,.72A0.24,0.24,0,0,1,321,8.75a11.5,11.5,0,0,0-2.34-2.69Zm2.07-1.51a0.24,0.24,0,0,1,.35,0,9.69,9.69,0,0,1,2.21,2.39,0.27,0.27,0,0,1-.07.42l-0.93.72a0.24,0.24,0,0,1-.39-0.07,11,11,0,0,0-2.32-2.67Z"/></svg>