<svg id="レイヤー_1" data-name="レイヤー 1" xmlns="http://www.w3.org/2000/svg" xmlns:xlink="http://www.w3.org/1999/xlink" viewBox="0 0 713.69 40.05"><defs><style>.cls-1{fill:#000300;}.cls-2{opacity:0.8;}.cls-3{clip-path:url(#clip-path);}.cls-4{fill:#eeeeef;}</style><clipPath id="clip-path"><rect class="cls-1" x="2.72" y="5.56" width="550.55" height="31.14"/></clipPath></defs><title>prices-DG</title><g class="cls-2"><rect class="cls-1" x="2.72" y="5.56" width="550.55" height="31.14"/><g class="cls-3"><rect class="cls-1" x="2.72" y="5.56" width="550.56" height="31.14"/></g></g><path class="cls-4" d="M223,22.84a0.1,0.1,0,0,1,0,.17,2.08,2.08,0,0,0-.35,1c0,1.08,1.21,1.61,3.37,1.61a16.38,16.38,0,0,0,3.77-.38c0.12,0,.16,0,0.18.09a6.47,6.47,0,0,1,.12.68c0,0.1,0,.14-0.17.17a19,19,0,0,1-4,.34c-2.56,0-4.09-.78-4.09-2.47a2.74,2.74,0,0,1,.54-1.55Zm3.08-4.92c0.95,0,2,0,2.91-.12a0.14,0.14,0,0,1,.18.12,3.82,3.82,0,0,1,0,.59,0.17,0.17,0,0,1-.18.2,8.71,8.71,0,0,0-3.41,1.5,0.3,0.3,0,0,1-.37,0,1.47,1.47,0,0,0-.54-0.26A17.06,17.06,0,0,1,227,18.66c-0.43,0-1,.05-1.42.05a13.72,13.72,0,0,1-2.67-.24c-0.08,0-.12-0.05-0.12-0.18s0-.45,0-0.67A15.66,15.66,0,0,0,226.08,17.92Zm3.38-1.68a0.1,0.1,0,0,1,.14,0,6.41,6.41,0,0,1,1.49,1.59,0.09,0.09,0,0,1,0,.14l-0.38.32a0.11,0.11,0,0,1-.17,0A5.69,5.69,0,0,0,229,16.58Zm1.1-.87a0.11,0.11,0,0,1,.15,0,7.58,7.58,0,0,1,1.5,1.54,0.1,0.1,0,0,1,0,.16l-0.36.32c-0.05.05-.1,0.05-0.16,0a6.28,6.28,0,0,0-1.51-1.64Z"/><path class="cls-4" d="M243.76,20.58a0.58,0.58,0,0,0,.33-0.05,0.37,0.37,0,0,1,.16-0.05,0.84,0.84,0,0,1,.42.25,0.49,0.49,0,0,1,.26.36,0.24,0.24,0,0,1-.16.2,1.51,1.51,0,0,0-.47.43,10.15,10.15,0,0,1-1.7,1.63,0.4,0.4,0,0,1-.18.12,0.53,0.53,0,0,1-.22-0.14,3,3,0,0,0-.57-0.32,8.58,8.58,0,0,0,1.87-1.63h-3.66v2.88c0,0.74,0,1.32,0,1.8a1,1,0,0,1-.34,1,3.21,3.21,0,0,1-1.88.25c-0.28,0-.28,0-0.34-0.28a2.78,2.78,0,0,0-.26-0.64,13.41,13.41,0,0,0,1.37.08c0.45,0,.59-0.11.59-0.51V21.37h-3.33c-1.25,0-1.68,0-1.75,0s-0.1,0-.1-0.11V20.66c0-.09,0-0.11.1-0.11s0.5,0,1.75,0h4.13a14.29,14.29,0,0,0-2.78-2c-0.1-.05-0.09-0.05,0-0.2l0.26-.3c0.09-.11.12-0.09,0.18-0.05a15.78,15.78,0,0,1,1.67,1,17.34,17.34,0,0,0,2.91-1.95H236.9c-1.33,0-1.78,0-1.85,0s-0.09,0-.09-0.11V16.44c0-.09,0-0.1.09-0.1s0.53,0,1.85,0h5.51a0.86,0.86,0,0,0,.32,0,0.63,0.63,0,0,1,.18-0.07,0.79,0.79,0,0,1,.41.29,0.67,0.67,0,0,1,.29.43,0.2,0.2,0,0,1-.18.18,1.5,1.5,0,0,0-.46.28,18.52,18.52,0,0,1-3.16,2.1c0.28,0.22.54,0.46,0.79,0.68,0.08,0.07.05,0.07-.07,0.18l-0.18.17h3.42Z"/><path class="cls-4" d="M250.57,19.91c0.15-.07.18-0.05,0.24,0a13.75,13.75,0,0,1,1.05,2.37c0,0.12,0,.16-0.14.21l-0.3.09c-0.16.05-.18,0-0.21-0.05-0.08-.25-0.16-0.51-0.25-0.76l-1.26.13v3.53c0,1.43,0,1.85,0,1.92s0,0.09-.11.09H249c-0.09,0-.11,0-0.11-0.09s0-.49,0-1.92V22l-1.45.11a1.17,1.17,0,0,0-.5.11,0.32,0.32,0,0,1-.14.05,0.18,0.18,0,0,1-.13-0.17,7.28,7.28,0,0,1-.13-0.72c0.28,0,.59,0,0.83,0h0.16c0.34-.45.67-0.91,1-1.37a17.65,17.65,0,0,0-1.93-2c-0.09-.08-0.08-0.11,0-0.24l0.22-.28c0.1-.12.13-0.12,0.21,0l0.5,0.49c0.33-.51.59-1,0.87-1.49a2.93,2.93,0,0,0,.34-0.89c0.24,0.09.53,0.22,0.74,0.33a0.21,0.21,0,0,1,.15.17,0.2,0.2,0,0,1-.12.14,0.73,0.73,0,0,0-.22.28c-0.47.79-.82,1.33-1.26,2,0.3,0.3.59,0.62,0.88,1,0.3-.49.59-1,0.85-1.41a5.3,5.3,0,0,0,.53-1.12,5.31,5.31,0,0,1,.72.37,0.17,0.17,0,0,1,.12.16,0.23,0.23,0,0,1-.13.17,2.05,2.05,0,0,0-.46.58c-0.72,1.16-1.47,2.25-2.2,3.21,0.72,0,1.54-.09,2.31-0.16a10.44,10.44,0,0,0-.51-1c-0.05-.09,0-0.12.13-0.18Zm-2.47,3.46a1,1,0,0,0-.09.38,11,11,0,0,1-.64,2.56c0,0.13-.07.18-0.12,0.18a0.47,0.47,0,0,1-.2-0.11,1.34,1.34,0,0,0-.45-0.2,9,9,0,0,0,.71-2.59,2.61,2.61,0,0,0,0-.63,6.11,6.11,0,0,1,.64.11,0.18,0.18,0,0,1,.18.13A0.34,0.34,0,0,1,248.09,23.37Zm2.76-.4c0.14,0,.17,0,0.22.08a14.74,14.74,0,0,1,.75,2.49c0,0.11,0,.14-0.16.2l-0.32.09c-0.18.05-.2,0-0.22-0.07a16.41,16.41,0,0,0-.68-2.53c0-.11,0-0.14.13-0.18Zm5.39-5.06c1,0,1.34,0,1.42,0a0.1,0.1,0,0,1,.12.12c0,0.33,0,.67,0,1a41.53,41.53,0,0,1-.42,6.38c-0.22,1.29-.62,2-1.64,2a10.17,10.17,0,0,1-1.22-.07c-0.26,0-.28,0-0.33-0.32a2.09,2.09,0,0,0-.21-0.59,9.84,9.84,0,0,0,1.71.18c0.57,0,.78-0.63.92-1.49a39.33,39.33,0,0,0,.37-6.46h-3.84a10.41,10.41,0,0,1-1.1,1.71,0.27,0.27,0,0,1-.18.14,0.33,0.33,0,0,1-.2-0.13,1.51,1.51,0,0,0-.42-0.32,9.22,9.22,0,0,0,1.91-3.35,4.94,4.94,0,0,0,.25-1.16,5.73,5.73,0,0,1,.82.21,0.21,0.21,0,0,1,.18.16,0.31,0.31,0,0,1-.12.24,1.72,1.72,0,0,0-.33.63c-0.12.37-.28,0.75-0.45,1.14h2.8Zm-3.08,2.81c0.12-.08.14-0.07,0.2,0a10.9,10.9,0,0,1,1.7,2.5c0.05,0.11,0,.13-0.1.21l-0.37.21c-0.17.11-.2,0.11-0.25,0a10.19,10.19,0,0,0-1.59-2.51c-0.07-.08-0.07-0.11.09-0.21Z"/><path class="cls-4" d="M262.5,16.9a0.22,0.22,0,0,1,.08.36,2.1,2.1,0,0,0-.21.66,25.94,25.94,0,0,0-.63,4.85,17.08,17.08,0,0,0,.09,2.28c0.28-.71.58-1.37,0.92-2.14a2,2,0,0,0,.3.54,0.24,0.24,0,0,1,0,.29,11.44,11.44,0,0,0-.79,2.08,2.3,2.3,0,0,0,0,.59,0.13,0.13,0,0,1-.07.17,3.49,3.49,0,0,1-.59.17c-0.09,0-.13,0-0.17-0.11a11.35,11.35,0,0,1-.5-3.84,29.67,29.67,0,0,1,.57-4.93,5.59,5.59,0,0,0,.07-1.3A3.31,3.31,0,0,1,262.5,16.9Zm5,3.08a24.38,24.38,0,0,1-2.93,0,0.12,0.12,0,0,1-.14-0.12,5.39,5.39,0,0,1-.05-0.7,22.23,22.23,0,0,0,3.1,0c0-.49,0-1,0-1.51a4.85,4.85,0,0,0-.13-1.17,4.42,4.42,0,0,1,1,.18,0.19,0.19,0,0,1,.15.16,0.36,0.36,0,0,1-.05.18,1.83,1.83,0,0,0-.11.63c0,0.46,0,.92,0,1.46,0.68-.07,1.39-0.17,2.08-0.3,0.11,0,.12,0,0.13.09a3.38,3.38,0,0,1,.05.53,0.14,0.14,0,0,1-.09.16,16.63,16.63,0,0,1-2.17.32c0,1.54.05,2.79,0.12,4a9.4,9.4,0,0,1,2.31,1.36c0.07,0.05.07,0.08,0,.17a2.45,2.45,0,0,1-.36.58,0.09,0.09,0,0,1-.16,0,8.51,8.51,0,0,0-1.84-1.21c-0.05,1.16-.71,1.78-2.2,1.78-1.24,0-2.05-.54-2.05-1.5a1.77,1.77,0,0,1,2-1.57,7.06,7.06,0,0,1,1.38.14C267.58,22.54,267.54,21.33,267.54,20Zm0.09,4.46a5.15,5.15,0,0,0-1.43-.22,1,1,0,0,0-1.22.84c0,0.47.47,0.75,1.26,0.75a1.15,1.15,0,0,0,1.39-1.12V24.43Z"/><path class="cls-4" d="M275.76,22.51a0.1,0.1,0,0,1,0,.17,2.08,2.08,0,0,0-.36,1c0,1.08,1.21,1.6,3.37,1.6a16.33,16.33,0,0,0,3.77-.38c0.12,0,.16,0,0.18.09a6.56,6.56,0,0,1,.12.68c0,0.11,0,.14-0.17.17a19,19,0,0,1-4,.34c-2.55,0-4.09-.78-4.09-2.47a2.73,2.73,0,0,1,.54-1.55Zm3.08-4.92c0.95,0,2,0,2.91-.12a0.14,0.14,0,0,1,.18.12,3.8,3.8,0,0,1,0,.59,0.17,0.17,0,0,1-.18.2,8.71,8.71,0,0,0-3.41,1.5,0.3,0.3,0,0,1-.37,0,1.48,1.48,0,0,0-.54-0.26,17.28,17.28,0,0,1,2.26-1.32c-0.43,0-1,.05-1.42.05a13.66,13.66,0,0,1-2.67-.24c-0.08,0-.12-0.05-0.12-0.18s0-.45,0-0.67A15.64,15.64,0,0,0,278.84,17.6Z"/><path class="cls-4" d="M289.91,17.21a3.41,3.41,0,0,0,0-1.17,3.88,3.88,0,0,1,1.07.22,0.19,0.19,0,0,1,.14.17,0.33,0.33,0,0,1-.08.18,1.15,1.15,0,0,0-.17.43c-0.09.51-.13,0.84-0.21,1.39a23.73,23.73,0,0,0,2.83-.55c0.12,0,.16,0,0.17.09a3.91,3.91,0,0,1,.05.57,0.13,0.13,0,0,1-.13.16c-1,.24-2,0.41-3.08.55-0.2,1.3-.42,2.45-0.72,3.67a5.45,5.45,0,0,1,4-1.8c1.86,0,2.79,1.1,2.79,2.35A2.72,2.72,0,0,1,295,26a9.76,9.76,0,0,1-3.33.92A3.48,3.48,0,0,1,291,27a0.22,0.22,0,0,1-.21-0.18,1.42,1.42,0,0,0-.45-0.58,10.22,10.22,0,0,0,3.88-.83,2,2,0,0,0,1.36-1.92c0-1-.7-1.58-1.91-1.58a4.82,4.82,0,0,0-3.72,1.84c-0.12.16-.22,0.3-0.3,0.43a0.22,0.22,0,0,1-.22.16,2.91,2.91,0,0,1-.58-0.18,0.22,0.22,0,0,1-.17-0.18,1,1,0,0,1,.05-0.22c0.07-.21.1-0.37,0.14-0.5,0.3-1.2.54-2.41,0.78-3.87-0.79.08-1.78,0.13-2.6,0.14a0.16,0.16,0,0,1-.18-0.14,6.73,6.73,0,0,1-.11-0.67,25.93,25.93,0,0,0,3-.13C289.82,18.13,289.85,17.79,289.91,17.21Z"/><path class="cls-4" d="M302.62,19.24a0.2,0.2,0,0,1,.08.33,1.71,1.71,0,0,0-.2.62,23.82,23.82,0,0,0-.38,3,6.25,6.25,0,0,1,4.59-2.37c1.79,0,2.83,1,2.83,2.51a3,3,0,0,1-2,2.8,9.74,9.74,0,0,1-3.2.87c-0.21,0-.28,0-0.34-0.12a2.11,2.11,0,0,0-.59-0.64,10.59,10.59,0,0,0,3.58-.82,2.35,2.35,0,0,0,1.58-2.17c0-.93-0.59-1.66-2-1.66a5.91,5.91,0,0,0-3.91,2.05,3.28,3.28,0,0,0-.58.78,0.14,0.14,0,0,1-.21.07,5.29,5.29,0,0,1-.54-0.24,0.16,0.16,0,0,1-.11-0.18,38.92,38.92,0,0,1,.38-4.13,7.85,7.85,0,0,0,.11-1.09A4.24,4.24,0,0,1,302.62,19.24Zm0.63-3.2a0.14,0.14,0,0,1,.18,0,7.82,7.82,0,0,1,2.41,1.5c0.08,0.07.08,0.09,0,.18a4,4,0,0,1-.43.57,0.12,0.12,0,0,1-.21,0,8.6,8.6,0,0,0-2.43-1.6A3.73,3.73,0,0,1,303.25,16Z"/><path class="cls-4" d="M316.67,17.53a4.53,4.53,0,0,0,.12-1.26,5.52,5.52,0,0,1,1,.36,0.19,0.19,0,0,1,.05.34,0.89,0.89,0,0,0-.22.43c-0.2.64-.37,1.26-0.57,1.91a12.09,12.09,0,0,1,1.28-.09c1.14,0,1.71.58,1.71,2.12a11,11,0,0,1-.72,4.25,1.57,1.57,0,0,1-1.5,1,3.46,3.46,0,0,1-1.34-.24,0.22,0.22,0,0,1-.16-0.22,2.35,2.35,0,0,0-.16-0.79,3.83,3.83,0,0,0,1.53.37,0.88,0.88,0,0,0,.88-0.68,9.94,9.94,0,0,0,.59-3.7c0-1-.2-1.39-0.91-1.39a9.26,9.26,0,0,0-1.42.14,35.75,35.75,0,0,1-2.68,6.22,0.16,0.16,0,0,1-.22.07,3.71,3.71,0,0,1-.53-0.35,0.15,0.15,0,0,1,0-.21,28,28,0,0,0,2.53-5.6c-0.54.08-1.08,0.17-1.74,0.29a1.91,1.91,0,0,0-.58.17,0.21,0.21,0,0,1-.34-0.07,5,5,0,0,1-.3-0.89,9,9,0,0,0,1.37-.07c0.72-.08,1.24-0.16,1.85-0.25C316.35,18.79,316.5,18.27,316.67,17.53Zm4.83,1.08a0.17,0.17,0,0,1,.2.05,7.5,7.5,0,0,1,2.12,3.18,0.18,0.18,0,0,1,0,.22,3,3,0,0,1-.54.36c-0.1.07-.2,0.05-0.22-0.08A7.31,7.31,0,0,0,320.9,19,5.85,5.85,0,0,1,321.5,18.61Z"/><path class="cls-4" d="M328.93,19.24a0.2,0.2,0,0,1,.08.33,1.71,1.71,0,0,0-.2.62,23.82,23.82,0,0,0-.38,3A6.25,6.25,0,0,1,333,20.83c1.79,0,2.83,1,2.83,2.51a3,3,0,0,1-2,2.8,9.74,9.74,0,0,1-3.2.87c-0.21,0-.28,0-0.34-0.12a2.11,2.11,0,0,0-.59-0.64,10.59,10.59,0,0,0,3.58-.82,2.35,2.35,0,0,0,1.58-2.17c0-.93-0.59-1.66-2-1.66A5.91,5.91,0,0,0,329,23.66a3.28,3.28,0,0,0-.58.78,0.14,0.14,0,0,1-.21.07,5.29,5.29,0,0,1-.54-0.24,0.16,0.16,0,0,1-.11-0.18A38.92,38.92,0,0,1,328,20a7.85,7.85,0,0,0,.11-1.09A4.24,4.24,0,0,1,328.93,19.24Zm0.63-3.2a0.14,0.14,0,0,1,.18,0,7.82,7.82,0,0,1,2.41,1.5c0.08,0.07.08,0.09,0,.18a4,4,0,0,1-.43.57,0.12,0.12,0,0,1-.21,0,8.6,8.6,0,0,0-2.43-1.6A3.73,3.73,0,0,1,329.56,16Z"/></svg>