<svg id="レイヤー_1" data-name="レイヤー 1" xmlns="http://www.w3.org/2000/svg" viewBox="0 0 111.68 168.99"><defs><style>.cls-1{fill:#d3dc00;}.cls-2{fill:#f9f9f9;}.cls-3{fill:none;stroke:#f9f9f9;stroke-miterlimit:10;stroke-width:0.99px;}</style></defs><title>toplogo</title><path class="cls-1" d="M46.79,93.38c0,13.44-10.48,24.44-23.28,24.44H3.57V0H23.51c12.8,0,23.28,11,23.28,24.44V93.38ZM38.15,24.44c0-8.55-6.49-15.36-14.64-15.36H12.21v99.65h11.3c8.15,0,14.64-6.81,14.64-15.36"/><path class="cls-1" d="M86.5,57.48H108v60l-7.26-1.52v-3.88a21.31,21.31,0,0,1-14.21,5.4A21.66,21.66,0,0,1,65,95.56V22.26a21.48,21.48,0,1,1,43,0V35.74l-8.59,1V22.26a12.89,12.89,0,1,0-25.77,0v73.3a12.89,12.89,0,1,0,25.77,0V66.24H86.5V57.48Z"/><rect class="cls-1" x="0.26" y="133.57" width="111.29" height="11.1"/><path class="cls-2" d="M15.84,160.46v1.38a3.22,3.22,0,0,0-2.08-.84,2.65,2.65,0,0,0-2,.85,2.87,2.87,0,0,0-.82,2.07,2.81,2.81,0,0,0,.82,2,2.7,2.7,0,0,0,2,.83,2.46,2.46,0,0,0,1-.2,3.05,3.05,0,0,0,.5-0.27,5.94,5.94,0,0,0,.54-0.41v1.4a4.2,4.2,0,0,1-2.09.56,3.86,3.86,0,0,1-2.82-1.15,3.82,3.82,0,0,1-1.16-2.8,4,4,0,0,1,1-2.62,3.87,3.87,0,0,1,3.1-1.41A3.93,3.93,0,0,1,15.84,160.46Z"/><path class="cls-2" d="M20.21,160v6.61h2.26v1.09H19V160h1.16Z"/><path class="cls-2" d="M26.46,160v7.7H25.3V160h1.16Z"/><path class="cls-2" d="M35.73,160.46v1.38a3.22,3.22,0,0,0-2.08-.84,2.65,2.65,0,0,0-2,.85,2.87,2.87,0,0,0-.82,2.07,2.81,2.81,0,0,0,.82,2,2.7,2.7,0,0,0,2,.83,2.46,2.46,0,0,0,1-.2,3.05,3.05,0,0,0,.5-0.27,5.94,5.94,0,0,0,.54-0.41v1.4a4.2,4.2,0,0,1-2.09.56,3.86,3.86,0,0,1-2.82-1.15,3.82,3.82,0,0,1-1.16-2.8,4,4,0,0,1,1-2.62,3.87,3.87,0,0,1,3.1-1.41A3.93,3.93,0,0,1,35.73,160.46Z"/><path class="cls-2" d="M40.1,163.12l3-3.07h1.55l-3.48,3.49,3.5,4.21H43.11l-2.77-3.43-0.24.24v3.19H38.94V160H40.1v3.07Z"/><path class="cls-2" d="M54.44,161.14v6.61H53.28v-6.61H51.51V160h4.7v1.09H54.44Z"/><path class="cls-2" d="M58.58,163.86a3.77,3.77,0,0,1,1.19-2.79,3.92,3.92,0,0,1,2.85-1.17,4,4,0,0,1,4,4,3.79,3.79,0,0,1-1.19,2.82,4.07,4.07,0,0,1-5.55.13A3.78,3.78,0,0,1,58.58,163.86Zm1.17,0a2.78,2.78,0,0,0,.86,2.1,2.84,2.84,0,0,0,4,0,3,3,0,0,0,0-4.13,2.87,2.87,0,0,0-4.05,0A2.78,2.78,0,0,0,59.75,163.88Z"/><path class="cls-2" d="M78.94,161.14H75.85V163h3v1.09h-3v2.57h3.09v1.09H74.69V160h4.25v1.09Z"/><path class="cls-2" d="M82.19,167.74v-8.22l5.61,5.87V160H89v8.17l-5.61-5.86v5.39H82.19Z"/><path class="cls-2" d="M94.66,161.14v6.61H93.5v-6.61H91.73V160h4.7v1.09H94.66Z"/><path class="cls-2" d="M103.44,161.14h-3.09V163h3v1.09h-3v2.57h3.09v1.09H99.19V160h4.25v1.09Z"/><path class="cls-2" d="M109.3,164.46l2.38,3.28h-1.42l-2.2-3.15h-0.21v3.15h-1.16V160h1.36a3.4,3.4,0,0,1,2.2.57,2.11,2.11,0,0,1,.75,1.69,2.19,2.19,0,0,1-.47,1.41A2.09,2.09,0,0,1,109.3,164.46Zm-1.45-.88h0.37q1.65,0,1.65-1.26t-1.61-1.18h-0.41v2.44Z"/><path class="cls-3" d="M3.17,168.5h0A2.68,2.68,0,0,1,.5,165.82V161.6a2.68,2.68,0,1,1,5.35,0v4.22A2.68,2.68,0,0,1,3.17,168.5Z"/><line class="cls-3" x1="3.22" y1="161.11" x2="3.22" y2="159.08"/></svg>