<svg id="レイヤー_3" data-name="レイヤー 3" xmlns="http://www.w3.org/2000/svg" viewBox="0 0 111.57 166.58"><defs><style>.cls-1{fill:#d3dc00;}</style></defs><title>logo</title><path class="cls-1" d="M46.53,93.38c0,13.44-10.48,24.44-23.28,24.44H3.31V0H23.25C36,0,46.53,11,46.53,24.44V93.38ZM37.89,24.44c0-8.55-6.49-15.36-14.64-15.36H12v99.65h11.3c8.15,0,14.64-6.81,14.64-15.36"/><path class="cls-1" d="M86.24,57.48h21.47v60l-7.26-1.52v-3.88a21.31,21.31,0,0,1-14.21,5.4,21.66,21.66,0,0,1-21.48-21.9V22.26a21.48,21.48,0,1,1,43,0V35.74l-8.59,1V22.26a12.89,12.89,0,1,0-25.77,0v73.3a12.89,12.89,0,1,0,25.77,0V66.24H86.24V57.48Z"/><rect class="cls-1" y="133.57" width="111.29" height="11.1"/><path class="cls-1" d="M1.2,153.83H3.54a2.7,2.7,0,0,1,2.06.75,2.93,2.93,0,0,1,.71,2.1v5.15a3.07,3.07,0,0,1-.75,2.28,3,3,0,0,1-2.16.73H1.2v-11Zm1.58,9.52H3.5A1.17,1.17,0,0,0,4.45,163a1.61,1.61,0,0,0,.28-1v-5.3a1.67,1.67,0,0,0-.26-1,1.12,1.12,0,0,0-1-.36H2.78v8Z"/><path class="cls-1" d="M10.4,153.83h4.7v1.48H12v3.23H14.7V160H12v3.23H15.1v1.58H10.4v-11Z"/><path class="cls-1" d="M18.74,153.83h4.7v1.48H20.31v3.34H23v1.48H20.31v4.7H18.74v-11Z"/><path class="cls-1" d="M27.12,153.83h1.58v11H27.12v-11Z"/><path class="cls-1" d="M32.78,153.83h1.52l2.38,6.63h0v-6.63h1.58v11H36.8l-2.41-6.62h0v6.62H32.78v-11Z"/><path class="cls-1" d="M42.36,153.83h1.58v11H42.36v-11Z"/><path class="cls-1" d="M49.12,155.32H47.29v-1.48h5.23v1.48H50.7v9.52H49.12v-9.52Z"/><path class="cls-1" d="M55.88,153.83h1.58v11H55.88v-11Z"/><path class="cls-1" d="M61.5,156.43a2.81,2.81,0,0,1,.23-1.18,2.46,2.46,0,0,1,.61-0.84,2.64,2.64,0,0,1,.85-0.5,2.75,2.75,0,0,1,1.9,0,2.65,2.65,0,0,1,.85.5,2.46,2.46,0,0,1,.61.84,2.81,2.81,0,0,1,.23,1.18v5.81a2.79,2.79,0,0,1-.23,1.18,2.46,2.46,0,0,1-.61.83,2.62,2.62,0,0,1-.85.5,2.75,2.75,0,0,1-1.9,0,2.62,2.62,0,0,1-.85-0.5,2.46,2.46,0,0,1-.61-0.83,2.79,2.79,0,0,1-.23-1.18v-5.81Zm1.58,5.81a1,1,0,0,0,.32.84,1.17,1.17,0,0,0,1.5,0,1,1,0,0,0,.32-0.84v-5.81a1.05,1.05,0,0,0-.32-0.84,1.17,1.17,0,0,0-1.5,0,1,1,0,0,0-.32.84v5.81Z"/><path class="cls-1" d="M70.74,153.83h1.52l2.38,6.63h0v-6.63h1.58v11H74.76l-2.41-6.62h0v6.62H70.74v-11Z"/><path class="cls-1" d="M85.67,156.43a2.81,2.81,0,0,1,.23-1.18,2.46,2.46,0,0,1,.61-0.84,2.64,2.64,0,0,1,.85-0.5,2.75,2.75,0,0,1,1.9,0,2.65,2.65,0,0,1,.85.5,2.46,2.46,0,0,1,.61.84,2.81,2.81,0,0,1,.23,1.18V157H89.38v-0.56a1.05,1.05,0,0,0-.32-0.84,1.17,1.17,0,0,0-1.5,0,1,1,0,0,0-.32.84v5.81a1,1,0,0,0,.32.84,1.17,1.17,0,0,0,1.5,0,1,1,0,0,0,.32-0.84v-2.07H88.13v-1.39H91v3.46a2.79,2.79,0,0,1-.23,1.18,2.46,2.46,0,0,1-.61.83,2.62,2.62,0,0,1-.85.5,2.75,2.75,0,0,1-1.9,0,2.62,2.62,0,0,1-.85-0.5,2.46,2.46,0,0,1-.61-0.83,2.79,2.79,0,0,1-.23-1.18v-5.81Z"/><path class="cls-1" d="M96.43,160.19l-2.16-6.35h1.67l1.27,4.38h0l1.27-4.38h1.67L98,160.19v4.65H96.43v-4.65Z"/><path class="cls-1" d="M103.58,153.83h1.52l2,5.83h0l2-5.83h1.53v11h-1.58v-6.7h0l-1.56,4.73h-0.79l-1.55-4.73h0v6.7h-1.58v-11Z"/></svg>