<svg id="レイヤー_1" data-name="レイヤー 1" xmlns="http://www.w3.org/2000/svg" viewBox="0 0 554.53 553.06"><defs><style>.cls-1{fill:#231815;}.cls-2{fill:none;stroke:#231815;stroke-miterlimit:10;}</style></defs><title>prices</title><path class="cls-1" d="M3.48,246.56L5,245.4l0.44,0.78-1.85.73,1.85,0.76L5,248.44l-1.56-1.2,0.26,2H2.82l0.26-1.94-1.55,1.18-0.46-.77,1.85-.76-1.85-.73,0.46-.79,1.55,1.19-0.26-1.93H3.74Z"/><path class="cls-1" d="M15.22,245.52H12.45v8H11.4v-8H8.65v-0.89h6.57v0.89Z"/><path class="cls-1" d="M19.8,248.44a2.79,2.79,0,0,1,2.11-1.24,1.62,1.62,0,0,1,1.7,1.76v4.51h-1v-4.16a1,1,0,0,0-1-1.25,2.47,2.47,0,0,0-1.79,1.21v4.2h-1v-9h1v4Z"/><path class="cls-1" d="M28.38,250.55c0,1.5.71,2.34,1.8,2.34a1.47,1.47,0,0,0,1.56-1.25l0.9,0.3a2.37,2.37,0,0,1-2.47,1.68c-1.66,0-2.73-1.2-2.73-3.19s1.13-3.23,2.65-3.23,2.59,1.16,2.59,3.13v0.22H28.38Zm3.35-.7c-0.1-1.24-.7-1.91-1.63-1.91a1.78,1.78,0,0,0-1.69,1.91h3.32Z"/><path class="cls-1" d="M42.89,248.3a2.16,2.16,0,0,1,1.81-1.09c1.35,0,2.36,1.14,2.36,3.18s-1.08,3.23-2.42,3.23a1.84,1.84,0,0,1-1.72-1.07v3.09H42v-8.3h0.94v1Zm0,3.38a1.72,1.72,0,0,0,1.51,1.14c0.91,0,1.63-.82,1.63-2.41S45.39,248,44.51,248a1.81,1.81,0,0,0-1.58,1.18v2.51Z"/><path class="cls-1" d="M51.48,250.55c0,1.5.71,2.34,1.8,2.34a1.47,1.47,0,0,0,1.56-1.25l0.9,0.3a2.37,2.37,0,0,1-2.47,1.68c-1.66,0-2.73-1.2-2.73-3.19s1.13-3.23,2.65-3.23,2.59,1.16,2.59,3.13v0.22H51.48Zm3.35-.7c-0.1-1.24-.7-1.91-1.63-1.91a1.78,1.78,0,0,0-1.69,1.91h3.32Z"/><path class="cls-1" d="M62.46,248.16a2.18,2.18,0,0,0-1.88,1.8v3.51h-1v-6.13h0.94v1.56a2.21,2.21,0,0,1,2-1.69Z"/><path class="cls-1" d="M67.11,246.17h-1.2V245h1.2v1.19ZM67,253.47H66v-6.13h1v6.13Z"/><path class="cls-1" d="M76.12,250.4c0,2-1.08,3.23-2.64,3.23s-2.63-1.22-2.63-3.19,1.08-3.23,2.64-3.23S76.12,248.42,76.12,250.4Zm-4.27,0c0,1.58.61,2.46,1.63,2.46s1.64-.86,1.64-2.46S74.52,248,73.5,248,71.85,248.84,71.85,250.41Z"/><path class="cls-1" d="M84.72,253.47H83.77v-0.9A2,2,0,0,1,82,253.63c-1.34,0-2.39-1.2-2.39-3.23s1-3.2,2.36-3.2a2.1,2.1,0,0,1,1.79,1v-3.77h1v9Zm-1-4.28A1.77,1.77,0,0,0,82.19,248c-0.9,0-1.6.8-1.6,2.4s0.73,2.41,1.64,2.41a1.75,1.75,0,0,0,1.51-1.14v-2.49Z"/><path class="cls-1" d="M99.26,250.4c0,2-1.08,3.23-2.64,3.23S94,252.41,94,250.44s1.08-3.23,2.64-3.23S99.26,248.42,99.26,250.4Zm-4.27,0c0,1.58.61,2.46,1.63,2.46s1.64-.86,1.64-2.46S97.65,248,96.63,248,95,248.84,95,250.41Z"/><path class="cls-1" d="M105.84,245.27a4.54,4.54,0,0,0-.53,0,0.79,0.79,0,0,0-.89,1v1.16h1.37v0.76h-1.37v5.37h-1V248.1h-1.08v-0.76h1.08v-1.2a1.49,1.49,0,0,1,1.68-1.67,7,7,0,0,1,.82.06Z"/><path class="cls-1" d="M117.14,253.47h-1.21l-2-6.13H115L116,250.7c0.19,0.7.34,1.28,0.52,2h0.18c0.2-.7.34-1.31,0.54-2l0.94-3.32h1Z"/><path class="cls-1" d="M122.43,248.81a2.31,2.31,0,0,1,2.43-1.61c1.48,0,2.22.65,2.22,2v2.24a15.2,15.2,0,0,0,.12,2h-0.89a7.36,7.36,0,0,1-.13-1,2.45,2.45,0,0,1-2.1,1.12,1.71,1.71,0,0,1-1.88-1.79c0-1,.6-1.76,2-2a16.81,16.81,0,0,1,1.92-.19V249.3a1.13,1.13,0,0,0-1.3-1.37,1.45,1.45,0,0,0-1.49,1.16Zm3.71,1.49a9.25,9.25,0,0,0-1.7.19,1.3,1.3,0,0,0-1.28,1.3,1,1,0,0,0,1.18,1.1,2.18,2.18,0,0,0,1.81-1.21v-1.38Z"/><path class="cls-1" d="M132.25,253.47h-1v-9h1v9Z"/><path class="cls-1" d="M137.58,246.17h-1.2V245h1.2v1.19Zm-0.11,7.3h-1v-6.13h1v6.13Z"/><path class="cls-1" d="M146.44,253.47H145.5v-0.9a2,2,0,0,1-1.79,1.06c-1.34,0-2.39-1.2-2.39-3.23s1-3.2,2.36-3.2a2.1,2.1,0,0,1,1.79,1v-3.77h1v9Zm-1-4.28a1.77,1.77,0,0,0-1.56-1.18c-0.9,0-1.6.8-1.6,2.4s0.73,2.41,1.64,2.41a1.75,1.75,0,0,0,1.51-1.14v-2.49Z"/><path class="cls-1" d="M151.75,246.17h-1.2V245h1.2v1.19Zm-0.11,7.3h-1v-6.13h1v6.13Z"/><path class="cls-1" d="M157.12,247.34h1.46v0.76h-1.46v3.78a0.82,0.82,0,0,0,.85,1,3.39,3.39,0,0,0,.77-0.07l0,0.76a6.3,6.3,0,0,1-.95.06,1.39,1.39,0,0,1-1.58-1.56v-4h-1v-0.76h1v-1.91l1-.22v2.12Z"/><path class="cls-1" d="M164.29,253.76c-0.48,1.38-1.18,1.88-2.27,1.88a3.6,3.6,0,0,1-.59,0l-0.06-.8a3.23,3.23,0,0,0,.64.07,1.42,1.42,0,0,0,1.39-1.22l0.1-.29-2.12-6h1l1.08,3.48c0.16,0.52.28,1,.42,1.5H164c0.14-.52.28-1,0.43-1.52l1.06-3.45h1Z"/><path class="cls-1" d="M176.55,246.17h-1.2V245h1.2v1.19Zm-0.11,7.3h-1v-6.13h1v6.13Z"/><path class="cls-1" d="M183.88,249a1.32,1.32,0,0,0-1.33-1.06,1,1,0,0,0-1.25.88c0,0.59.26,0.83,1.26,1.07l0.49,0.12c1.4,0.34,1.92.8,1.92,1.81s-0.77,1.82-2.36,1.82a2.34,2.34,0,0,1-2.43-1.49l0.95-.34a1.48,1.48,0,0,0,1.51,1.1c1,0,1.39-.47,1.39-1s-0.23-.85-1.34-1.14l-0.49-.11c-1.38-.35-1.8-0.83-1.8-1.77s0.72-1.67,2.17-1.67a2.18,2.18,0,0,1,2.25,1.48Z"/><path class="cls-1" d="M198,246.29a1.16,1.16,0,0,0-1.15-.85c-1.25,0-1.88,1.24-1.93,3.66a2.29,2.29,0,0,1,2-1.22c1.31,0,2.24,1.07,2.24,2.76,0,1.86-1.06,3-2.51,3s-2.66-1.28-2.66-4.1c0-3.43,1.13-4.89,2.91-4.89a2.15,2.15,0,0,1,2.07,1.24Zm-1.38,6.54c0.92,0,1.5-.76,1.5-2.17,0-1.25-.54-2-1.43-2a2.06,2.06,0,0,0-1.75,1.31C194.91,252,195.61,252.83,196.59,252.83Z"/><path class="cls-1" d="M207.79,249.08c0,3.18-.94,4.55-2.64,4.55s-2.63-1.34-2.63-4.52,1-4.47,2.65-4.47S207.79,245.92,207.79,249.08Zm-4.25,0c0,2.69.53,3.71,1.61,3.71s1.62-1,1.62-3.71-0.52-3.63-1.6-3.63S203.54,246.4,203.54,249.1Z"/><path class="cls-1" d="M221.8,253.47h-0.95v-0.9a2,2,0,0,1-1.79,1.06c-1.34,0-2.39-1.2-2.39-3.23s1-3.2,2.36-3.2a2.1,2.1,0,0,1,1.79,1v-3.77h1v9Zm-1-4.28a1.77,1.77,0,0,0-1.56-1.18c-0.9,0-1.6.8-1.6,2.4s0.73,2.41,1.64,2.41a1.75,1.75,0,0,0,1.51-1.14v-2.49Z"/><path class="cls-1" d="M225.85,248.81a2.31,2.31,0,0,1,2.43-1.61c1.48,0,2.22.65,2.22,2v2.24a15.2,15.2,0,0,0,.12,2h-0.89a7.36,7.36,0,0,1-.13-1,2.45,2.45,0,0,1-2.1,1.12,1.71,1.71,0,0,1-1.88-1.79c0-1,.6-1.76,2-2a16.81,16.81,0,0,1,1.92-.19V249.3a1.13,1.13,0,0,0-1.3-1.37,1.45,1.45,0,0,0-1.49,1.16Zm3.71,1.49a9.25,9.25,0,0,0-1.7.19,1.3,1.3,0,0,0-1.28,1.3,1,1,0,0,0,1.18,1.1,2.18,2.18,0,0,0,1.81-1.21v-1.38Z"/><path class="cls-1" d="M236.86,253.76c-0.48,1.38-1.18,1.88-2.27,1.88a3.6,3.6,0,0,1-.59,0l-0.06-.8a3.23,3.23,0,0,0,.64.07,1.42,1.42,0,0,0,1.39-1.22l0.1-.29-2.12-6h1l1.08,3.48c0.16,0.52.28,1,.42,1.5h0.12c0.14-.52.28-1,0.43-1.52l1.06-3.45h1Z"/><path class="cls-1" d="M245.79,249a1.32,1.32,0,0,0-1.33-1.06,1,1,0,0,0-1.25.88c0,0.59.26,0.83,1.26,1.07L245,250c1.4,0.34,1.92.8,1.92,1.81s-0.77,1.82-2.36,1.82a2.34,2.34,0,0,1-2.43-1.49l0.95-.34a1.48,1.48,0,0,0,1.51,1.1c1,0,1.39-.47,1.39-1s-0.23-.85-1.34-1.14l-0.49-.11c-1.38-.35-1.8-0.83-1.8-1.77s0.72-1.67,2.17-1.67a2.18,2.18,0,0,1,2.25,1.48Z"/><path class="cls-1" d="M256,248.81a2.31,2.31,0,0,1,2.43-1.61c1.48,0,2.22.65,2.22,2v2.24a15.2,15.2,0,0,0,.12,2h-0.89a7.36,7.36,0,0,1-.13-1,2.45,2.45,0,0,1-2.1,1.12,1.71,1.71,0,0,1-1.88-1.79c0-1,.6-1.76,2-2a16.81,16.81,0,0,1,1.92-.19V249.3a1.13,1.13,0,0,0-1.3-1.37,1.45,1.45,0,0,0-1.49,1.16Zm3.71,1.49a9.25,9.25,0,0,0-1.7.19,1.3,1.3,0,0,0-1.28,1.3,1,1,0,0,0,1.18,1.1,2.18,2.18,0,0,0,1.81-1.21v-1.38Z"/><path class="cls-1" d="M267.55,245.27a4.54,4.54,0,0,0-.53,0,0.79,0.79,0,0,0-.89,1v1.16h1.37v0.76h-1.37v5.37h-1V248.1h-1.08v-0.76h1.08v-1.2a1.49,1.49,0,0,1,1.68-1.67,7,7,0,0,1,.82.06Z"/><path class="cls-1" d="M272.21,247.34h1.46v0.76h-1.46v3.78a0.82,0.82,0,0,0,.85,1,3.39,3.39,0,0,0,.77-0.07l0,0.76a6.3,6.3,0,0,1-.95.06,1.39,1.39,0,0,1-1.58-1.56v-4h-1v-0.76h1v-1.91l1-.22v2.12Z"/><path class="cls-1" d="M277.77,250.55c0,1.5.71,2.34,1.8,2.34a1.47,1.47,0,0,0,1.56-1.25l0.9,0.3a2.37,2.37,0,0,1-2.47,1.68c-1.65,0-2.73-1.2-2.73-3.19s1.13-3.23,2.65-3.23,2.59,1.16,2.59,3.13v0.22h-4.29Zm3.35-.7c-0.1-1.24-.7-1.91-1.63-1.91a1.78,1.78,0,0,0-1.69,1.91h3.32Z"/><path class="cls-1" d="M288.75,248.16a2.18,2.18,0,0,0-1.88,1.8v3.51h-1v-6.13h0.94v1.56a2.21,2.21,0,0,1,2-1.69Z"/><path class="cls-1" d="M299,247.34h1.46v0.76H299v3.78a0.82,0.82,0,0,0,.85,1,3.39,3.39,0,0,0,.77-0.07l0,0.76a6.3,6.3,0,0,1-.95.06,1.39,1.39,0,0,1-1.58-1.56v-4h-1v-0.76h1v-1.91l1-.22v2.12Z"/><path class="cls-1" d="M305,248.44a2.79,2.79,0,0,1,2.11-1.24,1.62,1.62,0,0,1,1.7,1.76v4.51h-1v-4.16a1,1,0,0,0-1-1.25,2.47,2.47,0,0,0-1.79,1.21v4.2h-1v-9h1v4Z"/><path class="cls-1" d="M313.56,250.55c0,1.5.71,2.34,1.8,2.34a1.47,1.47,0,0,0,1.56-1.25l0.9,0.3a2.37,2.37,0,0,1-2.47,1.68c-1.66,0-2.73-1.2-2.73-3.19s1.13-3.23,2.65-3.23,2.59,1.16,2.59,3.13v0.22h-4.29Zm3.35-.7c-0.1-1.24-.7-1.91-1.63-1.91a1.78,1.78,0,0,0-1.69,1.91h3.32Z"/><path class="cls-1" d="M329.85,245.27a4.55,4.55,0,0,0-.53,0,0.79,0.79,0,0,0-.89,1v1.16h1.37v0.76h-1.37v5.37h-1V248.1H326.4v-0.76h1.08v-1.2a1.49,1.49,0,0,1,1.68-1.67,7.05,7.05,0,0,1,.82.06Zm2.48,0.89h-1.2V245h1.2v1.19Zm-0.11,7.32h-1v-6.13h1v6.13Z"/><path class="cls-1" d="M339.32,248.16a2.18,2.18,0,0,0-1.88,1.8v3.51h-1v-6.13h0.94v1.56a2.21,2.21,0,0,1,2-1.69Z"/><path class="cls-1" d="M346.09,249a1.32,1.32,0,0,0-1.33-1.06,1,1,0,0,0-1.25.88c0,0.59.26,0.83,1.26,1.07l0.49,0.12c1.4,0.34,1.92.8,1.92,1.81s-0.77,1.82-2.36,1.82a2.34,2.34,0,0,1-2.43-1.49l0.95-.34a1.48,1.48,0,0,0,1.51,1.1c1,0,1.39-.47,1.39-1s-0.23-.85-1.34-1.14l-0.49-.11c-1.38-.35-1.8-0.83-1.8-1.77s0.72-1.67,2.17-1.67a2.18,2.18,0,0,1,2.25,1.48Z"/><path class="cls-1" d="M352.24,247.34h1.46v0.76h-1.46v3.78a0.82,0.82,0,0,0,.85,1,3.39,3.39,0,0,0,.77-0.07l0,0.76a6.3,6.3,0,0,1-.95.06,1.39,1.39,0,0,1-1.58-1.56v-4h-1v-0.76h1v-1.91l1-.22v2.12Z"/><path class="cls-1" d="M365.89,249a1.32,1.32,0,0,0-1.33-1.06,1,1,0,0,0-1.25.88c0,0.59.26,0.83,1.26,1.07l0.49,0.12c1.4,0.34,1.92.8,1.92,1.81s-0.77,1.82-2.36,1.82a2.34,2.34,0,0,1-2.43-1.49l0.95-.34a1.48,1.48,0,0,0,1.51,1.1c1,0,1.39-.47,1.39-1s-0.23-.85-1.34-1.14l-0.49-.11c-1.38-.35-1.8-0.83-1.8-1.77s0.72-1.67,2.17-1.67a2.18,2.18,0,0,1,2.25,1.48Z"/><path class="cls-1" d="M371.36,250.55c0,1.5.71,2.34,1.8,2.34a1.47,1.47,0,0,0,1.56-1.25l0.9,0.3a2.37,2.37,0,0,1-2.47,1.68c-1.66,0-2.73-1.2-2.73-3.19s1.13-3.23,2.65-3.23,2.59,1.16,2.59,3.13v0.22h-4.29Zm3.35-.7c-0.1-1.24-.7-1.91-1.63-1.91a1.78,1.78,0,0,0-1.69,1.91h3.32Z"/><path class="cls-1" d="M382.69,249a1.32,1.32,0,0,0-1.33-1.06,1,1,0,0,0-1.25.88c0,0.59.26,0.83,1.26,1.07l0.49,0.12c1.4,0.34,1.92.8,1.92,1.81s-0.77,1.82-2.36,1.82a2.34,2.34,0,0,1-2.43-1.49l0.95-.34a1.48,1.48,0,0,0,1.51,1.1c1,0,1.39-.47,1.39-1s-0.23-.85-1.34-1.14l-0.49-.11c-1.38-.35-1.8-0.83-1.8-1.77s0.72-1.67,2.17-1.67a2.18,2.18,0,0,1,2.25,1.48Z"/><path class="cls-1" d="M390.8,249a1.32,1.32,0,0,0-1.33-1.06,1,1,0,0,0-1.25.88c0,0.59.26,0.83,1.26,1.07L390,250c1.4,0.34,1.92.8,1.92,1.81s-0.77,1.82-2.36,1.82a2.34,2.34,0,0,1-2.43-1.49l0.95-.34a1.48,1.48,0,0,0,1.51,1.1c1,0,1.39-.47,1.39-1s-0.23-.85-1.34-1.14l-0.49-.11c-1.38-.35-1.8-0.83-1.8-1.77s0.72-1.67,2.17-1.67a2.18,2.18,0,0,1,2.25,1.48Z"/><path class="cls-1" d="M396.8,246.17h-1.2V245h1.2v1.19Zm-0.11,7.3h-1v-6.13h1v6.13Z"/><path class="cls-1" d="M405.81,250.4c0,2-1.08,3.23-2.64,3.23s-2.63-1.22-2.63-3.19,1.08-3.23,2.64-3.23S405.81,248.42,405.81,250.4Zm-4.27,0c0,1.58.61,2.46,1.63,2.46s1.64-.86,1.64-2.46S404.2,248,403.18,248,401.54,248.84,401.54,250.41Z"/><path class="cls-1" d="M410.6,248.46a2.84,2.84,0,0,1,2.15-1.25,1.61,1.61,0,0,1,1.7,1.75v4.51h-1v-4.16a1,1,0,0,0-1-1.25,2.44,2.44,0,0,0-1.79,1.21v4.2h-1v-6.13h0.94v1.12Z"/><path class="cls-1" d="M419.75,253.47h-1.31v-1.31h1.31v1.31Z"/><path class="cls-1" d="M3.48,274.16L5,273l0.44,0.78-1.85.73,1.85,0.76L5,276l-1.56-1.2,0.26,2H2.82l0.26-1.94L1.54,276l-0.46-.77,1.85-.76-1.85-.73L1.54,273l1.55,1.19-0.26-1.93H3.74Z"/><path class="cls-1" d="M14.79,274.78a2.13,2.13,0,0,0-2.15-1.85c-1.52,0-2.61,1.28-2.61,3.72s1,3.72,2.6,3.72,2.19-1.3,2.25-2.9H12.55v-0.85h3.32v4.49H15.14L15,279.69a2.61,2.61,0,0,1-2.47,1.55c-2.12,0-3.62-1.66-3.62-4.57s1.6-4.59,3.71-4.59a3.14,3.14,0,0,1,3.18,2.45Z"/><path class="cls-1" d="M22.91,275.75a2.18,2.18,0,0,0-1.88,1.8v3.51h-1v-6.13H21v1.56a2.21,2.21,0,0,1,2-1.69Z"/><path class="cls-1" d="M31.35,278c0,2-1.08,3.23-2.64,3.23S26.09,280,26.09,278s1.08-3.23,2.64-3.23S31.35,276,31.35,278Zm-4.27,0c0,1.58.61,2.46,1.63,2.46s1.64-.86,1.64-2.46-0.61-2.45-1.63-2.45S27.08,276.44,27.08,278Z"/><path class="cls-1" d="M40,281.06H39v-1.13a2.58,2.58,0,0,1-2.14,1.27,1.61,1.61,0,0,1-1.71-1.74v-4.53h1v4.23a1,1,0,0,0,1.06,1.19A2.28,2.28,0,0,0,39,279.12v-4.19h1v6.13Z"/><path class="cls-1" d="M45.13,275.9a2.16,2.16,0,0,1,1.81-1.09c1.35,0,2.36,1.14,2.36,3.18s-1.08,3.23-2.42,3.23a1.84,1.84,0,0,1-1.72-1.07v3.09h-1v-8.3h0.94v1Zm0,3.38a1.72,1.72,0,0,0,1.51,1.14c0.91,0,1.63-.82,1.63-2.41s-0.67-2.41-1.56-2.41a1.81,1.81,0,0,0-1.58,1.18v2.51Z"/><path class="cls-1" d="M59.85,274.94h1.46v0.76H59.85v3.78a0.82,0.82,0,0,0,.85,1,3.36,3.36,0,0,0,.77-0.07l0,0.76a6.3,6.3,0,0,1-.95.06,1.39,1.39,0,0,1-1.58-1.56v-4h-1v-0.76h1V273l1-.22v2.12Z"/><path class="cls-1" d="M67.7,275.75a2.18,2.18,0,0,0-1.88,1.8v3.51h-1v-6.13h0.94v1.56a2.21,2.21,0,0,1,2-1.69Z"/><path class="cls-1" d="M71.1,276.4a2.31,2.31,0,0,1,2.43-1.61c1.48,0,2.22.65,2.22,2v2.24a15.2,15.2,0,0,0,.12,2H75a7.38,7.38,0,0,1-.13-1,2.45,2.45,0,0,1-2.1,1.12,1.71,1.71,0,0,1-1.88-1.79c0-1,.6-1.76,2-2a16.81,16.81,0,0,1,1.92-.19v-0.32a1.13,1.13,0,0,0-1.3-1.37A1.45,1.45,0,0,0,72,276.69Zm3.71,1.49a9.25,9.25,0,0,0-1.7.19,1.3,1.3,0,0,0-1.28,1.3,1,1,0,0,0,1.18,1.1,2.18,2.18,0,0,0,1.81-1.21v-1.38Z"/><path class="cls-1" d="M81,273.76h-1.2v-1.19H81v1.19Zm-0.11,7.3h-1v-6.13h1v6.13Z"/><path class="cls-1" d="M86.1,276.05a2.84,2.84,0,0,1,2.15-1.25,1.61,1.61,0,0,1,1.7,1.75v4.51H89V276.9a1,1,0,0,0-1-1.25,2.44,2.44,0,0,0-1.79,1.21v4.2h-1v-6.13H86.1v1.12Z"/><path class="cls-1" d="M95.24,273.76H94v-1.19h1.2v1.19Zm-0.11,7.3h-1v-6.13h1v6.13Z"/><path class="cls-1" d="M100.31,276.05a2.84,2.84,0,0,1,2.15-1.25,1.61,1.61,0,0,1,1.7,1.75v4.51h-1V276.9a1,1,0,0,0-1-1.25,2.44,2.44,0,0,0-1.79,1.21v4.2h-1v-6.13h0.94v1.12Z"/><path class="cls-1" d="M113.3,275a1.49,1.49,0,0,0-1.22.44,1.76,1.76,0,0,1,.6,1.34,2,2,0,0,1-2.27,2,2.39,2.39,0,0,1-.92-0.18,0.92,0.92,0,0,0-.55.68c0,0.32.16,0.48,1.14,0.59l1.24,0.12c1.62,0.16,2.07.68,2.07,1.49,0,1-1,1.74-2.91,1.74-1.73,0-2.7-.59-2.7-1.48a1.47,1.47,0,0,1,1.21-1.27,1,1,0,0,1-.91-0.91,1.55,1.55,0,0,1,.89-1.22,1.84,1.84,0,0,1-.82-1.56,2.08,2.08,0,0,1,2.27-2,2.48,2.48,0,0,1,1.21.3,1.84,1.84,0,0,1,1.75-.94Zm-3.6,5.64a1.18,1.18,0,0,0-1.08,1c0,0.65.77,1,1.88,1,1.32,0,2-.44,2-1s-0.24-.71-1.39-0.83Zm-0.65-3.84a1.36,1.36,0,1,0,1.36-1.34A1.29,1.29,0,0,0,109.05,276.81Z"/><path class="cls-1" d="M125.49,271.17a8.5,8.5,0,0,0,0,11.11l-0.35.29a8.06,8.06,0,0,1,0-11.68Z"/><path class="cls-1" d="M128.66,274.55a2.53,2.53,0,0,1,2.6-2.33,2.21,2.21,0,0,1,2.43,2.27c0,1-.36,1.68-1.81,3a8.18,8.18,0,0,0-2.3,2.79h4.13v0.83h-5.12v-0.74a9.77,9.77,0,0,1,2.57-3.41c1.24-1.15,1.51-1.65,1.51-2.42a1.34,1.34,0,0,0-1.42-1.44,1.65,1.65,0,0,0-1.61,1.73Z"/><path class="cls-1" d="M140.8,278.05h-3.33v-0.8h3.33v0.8Z"/><path class="cls-1" d="M144.5,274a2.5,2.5,0,0,1,2.51-1.75,2.21,2.21,0,0,1,2.45,2.13,1.93,1.93,0,0,1-1.65,2v0.11a2.16,2.16,0,0,1,1.85,2.21,2.45,2.45,0,0,1-2.63,2.54,2.54,2.54,0,0,1-2.67-1.74l1-.36A1.64,1.64,0,0,0,147,280.4a1.55,1.55,0,0,0,1.6-1.71,1.68,1.68,0,0,0-2-1.79H146v-0.85h0.6a1.58,1.58,0,0,0,1.86-1.61A1.33,1.33,0,0,0,147,273a1.53,1.53,0,0,0-1.54,1.26Z"/><path class="cls-1" d="M159.91,275.9a2.16,2.16,0,0,1,1.81-1.09c1.35,0,2.36,1.14,2.36,3.18s-1.08,3.23-2.42,3.23a1.84,1.84,0,0,1-1.72-1.07v3.09h-1v-8.3h0.94v1Zm0,3.38a1.72,1.72,0,0,0,1.51,1.14c0.91,0,1.63-.82,1.63-2.41s-0.67-2.41-1.56-2.41a1.81,1.81,0,0,0-1.58,1.18v2.51Z"/><path class="cls-1" d="M168.5,278.14c0,1.5.71,2.34,1.8,2.34a1.47,1.47,0,0,0,1.56-1.25l0.9,0.3a2.37,2.37,0,0,1-2.47,1.68c-1.66,0-2.73-1.2-2.73-3.19s1.13-3.23,2.65-3.23,2.59,1.16,2.59,3.13v0.22H168.5Zm3.35-.7c-0.1-1.24-.7-1.91-1.63-1.91a1.78,1.78,0,0,0-1.69,1.91h3.32Z"/><path class="cls-1" d="M181.51,278c0,2-1.08,3.23-2.64,3.23s-2.63-1.22-2.63-3.19,1.08-3.23,2.64-3.23S181.51,276,181.51,278Zm-4.27,0c0,1.58.61,2.46,1.63,2.46s1.64-.86,1.64-2.46-0.61-2.45-1.63-2.45S177.24,276.44,177.24,278Z"/><path class="cls-1" d="M186.3,275.9a2.16,2.16,0,0,1,1.81-1.09c1.35,0,2.36,1.14,2.36,3.18s-1.08,3.23-2.42,3.23a1.84,1.84,0,0,1-1.72-1.07v3.09h-1v-8.3h0.94v1Zm0,3.38a1.72,1.72,0,0,0,1.51,1.14c0.91,0,1.63-.82,1.63-2.41s-0.67-2.41-1.56-2.41a1.81,1.81,0,0,0-1.58,1.18v2.51Z"/><path class="cls-1" d="M195.3,281.06h-1v-9h1v9Z"/><path class="cls-1" d="M200.1,278.14c0,1.5.71,2.34,1.8,2.34a1.47,1.47,0,0,0,1.56-1.25l0.9,0.3a2.37,2.37,0,0,1-2.47,1.68c-1.66,0-2.73-1.2-2.73-3.19s1.13-3.23,2.65-3.23,2.59,1.16,2.59,3.13v0.22H200.1Zm3.35-.7c-0.1-1.24-.7-1.91-1.63-1.91a1.78,1.78,0,0,0-1.69,1.91h3.32Z"/><path class="cls-1" d="M207.82,270.88a8.06,8.06,0,0,1,0,11.68l-0.35-.29a8.5,8.5,0,0,0,0-11.11Z"/><path class="cls-1" d="M221.35,273.76h-1.2v-1.19h1.2v1.19Zm-0.11,7.3h-1v-6.13h1v6.13Z"/><path class="cls-1" d="M228.68,276.57a1.32,1.32,0,0,0-1.33-1.06,1,1,0,0,0-1.25.88c0,0.59.26,0.83,1.26,1.07l0.49,0.12c1.4,0.34,1.92.8,1.92,1.81s-0.77,1.82-2.36,1.82a2.34,2.34,0,0,1-2.43-1.49l0.95-.34a1.48,1.48,0,0,0,1.51,1.1c1,0,1.39-.47,1.39-1s-0.23-.85-1.34-1.14l-0.49-.11c-1.38-.35-1.8-0.83-1.8-1.77s0.72-1.67,2.17-1.67a2.18,2.18,0,0,1,2.25,1.48Z"/><path class="cls-1" d="M238.87,276.4a2.31,2.31,0,0,1,2.43-1.61c1.48,0,2.22.65,2.22,2v2.24a15.2,15.2,0,0,0,.12,2h-0.89a7.38,7.38,0,0,1-.13-1,2.45,2.45,0,0,1-2.1,1.12,1.71,1.71,0,0,1-1.88-1.79c0-1,.6-1.76,2-2a16.81,16.81,0,0,1,1.92-.19v-0.32a1.13,1.13,0,0,0-1.3-1.37,1.45,1.45,0,0,0-1.49,1.16Zm3.71,1.49a9.25,9.25,0,0,0-1.7.19,1.3,1.3,0,0,0-1.28,1.3,1,1,0,0,0,1.18,1.1,2.18,2.18,0,0,0,1.81-1.21v-1.38Z"/><path class="cls-1" d="M250.15,281.06h-1.21l-2-6.13H248l0.94,3.36c0.19,0.7.34,1.28,0.52,2h0.18c0.2-.7.34-1.31,0.54-2l0.94-3.32h1Z"/><path class="cls-1" d="M255.44,276.4a2.31,2.31,0,0,1,2.43-1.61c1.48,0,2.22.65,2.22,2v2.24a15.2,15.2,0,0,0,.12,2h-0.89a7.38,7.38,0,0,1-.13-1,2.45,2.45,0,0,1-2.1,1.12,1.71,1.71,0,0,1-1.88-1.79c0-1,.6-1.76,2-2a16.81,16.81,0,0,1,1.92-.19v-0.32a1.13,1.13,0,0,0-1.3-1.37,1.45,1.45,0,0,0-1.49,1.16Zm3.71,1.49a9.25,9.25,0,0,0-1.7.19,1.3,1.3,0,0,0-1.28,1.3,1,1,0,0,0,1.18,1.1,2.18,2.18,0,0,0,1.81-1.21v-1.38Z"/><path class="cls-1" d="M265.38,273.76h-1.2v-1.19h1.2v1.19Zm-0.11,7.3h-1v-6.13h1v6.13Z"/><path class="cls-1" d="M270.48,281.06h-1v-9h1v9Z"/><path class="cls-1" d="M274.54,276.4a2.31,2.31,0,0,1,2.44-1.61c1.47,0,2.22.65,2.22,2v2.24a15.32,15.32,0,0,0,.12,2h-0.89a7.27,7.27,0,0,1-.13-1,2.45,2.45,0,0,1-2.1,1.12,1.71,1.71,0,0,1-1.88-1.79c0-1,.6-1.76,2-2a16.82,16.82,0,0,1,1.92-.19v-0.32a1.13,1.13,0,0,0-1.29-1.37,1.45,1.45,0,0,0-1.49,1.16Zm3.71,1.49a9.25,9.25,0,0,0-1.7.19,1.3,1.3,0,0,0-1.28,1.3,1,1,0,0,0,1.18,1.1,2.17,2.17,0,0,0,1.81-1.21v-1.38Z"/><path class="cls-1" d="M284.36,275.87a2.13,2.13,0,0,1,1.79-1.08c1.34,0,2.35,1.14,2.35,3.2s-1.09,3.23-2.42,3.23a1.94,1.94,0,0,1-1.79-1.13l-0.18,1h-0.72v-9h1v3.8Zm0,3.42a1.72,1.72,0,0,0,1.51,1.14c0.91,0,1.63-.83,1.63-2.42s-0.67-2.4-1.56-2.4a1.8,1.8,0,0,0-1.58,1.18v2.51Z"/><path class="cls-1" d="M293.32,281.06h-1v-9h1v9Z"/><path class="cls-1" d="M298.12,278.14c0,1.5.71,2.34,1.8,2.34a1.47,1.47,0,0,0,1.56-1.25l0.9,0.3a2.37,2.37,0,0,1-2.47,1.68c-1.66,0-2.73-1.2-2.73-3.19s1.13-3.23,2.65-3.23,2.59,1.16,2.59,3.13v0.22h-4.29Zm3.35-.7c-0.1-1.24-.7-1.91-1.63-1.91a1.78,1.78,0,0,0-1.69,1.91h3.32Z"/><path class="cls-1" d="M312.79,273.76h-1.2v-1.19h1.2v1.19Zm-0.11,7.3h-1v-6.13h1v6.13Z"/><path class="cls-1" d="M317.85,276.05A2.84,2.84,0,0,1,320,274.8a1.61,1.61,0,0,1,1.7,1.75v4.51h-1V276.9a1,1,0,0,0-1-1.25,2.44,2.44,0,0,0-1.79,1.21v4.2h-1v-6.13h0.94v1.12Z"/><path class="cls-1" d="M332.32,281.06h-1v-9h1v9Z"/><path class="cls-1" d="M337.65,273.76h-1.2v-1.19h1.2v1.19Zm-0.11,7.3h-1v-6.13h1v6.13Z"/><path class="cls-1" d="M342.34,278.14c0,1.5.71,2.34,1.8,2.34a1.47,1.47,0,0,0,1.56-1.25l0.9,0.3a2.37,2.37,0,0,1-2.47,1.68c-1.66,0-2.73-1.2-2.73-3.19s1.13-3.23,2.65-3.23,2.59,1.16,2.59,3.13v0.22h-4.29Zm3.35-.7c-0.1-1.24-.7-1.91-1.63-1.91a1.78,1.78,0,0,0-1.69,1.91h3.32Z"/><path class="cls-1" d="M355.22,281.06h-0.94v-1.13a2.58,2.58,0,0,1-2.13,1.27,1.61,1.61,0,0,1-1.71-1.74v-4.53h1v4.23a1,1,0,0,0,1.06,1.19,2.27,2.27,0,0,0,1.76-1.23v-4.19h1v6.13Z"/><path class="cls-1" d="M369.78,278c0,2-1.08,3.23-2.64,3.23s-2.63-1.22-2.63-3.19,1.08-3.23,2.64-3.23S369.78,276,369.78,278Zm-4.27,0c0,1.58.61,2.46,1.63,2.46s1.64-.86,1.64-2.46-0.61-2.45-1.63-2.45S365.51,276.44,365.51,278Z"/><path class="cls-1" d="M376.36,272.86a4.55,4.55,0,0,0-.53,0,0.79,0.79,0,0,0-.89,1v1.16h1.37v0.76h-1.37v5.37h-1v-5.37h-1.08v-0.76H374v-1.2a1.49,1.49,0,0,1,1.68-1.67,7,7,0,0,1,.82.06Z"/><path class="cls-1" d="M390.11,278c0,2-1.08,3.23-2.64,3.23s-2.63-1.22-2.63-3.19,1.08-3.23,2.64-3.23S390.11,276,390.11,278Zm-4.27,0c0,1.58.61,2.46,1.63,2.46s1.64-.86,1.64-2.46-0.61-2.45-1.63-2.45S385.84,276.44,385.84,278Z"/><path class="cls-1" d="M394.9,276.05A2.84,2.84,0,0,1,397,274.8a1.61,1.61,0,0,1,1.7,1.75v4.51h-1V276.9a1,1,0,0,0-1-1.25,2.44,2.44,0,0,0-1.79,1.21v4.2h-1v-6.13h0.94v1.12Z"/><path class="cls-1" d="M403.52,278.14c0,1.5.71,2.34,1.8,2.34a1.47,1.47,0,0,0,1.56-1.25l0.9,0.3a2.37,2.37,0,0,1-2.47,1.68c-1.66,0-2.73-1.2-2.73-3.19s1.13-3.23,2.65-3.23,2.59,1.16,2.59,3.13v0.22h-4.29Zm3.35-.7c-0.1-1.24-.7-1.91-1.63-1.91a1.78,1.78,0,0,0-1.69,1.91h3.32Z"/><path class="cls-1" d="M414.77,278.05h-3.33v-0.8h3.33v0.8Z"/><path class="cls-1" d="M423.69,278c0,2-1.08,3.23-2.64,3.23s-2.63-1.22-2.63-3.19,1.08-3.23,2.64-3.23S423.69,276,423.69,278Zm-4.27,0c0,1.58.61,2.46,1.63,2.46s1.64-.86,1.64-2.46-0.61-2.45-1.63-2.45S419.42,276.44,419.42,278Z"/><path class="cls-1" d="M428.48,276.05a2.84,2.84,0,0,1,2.15-1.25,1.61,1.61,0,0,1,1.7,1.75v4.51h-1V276.9a1,1,0,0,0-1-1.25,2.44,2.44,0,0,0-1.79,1.21v4.2h-1v-6.13h0.94v1.12Z"/><path class="cls-1" d="M439.66,278.05h-3.33v-0.8h3.33v0.8Z"/><path class="cls-1" d="M448.57,278c0,2-1.08,3.23-2.64,3.23s-2.63-1.22-2.63-3.19,1.08-3.23,2.64-3.23S448.57,276,448.57,278Zm-4.27,0c0,1.58.61,2.46,1.63,2.46s1.64-.86,1.64-2.46-0.61-2.45-1.63-2.45S444.3,276.44,444.3,278Z"/><path class="cls-1" d="M453.36,276.05a2.84,2.84,0,0,1,2.15-1.25,1.61,1.61,0,0,1,1.7,1.75v4.51h-1V276.9a1,1,0,0,0-1-1.25,2.44,2.44,0,0,0-1.79,1.21v4.2h-1v-6.13h0.94v1.12Z"/><path class="cls-1" d="M462,278.14c0,1.5.71,2.34,1.8,2.34a1.47,1.47,0,0,0,1.56-1.25l0.9,0.3a2.37,2.37,0,0,1-2.47,1.68c-1.66,0-2.73-1.2-2.73-3.19s1.13-3.23,2.65-3.23,2.59,1.16,2.59,3.13v0.22H462Zm3.35-.7c-0.1-1.24-.7-1.91-1.63-1.91a1.78,1.78,0,0,0-1.69,1.91h3.32Z"/><path class="cls-1" d="M478.75,276.57a1.32,1.32,0,0,0-1.33-1.06,1,1,0,0,0-1.25.88c0,0.59.26,0.83,1.26,1.07l0.49,0.12c1.4,0.34,1.92.8,1.92,1.81s-0.77,1.82-2.36,1.82a2.34,2.34,0,0,1-2.43-1.49l0.95-.34a1.48,1.48,0,0,0,1.51,1.1c1,0,1.39-.47,1.39-1s-0.23-.85-1.34-1.14l-0.49-.11c-1.38-.35-1.8-0.83-1.8-1.77s0.72-1.67,2.17-1.67a2.18,2.18,0,0,1,2.25,1.48Z"/><path class="cls-1" d="M484.23,278.14c0,1.5.71,2.34,1.8,2.34a1.47,1.47,0,0,0,1.56-1.25l0.9,0.3a2.37,2.37,0,0,1-2.47,1.68c-1.66,0-2.73-1.2-2.73-3.19s1.13-3.23,2.65-3.23,2.59,1.16,2.59,3.13v0.22h-4.29Zm3.35-.7c-0.1-1.24-.7-1.91-1.63-1.91a1.78,1.78,0,0,0-1.69,1.91h3.32Z"/><path class="cls-1" d="M495.55,276.57a1.32,1.32,0,0,0-1.33-1.06,1,1,0,0,0-1.25.88c0,0.59.26,0.83,1.26,1.07l0.49,0.12c1.4,0.34,1.92.8,1.92,1.81s-0.77,1.82-2.36,1.82a2.34,2.34,0,0,1-2.43-1.49l0.95-.34a1.48,1.48,0,0,0,1.51,1.1c1,0,1.39-.47,1.39-1s-0.23-.85-1.34-1.14l-0.49-.11c-1.38-.35-1.8-0.83-1.8-1.77s0.72-1.67,2.17-1.67a2.18,2.18,0,0,1,2.25,1.48Z"/><path class="cls-1" d="M503.67,276.57a1.32,1.32,0,0,0-1.33-1.06,1,1,0,0,0-1.25.88c0,0.59.26,0.83,1.26,1.07l0.49,0.12c1.4,0.34,1.92.8,1.92,1.81s-0.77,1.82-2.36,1.82a2.34,2.34,0,0,1-2.43-1.49l0.95-.34a1.48,1.48,0,0,0,1.51,1.1c1,0,1.39-.47,1.39-1s-0.23-.85-1.34-1.14l-0.49-.11c-1.38-.35-1.8-0.83-1.8-1.77s0.72-1.67,2.17-1.67a2.18,2.18,0,0,1,2.25,1.48Z"/><path class="cls-1" d="M509.67,273.76h-1.2v-1.19h1.2v1.19Zm-0.11,7.3h-1v-6.13h1v6.13Z"/><path class="cls-1" d="M518.68,278c0,2-1.08,3.23-2.64,3.23s-2.63-1.22-2.63-3.19,1.08-3.23,2.64-3.23S518.68,276,518.68,278Zm-4.27,0c0,1.58.61,2.46,1.63,2.46s1.64-.86,1.64-2.46-0.61-2.45-1.63-2.45S514.41,276.44,514.41,278Z"/><path class="cls-1" d="M523.47,276.05a2.84,2.84,0,0,1,2.15-1.25,1.61,1.61,0,0,1,1.7,1.75v4.51h-1V276.9a1,1,0,0,0-1-1.25,2.44,2.44,0,0,0-1.79,1.21v4.2h-1v-6.13h0.94v1.12Z"/><path class="cls-1" d="M534.72,276.57a1.32,1.32,0,0,0-1.33-1.06,1,1,0,0,0-1.25.88c0,0.59.26,0.83,1.26,1.07l0.49,0.12c1.4,0.34,1.92.8,1.92,1.81s-0.77,1.82-2.36,1.82a2.34,2.34,0,0,1-2.43-1.49l0.95-.34a1.48,1.48,0,0,0,1.51,1.1c1,0,1.39-.47,1.39-1s-0.23-.85-1.34-1.14l-0.49-.11c-1.38-.35-1.8-0.83-1.8-1.77s0.72-1.67,2.17-1.67a2.18,2.18,0,0,1,2.25,1.48Z"/><path class="cls-1" d="M540.73,281.06h-1.31v-1.31h1.31v1.31Z"/><path class="cls-1" d="M2.74,540l1.56-1.16,0.44,0.78-1.85.73,1.85,0.76-0.44.77-1.56-1.2,0.26,2H2.08l0.26-1.94L0.8,541.9l-0.46-.77,1.85-.76-1.85-.73,0.46-.79L2.35,540l-0.26-1.93H3Z"/><path class="cls-1" d="M14.49,539H11.72v8H10.66v-8H7.92v-0.89h6.57V539Z"/><path class="cls-1" d="M19.06,541.92a2.79,2.79,0,0,1,2.11-1.24,1.62,1.62,0,0,1,1.7,1.76V547h-1v-4.16a1,1,0,0,0-1-1.25,2.47,2.47,0,0,0-1.79,1.21V547h-1v-9h1v4Z"/><path class="cls-1" d="M27.64,544c0,1.5.71,2.34,1.8,2.34A1.47,1.47,0,0,0,31,545.12l0.9,0.3a2.37,2.37,0,0,1-2.47,1.68c-1.66,0-2.73-1.2-2.73-3.19s1.13-3.23,2.65-3.23,2.59,1.16,2.59,3.13V544H27.64Zm3.35-.7c-0.1-1.24-.7-1.91-1.63-1.91a1.79,1.79,0,0,0-1.69,1.91H31Z"/><path class="cls-1" d="M42.15,541.78A2.16,2.16,0,0,1,44,540.69c1.35,0,2.36,1.14,2.36,3.18s-1.08,3.23-2.42,3.23A1.84,1.84,0,0,1,42.19,546v3.09h-1v-8.3h0.94v1Zm0,3.38a1.72,1.72,0,0,0,1.51,1.14c0.91,0,1.63-.82,1.63-2.41s-0.67-2.41-1.56-2.41a1.81,1.81,0,0,0-1.58,1.17v2.51Z"/><path class="cls-1" d="M50.74,544c0,1.5.71,2.34,1.8,2.34a1.47,1.47,0,0,0,1.56-1.25l0.9,0.3a2.37,2.37,0,0,1-2.47,1.68c-1.66,0-2.73-1.2-2.73-3.19s1.13-3.23,2.65-3.23S55,541.84,55,543.81V544H50.74Zm3.35-.7c-0.1-1.24-.7-1.91-1.63-1.91a1.79,1.79,0,0,0-1.69,1.91h3.32Z"/><path class="cls-1" d="M61.72,541.64a2.18,2.18,0,0,0-1.88,1.8V547h-1v-6.13H59.8v1.56a2.21,2.21,0,0,1,2-1.69Z"/><path class="cls-1" d="M66.38,539.65h-1.2v-1.19h1.2v1.19ZM66.27,547h-1v-6.13h1V547Z"/><path class="cls-1" d="M75.39,543.88c0,2-1.08,3.23-2.64,3.23s-2.63-1.22-2.63-3.19,1.08-3.23,2.64-3.23S75.39,541.9,75.39,543.88Zm-4.27,0c0,1.58.61,2.46,1.63,2.46s1.64-.86,1.64-2.46-0.61-2.45-1.63-2.45S71.12,542.32,71.12,543.89Z"/><path class="cls-1" d="M84,547H83v-0.9a2,2,0,0,1-1.79,1.06c-1.34,0-2.39-1.2-2.39-3.23s1-3.2,2.36-3.2a2.1,2.1,0,0,1,1.79,1V538h1v9Zm-1-4.28a1.77,1.77,0,0,0-1.56-1.18c-0.9,0-1.6.8-1.6,2.4s0.73,2.41,1.64,2.41A1.75,1.75,0,0,0,83,545.17v-2.49Z"/><path class="cls-1" d="M98.52,543.88c0,2-1.08,3.23-2.64,3.23s-2.63-1.22-2.63-3.19,1.08-3.23,2.64-3.23S98.52,541.9,98.52,543.88Zm-4.27,0c0,1.58.61,2.46,1.63,2.46s1.64-.86,1.64-2.46-0.61-2.45-1.63-2.45S94.25,542.32,94.25,543.89Z"/><path class="cls-1" d="M105.1,538.75a4.45,4.45,0,0,0-.53,0,0.79,0.79,0,0,0-.89,1v1.16h1.37v0.76h-1.37V547h-1v-5.37h-1.08v-0.76h1.08v-1.2a1.49,1.49,0,0,1,1.68-1.67,7.24,7.24,0,0,1,.82.06Z"/><path class="cls-1" d="M116.41,547h-1.21l-2-6.13h1.06l0.94,3.36c0.19,0.7.34,1.28,0.52,2h0.18c0.2-.7.34-1.31,0.54-2l0.94-3.32h1Z"/><path class="cls-1" d="M121.7,542.29a2.31,2.31,0,0,1,2.43-1.61c1.48,0,2.22.65,2.22,2V545a15.2,15.2,0,0,0,.12,2h-0.89a7.38,7.38,0,0,1-.13-1,2.45,2.45,0,0,1-2.1,1.12,1.71,1.71,0,0,1-1.88-1.79c0-1,.6-1.76,2-2a16.82,16.82,0,0,1,1.92-.19v-0.32a1.13,1.13,0,0,0-1.3-1.37,1.45,1.45,0,0,0-1.49,1.16Zm3.71,1.49a9.37,9.37,0,0,0-1.7.19,1.3,1.3,0,0,0-1.28,1.29,1,1,0,0,0,1.18,1.1,2.18,2.18,0,0,0,1.81-1.21v-1.38Z"/><path class="cls-1" d="M131.51,547h-1v-9h1v9Z"/><path class="cls-1" d="M136.84,539.65h-1.2v-1.19h1.2v1.19Zm-0.11,7.3h-1v-6.13h1V547Z"/><path class="cls-1" d="M145.71,547h-0.95v-0.9a2,2,0,0,1-1.79,1.06c-1.34,0-2.39-1.2-2.39-3.23s1-3.2,2.36-3.2a2.1,2.1,0,0,1,1.79,1V538h1v9Zm-1-4.28a1.77,1.77,0,0,0-1.56-1.18c-0.9,0-1.6.8-1.6,2.4s0.73,2.41,1.64,2.41a1.75,1.75,0,0,0,1.51-1.14v-2.49Z"/><path class="cls-1" d="M151,539.65h-1.2v-1.19H151v1.19Zm-0.11,7.3h-1v-6.13h1V547Z"/><path class="cls-1" d="M156.39,540.82h1.46v0.76h-1.46v3.78a0.82,0.82,0,0,0,.85,1,3.36,3.36,0,0,0,.77-0.07l0,0.76a6.3,6.3,0,0,1-.95.06,1.39,1.39,0,0,1-1.58-1.56v-4h-1v-0.76h1v-1.91l1-.22v2.12Z"/><path class="cls-1" d="M163.55,547.24c-0.48,1.38-1.18,1.88-2.27,1.88a3.59,3.59,0,0,1-.59,0l-0.06-.8a3.23,3.23,0,0,0,.64.07,1.42,1.42,0,0,0,1.39-1.22l0.1-.29-2.12-6h1l1.08,3.48c0.16,0.52.28,1,.42,1.5h0.12c0.14-.52.28-1,0.43-1.52l1.06-3.45h1Z"/><path class="cls-1" d="M175.82,539.65h-1.2v-1.19h1.2v1.19Zm-0.11,7.3h-1v-6.13h1V547Z"/><path class="cls-1" d="M183.15,542.45a1.32,1.32,0,0,0-1.33-1.05,1,1,0,0,0-1.25.88c0,0.59.26,0.83,1.26,1.07l0.49,0.12c1.4,0.34,1.92.8,1.92,1.81s-0.77,1.82-2.36,1.82a2.34,2.34,0,0,1-2.43-1.49l0.95-.33a1.48,1.48,0,0,0,1.51,1.1c1,0,1.39-.47,1.39-1s-0.23-.85-1.34-1.14l-0.49-.11c-1.38-.35-1.8-0.83-1.8-1.78s0.72-1.67,2.17-1.67a2.18,2.18,0,0,1,2.25,1.47Z"/><path class="cls-1" d="M197.24,539.77a1.16,1.16,0,0,0-1.15-.85c-1.25,0-1.88,1.24-1.93,3.66a2.29,2.29,0,0,1,2-1.22c1.31,0,2.24,1.07,2.24,2.76,0,1.86-1.06,3-2.51,3s-2.66-1.28-2.66-4.1c0-3.43,1.13-4.89,2.91-4.89a2.15,2.15,0,0,1,2.07,1.24Zm-1.38,6.54c0.92,0,1.5-.76,1.5-2.17,0-1.25-.54-2-1.43-2a2.06,2.06,0,0,0-1.75,1.31C194.18,545.44,194.87,546.3,195.86,546.3Z"/><path class="cls-1" d="M207.05,542.56c0,3.18-.94,4.55-2.64,4.55s-2.63-1.34-2.63-4.52,1-4.47,2.65-4.47S207.05,539.4,207.05,542.56Zm-4.25,0c0,2.69.53,3.71,1.61,3.71s1.62-1,1.62-3.71-0.52-3.63-1.6-3.63S202.8,539.88,202.8,542.57Z"/><path class="cls-1" d="M215.62,547h-0.95v-0.9a2,2,0,0,1-1.79,1.06c-1.34,0-2.39-1.2-2.39-3.23s1-3.2,2.36-3.2a2.1,2.1,0,0,1,1.79,1V538h1v9Zm-1-4.28a1.77,1.77,0,0,0-1.56-1.18c-0.9,0-1.6.8-1.6,2.4s0.73,2.41,1.64,2.41a1.75,1.75,0,0,0,1.51-1.14v-2.49Z"/><path class="cls-1" d="M219.67,542.29a2.31,2.31,0,0,1,2.43-1.61c1.48,0,2.22.65,2.22,2V545a15.2,15.2,0,0,0,.12,2h-0.89a7.38,7.38,0,0,1-.13-1,2.45,2.45,0,0,1-2.1,1.12,1.71,1.71,0,0,1-1.88-1.79c0-1,.6-1.76,2-2a16.82,16.82,0,0,1,1.92-.19v-0.32a1.13,1.13,0,0,0-1.3-1.37,1.45,1.45,0,0,0-1.49,1.16Zm3.71,1.49a9.37,9.37,0,0,0-1.7.19,1.3,1.3,0,0,0-1.28,1.29,1,1,0,0,0,1.18,1.1,2.18,2.18,0,0,0,1.81-1.21v-1.38Z"/><path class="cls-1" d="M230.68,547.24c-0.48,1.38-1.18,1.88-2.27,1.88a3.59,3.59,0,0,1-.59,0l-0.06-.8a3.23,3.23,0,0,0,.64.07,1.42,1.42,0,0,0,1.39-1.22l0.1-.29-2.12-6h1l1.08,3.48c0.16,0.52.28,1,.42,1.5h0.12c0.14-.52.28-1,0.43-1.52l1.06-3.45h1Z"/><path class="cls-1" d="M239.61,542.45a1.32,1.32,0,0,0-1.33-1.05,1,1,0,0,0-1.25.88c0,0.59.26,0.83,1.26,1.07l0.49,0.12c1.4,0.34,1.92.8,1.92,1.81s-0.77,1.82-2.36,1.82a2.34,2.34,0,0,1-2.43-1.49l0.95-.33a1.48,1.48,0,0,0,1.51,1.1c1,0,1.39-.47,1.39-1s-0.23-.85-1.34-1.14l-0.49-.11c-1.38-.35-1.8-0.83-1.8-1.78s0.72-1.67,2.17-1.67a2.18,2.18,0,0,1,2.25,1.47Z"/><path class="cls-1" d="M249.8,542.29a2.31,2.31,0,0,1,2.43-1.61c1.48,0,2.22.65,2.22,2V545a15.2,15.2,0,0,0,.12,2h-0.89a7.38,7.38,0,0,1-.13-1,2.45,2.45,0,0,1-2.1,1.12,1.71,1.71,0,0,1-1.88-1.79c0-1,.6-1.76,2-2a16.82,16.82,0,0,1,1.92-.19v-0.32a1.13,1.13,0,0,0-1.3-1.37,1.45,1.45,0,0,0-1.49,1.16Zm3.71,1.49a9.37,9.37,0,0,0-1.7.19,1.3,1.3,0,0,0-1.28,1.29,1,1,0,0,0,1.18,1.1,2.18,2.18,0,0,0,1.81-1.21v-1.38Z"/><path class="cls-1" d="M261.36,538.75a4.45,4.45,0,0,0-.53,0,0.79,0.79,0,0,0-.89,1v1.16h1.37v0.76h-1.37V547h-1v-5.37h-1.08v-0.76H259v-1.2a1.49,1.49,0,0,1,1.68-1.67,7.24,7.24,0,0,1,.82.06Z"/><path class="cls-1" d="M266,540.82h1.46v0.76H266v3.78a0.82,0.82,0,0,0,.85,1,3.36,3.36,0,0,0,.77-0.07l0,0.76a6.3,6.3,0,0,1-.95.06,1.39,1.39,0,0,1-1.58-1.56v-4h-1v-0.76h1v-1.91l1-.22v2.12Z"/><path class="cls-1" d="M271.59,544c0,1.5.71,2.34,1.8,2.34a1.47,1.47,0,0,0,1.56-1.25l0.9,0.3a2.37,2.37,0,0,1-2.47,1.68c-1.66,0-2.73-1.2-2.73-3.19s1.13-3.23,2.65-3.23,2.59,1.16,2.59,3.13V544h-4.29Zm3.35-.7c-0.1-1.24-.7-1.91-1.63-1.91a1.79,1.79,0,0,0-1.69,1.91h3.32Z"/><path class="cls-1" d="M282.57,541.64a2.18,2.18,0,0,0-1.88,1.8V547h-1v-6.13h0.94v1.56a2.21,2.21,0,0,1,2-1.69Z"/><path class="cls-1" d="M292.83,540.82h1.46v0.76h-1.46v3.78a0.82,0.82,0,0,0,.85,1,3.36,3.36,0,0,0,.77-0.07l0,0.76a6.3,6.3,0,0,1-.95.06,1.39,1.39,0,0,1-1.58-1.56v-4h-1v-0.76h1v-1.91l1-.22v2.12Z"/><path class="cls-1" d="M298.79,541.92a2.79,2.79,0,0,1,2.11-1.24,1.62,1.62,0,0,1,1.7,1.76V547h-1v-4.16a1,1,0,0,0-1-1.25,2.47,2.47,0,0,0-1.79,1.21V547h-1v-9h1v4Z"/><path class="cls-1" d="M307.37,544c0,1.5.71,2.34,1.8,2.34a1.47,1.47,0,0,0,1.56-1.25l0.9,0.3a2.37,2.37,0,0,1-2.47,1.68c-1.66,0-2.73-1.2-2.73-3.19s1.13-3.23,2.65-3.23,2.59,1.16,2.59,3.13V544h-4.29Zm3.35-.7c-0.1-1.24-.7-1.91-1.63-1.91a1.78,1.78,0,0,0-1.69,1.91h3.32Z"/><path class="cls-1" d="M323.67,538.75a4.46,4.46,0,0,0-.53,0,0.79,0.79,0,0,0-.89,1v1.16h1.37v0.76h-1.37V547h-1v-5.37h-1.08v-0.76h1.08v-1.2A1.49,1.49,0,0,1,323,538a7.25,7.25,0,0,1,.82.06Zm2.48,0.89h-1.2v-1.19h1.2v1.19ZM326,547h-1v-6.13h1V547Z"/><path class="cls-1" d="M333.13,541.64a2.18,2.18,0,0,0-1.88,1.8V547h-1v-6.13h0.94v1.56a2.21,2.21,0,0,1,2-1.69Z"/><path class="cls-1" d="M339.9,542.45a1.32,1.32,0,0,0-1.33-1.05,1,1,0,0,0-1.25.88c0,0.59.26,0.83,1.26,1.07l0.49,0.12c1.4,0.34,1.92.8,1.92,1.81s-0.77,1.82-2.36,1.82a2.34,2.34,0,0,1-2.43-1.49l0.95-.33a1.48,1.48,0,0,0,1.51,1.1c1,0,1.39-.47,1.39-1s-0.23-.85-1.34-1.14l-0.49-.11c-1.38-.35-1.8-0.83-1.8-1.78s0.72-1.67,2.17-1.67a2.18,2.18,0,0,1,2.25,1.47Z"/><path class="cls-1" d="M346.06,540.82h1.46v0.76h-1.46v3.78a0.82,0.82,0,0,0,.85,1,3.36,3.36,0,0,0,.77-0.07l0,0.76a6.3,6.3,0,0,1-.95.06,1.39,1.39,0,0,1-1.58-1.56v-4h-1v-0.76h1v-1.91l1-.22v2.12Z"/><path class="cls-1" d="M359.7,542.45a1.32,1.32,0,0,0-1.33-1.05,1,1,0,0,0-1.25.88c0,0.59.26,0.83,1.26,1.07l0.49,0.12c1.4,0.34,1.92.8,1.92,1.81s-0.77,1.82-2.36,1.82a2.34,2.34,0,0,1-2.43-1.49l0.95-.33a1.48,1.48,0,0,0,1.51,1.1c1,0,1.39-.47,1.39-1s-0.23-.85-1.34-1.14l-0.49-.11c-1.38-.35-1.8-0.83-1.8-1.78s0.72-1.67,2.17-1.67a2.18,2.18,0,0,1,2.25,1.47Z"/><path class="cls-1" d="M365.18,544c0,1.5.71,2.34,1.8,2.34a1.47,1.47,0,0,0,1.56-1.25l0.9,0.3A2.37,2.37,0,0,1,367,547.1c-1.66,0-2.73-1.2-2.73-3.19s1.13-3.23,2.65-3.23,2.59,1.16,2.59,3.13V544h-4.29Zm3.35-.7c-0.1-1.24-.7-1.91-1.63-1.91a1.78,1.78,0,0,0-1.69,1.91h3.32Z"/><path class="cls-1" d="M376.5,542.45a1.32,1.32,0,0,0-1.33-1.05,1,1,0,0,0-1.25.88c0,0.59.26,0.83,1.26,1.07l0.49,0.12c1.4,0.34,1.92.8,1.92,1.81s-0.77,1.82-2.36,1.82a2.34,2.34,0,0,1-2.43-1.49l0.95-.33a1.48,1.48,0,0,0,1.51,1.1c1,0,1.39-.47,1.39-1s-0.23-.85-1.34-1.14l-0.49-.11c-1.38-.35-1.8-0.83-1.8-1.78s0.72-1.67,2.17-1.67a2.18,2.18,0,0,1,2.25,1.47Z"/><path class="cls-1" d="M384.61,542.45a1.32,1.32,0,0,0-1.33-1.05,1,1,0,0,0-1.25.88c0,0.59.26,0.83,1.26,1.07l0.49,0.12c1.4,0.34,1.92.8,1.92,1.81s-0.77,1.82-2.36,1.82a2.34,2.34,0,0,1-2.43-1.49l0.95-.33a1.48,1.48,0,0,0,1.51,1.1c1,0,1.39-.47,1.39-1s-0.23-.85-1.34-1.14l-0.49-.11c-1.38-.35-1.8-0.83-1.8-1.78s0.72-1.67,2.17-1.67a2.18,2.18,0,0,1,2.25,1.47Z"/><path class="cls-1" d="M390.61,539.65h-1.2v-1.19h1.2v1.19Zm-0.11,7.3h-1v-6.13h1V547Z"/><path class="cls-1" d="M399.62,543.88c0,2-1.08,3.23-2.64,3.23s-2.63-1.22-2.63-3.19,1.08-3.23,2.64-3.23S399.62,541.9,399.62,543.88Zm-4.27,0c0,1.58.61,2.46,1.63,2.46s1.64-.86,1.64-2.46-0.61-2.45-1.63-2.45S395.35,542.32,395.35,543.89Z"/><path class="cls-1" d="M404.41,541.94a2.84,2.84,0,0,1,2.15-1.25,1.61,1.61,0,0,1,1.7,1.75V547h-1v-4.16a1,1,0,0,0-1-1.25,2.44,2.44,0,0,0-1.79,1.21V547h-1v-6.13h0.94v1.12Z"/><path class="cls-1" d="M413.57,547h-1.31v-1.31h1.31V547Z"/><path class="cls-1" d="M8.48,189.8C8.48,191.73,7,193,4.76,193S1,191.82,1,189.86c0-1.33.7-2.12,2.24-2.88a3.07,3.07,0,0,1-2-3c0-1.67,1.38-3,3.45-3s3.48,1.21,3.48,2.92a2.74,2.74,0,0,1-2,2.64C7.86,187.4,8.48,188.3,8.48,189.8Zm-4.08-2.24a2.41,2.41,0,0,0-1.59,2.18,1.79,1.79,0,0,0,1.92,1.88,1.72,1.72,0,0,0,1.94-1.76c0-.91-0.44-1.42-1.83-2.09Zm0.67-1.5a2.07,2.07,0,0,0,1.36-2,1.58,1.58,0,0,0-1.7-1.61A1.52,1.52,0,0,0,3.07,184c0,0.79.38,1.29,1.58,1.85Z"/><path class="cls-1" d="M16.91,186.94a1.49,1.49,0,0,0-1.48-1.33,1.09,1.09,0,0,0-1.3.89c0,0.65.27,0.92,1.49,1.24l0.7,0.18c1.89,0.5,2.58,1.18,2.58,2.53S17.77,193,15.51,193c-1.76,0-2.94-.62-3.47-2.08l1.77-.62a1.75,1.75,0,0,0,1.74,1.39c1.09,0,1.52-.47,1.52-1.08s-0.29-.86-1.61-1.24l-0.7-.2c-1.8-.48-2.44-1.14-2.44-2.53s1.09-2.36,3.12-2.36a3.08,3.08,0,0,1,3.26,2.12Z"/><path class="cls-1" d="M24.54,189.06c0,1.58.71,2.62,2.09,2.62a1.77,1.77,0,0,0,1.76-1.58l1.73,0.5a3.3,3.3,0,0,1-3.5,2.41c-2.48,0-3.94-1.59-3.94-4.32s1.53-4.39,3.77-4.39,3.71,1.55,3.71,4.36v0.39H24.54Zm3.76-1.26c-0.09-1.39-.68-2.18-1.82-2.18s-1.82.85-1.91,2.18H28.3Z"/><path class="cls-1" d="M38.68,186.94a1.49,1.49,0,0,0-1.48-1.33,1.09,1.09,0,0,0-1.3.89c0,0.65.27,0.92,1.48,1.24l0.7,0.18c1.89,0.5,2.58,1.18,2.58,2.53S39.55,193,37.29,193c-1.76,0-2.94-.62-3.47-2.08l1.77-.62a1.75,1.75,0,0,0,1.74,1.39c1.09,0,1.52-.47,1.52-1.08s-0.29-.86-1.61-1.24l-0.7-.2c-1.8-.48-2.44-1.14-2.44-2.53s1.09-2.36,3.12-2.36a3.08,3.08,0,0,1,3.26,2.12Z"/><path class="cls-1" d="M49.15,186.94a1.49,1.49,0,0,0-1.48-1.33,1.09,1.09,0,0,0-1.3.89c0,0.65.27,0.92,1.48,1.24l0.7,0.18c1.89,0.5,2.58,1.18,2.58,2.53S50,193,47.76,193c-1.76,0-2.94-.62-3.47-2.08l1.77-.62a1.75,1.75,0,0,0,1.74,1.39c1.09,0,1.52-.47,1.52-1.08s-0.29-.86-1.61-1.24l-0.7-.2c-1.8-.48-2.44-1.14-2.44-2.53s1.09-2.36,3.12-2.36A3.08,3.08,0,0,1,51,186.43Z"/><path class="cls-1" d="M57.39,183H55.33v-2h2.06v2Zm-0.08,9.8H55.41v-8.32h1.91v8.32Z"/><path class="cls-1" d="M69.18,188.64c0,2.7-1.5,4.38-3.77,4.38s-3.76-1.64-3.76-4.33,1.52-4.38,3.77-4.38S69.18,185.94,69.18,188.64Zm-5.58,0c0,1.92.58,3,1.8,3s1.82-1,1.82-3-0.58-3-1.8-3S63.61,186.74,63.61,188.65Z"/><path class="cls-1" d="M75.38,185.94a3.39,3.39,0,0,1,2.73-1.64,2.28,2.28,0,0,1,2.38,2.5v6h-2v-5.47a1.14,1.14,0,0,0-1.15-1.39,2.55,2.55,0,0,0-1.94,1.41v5.45H73.53v-8.32h1.85v1.45Z"/><path class="cls-1" d="M89.49,186.94A1.49,1.49,0,0,0,88,185.61a1.09,1.09,0,0,0-1.3.89c0,0.65.27,0.92,1.48,1.24l0.7,0.18c1.89,0.5,2.58,1.18,2.58,2.53S90.35,193,88.09,193c-1.76,0-2.94-.62-3.47-2.08l1.77-.62a1.75,1.75,0,0,0,1.74,1.39c1.09,0,1.52-.47,1.52-1.08s-0.29-.86-1.61-1.24l-0.7-.2c-1.8-.48-2.44-1.14-2.44-2.53S86,184.3,88,184.3a3.08,3.08,0,0,1,3.26,2.12Z"/><path class="cls-1" d="M7.09,131.17H8.53v1.42H7.09v2.62H5.35V132.6H0.94v-1.33l3.76-7.68H7.09v7.59Zm-1.74-2.55c0-1.23,0-2.38.09-3.55H5.23c-0.38,1-.82,2-1.29,3l-1.42,3.06H5.35v-2.55Z"/><path class="cls-1" d="M16.91,129.35A1.49,1.49,0,0,0,15.42,128a1.09,1.09,0,0,0-1.3.89c0,0.65.27,0.92,1.49,1.24l0.7,0.18c1.89,0.5,2.58,1.18,2.58,2.53s-1.11,2.56-3.36,2.56c-1.76,0-2.94-.62-3.47-2.08l1.77-.62a1.75,1.75,0,0,0,1.74,1.39c1.09,0,1.52-.47,1.52-1.08s-0.29-.86-1.61-1.24l-0.7-.2c-1.8-.48-2.44-1.14-2.44-2.53s1.09-2.36,3.12-2.36a3.08,3.08,0,0,1,3.26,2.12Z"/><path class="cls-1" d="M24.54,131.47c0,1.58.71,2.62,2.09,2.62a1.77,1.77,0,0,0,1.76-1.58l1.73,0.5a3.3,3.3,0,0,1-3.5,2.41c-2.48,0-3.94-1.59-3.94-4.32s1.53-4.39,3.77-4.39,3.71,1.55,3.71,4.36v0.39H24.54Zm3.76-1.26c-0.09-1.39-.68-2.18-1.82-2.18s-1.82.85-1.91,2.18H28.3Z"/><path class="cls-1" d="M38.68,129.35A1.49,1.49,0,0,0,37.2,128a1.09,1.09,0,0,0-1.3.89c0,0.65.27,0.92,1.48,1.24l0.7,0.18c1.89,0.5,2.58,1.18,2.58,2.53s-1.11,2.56-3.36,2.56c-1.76,0-2.94-.62-3.47-2.08l1.77-.62a1.75,1.75,0,0,0,1.74,1.39c1.09,0,1.52-.47,1.52-1.08s-0.29-.86-1.61-1.24l-0.7-.2c-1.8-.48-2.44-1.14-2.44-2.53s1.09-2.36,3.12-2.36a3.08,3.08,0,0,1,3.26,2.12Z"/><path class="cls-1" d="M49.15,129.35A1.49,1.49,0,0,0,47.67,128a1.09,1.09,0,0,0-1.3.89c0,0.65.27,0.92,1.48,1.24l0.7,0.18c1.89,0.5,2.58,1.18,2.58,2.53s-1.11,2.56-3.36,2.56c-1.76,0-2.94-.62-3.47-2.08l1.77-.62a1.75,1.75,0,0,0,1.74,1.39c1.09,0,1.52-.47,1.52-1.08s-0.29-.86-1.61-1.24l-0.7-.2c-1.8-.48-2.44-1.14-2.44-2.53s1.09-2.36,3.12-2.36A3.08,3.08,0,0,1,51,128.84Z"/><path class="cls-1" d="M57.39,125.41H55.33v-2h2.06v2Zm-0.08,9.8H55.41V126.9h1.91v8.32Z"/><path class="cls-1" d="M69.18,131.05c0,2.7-1.5,4.38-3.77,4.38s-3.76-1.64-3.76-4.33,1.52-4.38,3.77-4.38S69.18,128.35,69.18,131.05Zm-5.58,0c0,1.92.58,3,1.8,3s1.82-1,1.82-3-0.58-3-1.8-3S63.61,129.16,63.61,131.07Z"/><path class="cls-1" d="M75.38,128.35a3.39,3.39,0,0,1,2.73-1.64,2.28,2.28,0,0,1,2.38,2.5v6h-2v-5.47a1.14,1.14,0,0,0-1.15-1.39,2.55,2.55,0,0,0-1.94,1.41v5.45H73.53V126.9h1.85v1.45Z"/><path class="cls-1" d="M89.49,129.35A1.49,1.49,0,0,0,88,128a1.09,1.09,0,0,0-1.3.89c0,0.65.27,0.92,1.48,1.24l0.7,0.18c1.89,0.5,2.58,1.18,2.58,2.53s-1.11,2.56-3.36,2.56c-1.76,0-2.94-.62-3.47-2.08l1.77-.62a1.75,1.75,0,0,0,1.74,1.39c1.09,0,1.52-.47,1.52-1.08s-0.29-.86-1.61-1.24l-0.7-.2c-1.8-.48-2.44-1.14-2.44-2.53S86,126.72,88,126.72a3.08,3.08,0,0,1,3.26,2.12Z"/><path class="cls-1" d="M5.11,77.69H7.28v1.47H1V77.69H3.31V69.44a8.48,8.48,0,0,1-2.14,1l-0.3-1.59a8.54,8.54,0,0,0,2.7-1.36H5.11V77.69Z"/><path class="cls-1" d="M16.17,73.29A1.49,1.49,0,0,0,14.69,72a1.09,1.09,0,0,0-1.3.89c0,0.65.27,0.92,1.49,1.24l0.7,0.18c1.89,0.5,2.58,1.18,2.58,2.53S17,79.37,14.78,79.37c-1.76,0-2.94-.62-3.47-2.08l1.77-.62a1.75,1.75,0,0,0,1.74,1.39c1.09,0,1.52-.47,1.52-1.08s-0.29-.86-1.61-1.24l-0.7-.2c-1.8-.48-2.44-1.14-2.44-2.53s1.09-2.36,3.12-2.36A3.08,3.08,0,0,1,18,72.78Z"/><path class="cls-1" d="M23.81,75.41c0,1.58.71,2.62,2.09,2.62a1.77,1.77,0,0,0,1.76-1.58L29.39,77a3.3,3.3,0,0,1-3.5,2.41c-2.48,0-3.94-1.59-3.94-4.32s1.53-4.39,3.77-4.39S29.43,72.2,29.43,75v0.39H23.81Zm3.76-1.26C27.48,72.76,26.89,72,25.75,72s-1.82.85-1.91,2.18h3.73Z"/><path class="cls-1" d="M37.95,73.29A1.49,1.49,0,0,0,36.46,72a1.09,1.09,0,0,0-1.3.89c0,0.65.27,0.92,1.48,1.24l0.7,0.18c1.89,0.5,2.58,1.18,2.58,2.53s-1.11,2.56-3.36,2.56c-1.76,0-2.94-.62-3.47-2.08l1.77-.62a1.75,1.75,0,0,0,1.74,1.39c1.09,0,1.52-.47,1.52-1.08s-0.29-.86-1.61-1.24l-0.7-.2c-1.8-.48-2.44-1.14-2.44-2.53s1.09-2.36,3.12-2.36a3.08,3.08,0,0,1,3.26,2.12Z"/><path class="cls-1" d="M48.42,73.29A1.49,1.49,0,0,0,46.93,72a1.09,1.09,0,0,0-1.3.89c0,0.65.27,0.92,1.48,1.24l0.7,0.18c1.89,0.5,2.58,1.18,2.58,2.53S49.28,79.37,47,79.37c-1.76,0-2.94-.62-3.47-2.08l1.77-.62a1.75,1.75,0,0,0,1.74,1.39c1.09,0,1.52-.47,1.52-1.08s-0.29-.86-1.61-1.24l-0.7-.2c-1.8-.48-2.44-1.14-2.44-2.53s1.09-2.36,3.12-2.36a3.08,3.08,0,0,1,3.26,2.12Z"/><path class="cls-1" d="M56.66,69.35H54.6v-2h2.06v2Zm-0.08,9.8H54.67V70.84h1.91v8.32Z"/><path class="cls-1" d="M68.45,75c0,2.7-1.5,4.38-3.77,4.38S60.92,77.73,60.92,75s1.52-4.38,3.77-4.38S68.45,72.29,68.45,75Zm-5.58,0c0,1.92.58,3,1.8,3s1.82-1,1.82-3-0.58-3-1.8-3S62.87,73.09,62.87,75Z"/><path class="cls-1" d="M74.64,72.29a3.39,3.39,0,0,1,2.73-1.64,2.28,2.28,0,0,1,2.38,2.5v6h-2V73.69a1.14,1.14,0,0,0-1.15-1.39A2.55,2.55,0,0,0,74.7,73.7v5.45H72.8V70.84h1.85v1.45Z"/><path class="cls-1" d="M328.91,77.38c0,3.4-2.6,5.68-6.59,5.68s-6.62-2.12-6.62-5.57c0-2.36,1.23-3.75,4-5.09-2.54-1.31-3.48-2.95-3.48-5.23,0-2.95,2.44-5.28,6.11-5.28s6.16,2.14,6.16,5.17c0,2.2-1.18,3.67-3.59,4.66C327.81,73.12,328.91,74.73,328.91,77.38Zm-7.21-4c-1.9,1-2.81,2.14-2.81,3.86a3.16,3.16,0,0,0,3.4,3.32c2.12,0,3.43-1.18,3.43-3.11,0-1.61-.78-2.52-3.24-3.7Zm1.18-2.65c1.79-.94,2.41-2,2.41-3.56a2.79,2.79,0,0,0-3-2.84,2.69,2.69,0,0,0-2.95,2.79c0,1.39.67,2.28,2.79,3.27Z"/><path class="cls-1" d="M348.64,72.4c0,7.58-2.3,10.66-6.48,10.66s-6.4-3-6.4-10.61,2.33-10.56,6.46-10.56S348.64,64.84,348.64,72.4Zm-9.43,0c0,6,.83,8,2.95,8s3-2,3-8-0.83-7.88-3-7.88S339.2,66.37,339.2,72.43Z"/><path class="cls-1" d="M368.52,72.4c0,7.58-2.3,10.66-6.48,10.66s-6.4-3-6.4-10.61S358,61.9,362.09,61.9,368.52,64.84,368.52,72.4Zm-9.43,0c0,6,.83,8,2.95,8s3-2,3-8-0.83-7.88-3-7.88S359.09,66.37,359.09,72.43Z"/><path class="cls-1" d="M388.4,72.4c0,7.58-2.3,10.66-6.48,10.66s-6.4-3-6.4-10.61S377.85,61.9,382,61.9,388.4,64.84,388.4,72.4Zm-9.43,0c0,6,.83,8,2.95,8s3-2,3-8-0.83-7.88-3-7.88S379,66.37,379,72.43Z"/><path class="cls-1" d="M409.41,83.22c-1.15,3.38-2.92,4.64-5.92,4.64a11.42,11.42,0,0,1-1.82-.13l-0.13-2.57a9.84,9.84,0,0,0,1.88.19,2.79,2.79,0,0,0,2.79-2.28l0.21-.64-5-14.44H405l1.74,6.16c0.48,1.69.8,3.11,1.23,4.82h0.27c0.46-1.66.83-3.16,1.31-4.88L411.23,68h3.35Z"/><path class="cls-1" d="M419.73,76.07c0,2.79,1.26,4.64,3.7,4.64,1.53,0,2.6-.86,3.11-2.79l3.05,0.88c-0.91,2.81-2.92,4.26-6.19,4.26-4.39,0-7-2.81-7-7.64s2.71-7.77,6.67-7.77c3.75,0,6.56,2.73,6.56,7.72v0.7h-9.94Zm6.64-2.22c-0.16-2.47-1.21-3.86-3.21-3.86s-3.22,1.5-3.38,3.86h6.59Z"/><path class="cls-1" d="M436.34,70.55a6,6,0,0,1,4.82-2.89c2.44,0,4.21,1.58,4.21,4.42V82.69h-3.46V73c0-1.69-.72-2.47-2-2.47A4.5,4.5,0,0,0,436.45,73v9.65h-3.38V68h3.27v2.57Z"/><path class="cls-1" d="M315.94,125.16c0.78-2.89,3.08-4.42,6.19-4.42,3.72,0,6.14,2.17,6.14,5.14a4.44,4.44,0,0,1-3.91,4.61v0.19a5,5,0,0,1,4.31,5.14c0,3.62-2.63,6.08-6.54,6.08-3.38,0-5.6-1.37-6.51-4.53l3.3-1c0.46,2.06,1.42,2.89,3.19,2.89,1.93,0,3.13-1.29,3.13-3.46,0-2.33-1.1-3.7-4-3.7h-1.55v-2.73h1.42c2.68,0,3.75-1.15,3.75-3.22a2.59,2.59,0,0,0-2.81-2.87c-1.42,0-2.57.88-2.84,2.81Z"/><path class="cls-1" d="M348.64,131.25c0,7.58-2.3,10.66-6.48,10.66s-6.4-3-6.4-10.61,2.33-10.56,6.46-10.56S348.64,123.69,348.64,131.25Zm-9.43,0c0,6,.83,8,2.95,8s3-2,3-8-0.83-7.88-3-7.88S339.2,125.22,339.2,131.27Z"/><path class="cls-1" d="M360.05,141.53l-2,4.18h-1.66l1.8-4.18h-2v-3.62h3.83v3.62Z"/><path class="cls-1" d="M380.55,131.25c0,7.58-2.3,10.66-6.48,10.66s-6.4-3-6.4-10.61,2.33-10.56,6.46-10.56S380.55,123.69,380.55,131.25Zm-9.43,0c0,6,.83,8,2.95,8s3-2,3-8-0.83-7.88-3-7.88S371.12,125.22,371.12,131.27Z"/><path class="cls-1" d="M400.43,131.25c0,7.58-2.3,10.66-6.48,10.66s-6.4-3-6.4-10.61,2.33-10.56,6.46-10.56S400.43,123.69,400.43,131.25Zm-9.43,0c0,6,.83,8,2.95,8s3-2,3-8-0.83-7.88-3-7.88S391,125.22,391,131.27Z"/><path class="cls-1" d="M420.32,131.25c0,7.58-2.3,10.66-6.48,10.66s-6.4-3-6.4-10.61,2.33-10.56,6.46-10.56S420.32,123.69,420.32,131.25Zm-9.43,0c0,6,.83,8,2.95,8s3-2,3-8-0.83-7.88-3-7.88S410.89,125.22,410.89,131.27Z"/><path class="cls-1" d="M441.33,142.07c-1.15,3.38-2.92,4.64-5.92,4.64a11.43,11.43,0,0,1-1.82-.13L433.45,144a9.84,9.84,0,0,0,1.88.19,2.79,2.79,0,0,0,2.79-2.28l0.21-.64-5-14.44h3.56l1.74,6.16c0.48,1.69.8,3.11,1.23,4.82h0.27c0.46-1.66.83-3.16,1.31-4.88l1.69-6.11h3.35Z"/><path class="cls-1" d="M451.64,134.92c0,2.79,1.26,4.64,3.7,4.64,1.53,0,2.6-.86,3.11-2.79l3.05,0.88c-0.91,2.81-2.92,4.26-6.19,4.26-4.39,0-7-2.81-7-7.64s2.71-7.77,6.67-7.77c3.75,0,6.56,2.73,6.56,7.72v0.7h-9.94Zm6.64-2.22c-0.16-2.47-1.21-3.86-3.21-3.86s-3.22,1.5-3.38,3.86h6.59Z"/><path class="cls-1" d="M468.26,129.4a6,6,0,0,1,4.82-2.89c2.44,0,4.21,1.58,4.21,4.42v10.61h-3.46v-9.67c0-1.69-.72-2.47-2-2.47a4.5,4.5,0,0,0-3.43,2.49v9.65H465V126.82h3.27v2.57Z"/><path class="cls-1" d="M327.76,180.1h-8.09l-0.16,4.13c0,0.62-.08,1.34-0.16,1.93a4.14,4.14,0,0,1,3.51-1.77c3.38,0,5.76,2.65,5.76,6.7,0,4.31-2.68,7.15-6.54,7.15-3.22,0-5.49-1.45-6.22-4.45l3.27-1c0.38,2,1.42,2.84,2.92,2.84,1.93,0,3.13-1.66,3.13-4.5,0-2.65-1.1-4.15-3-4.15a3,3,0,0,0-2.89,2.3l-2.79-.4,0.4-11.47h10.82v2.68Z"/><path class="cls-1" d="M335.94,182.72a6,6,0,0,1,6.3-5.65c3.67,0,6.11,2,6.11,5.52,0,2.28-1,4-4.13,6.91-2.81,2.52-4.15,4-5,5.68h9.19v2.68H335.75v-2.38a25.89,25.89,0,0,1,5.84-7.58c2.68-2.57,3.27-3.64,3.27-5.33a2.55,2.55,0,0,0-2.68-2.84c-1.69,0-2.73,1.26-2.89,3.7Z"/><path class="cls-1" d="M360.05,197.86L358,202h-1.66l1.8-4.18h-2v-3.62h3.83v3.62Z"/><path class="cls-1" d="M380.55,187.57c0,7.58-2.3,10.66-6.48,10.66s-6.4-3-6.4-10.61,2.33-10.56,6.46-10.56S380.55,180,380.55,187.57Zm-9.43,0c0,6,.83,8,2.95,8s3-2,3-8-0.83-7.88-3-7.88S371.12,181.54,371.12,187.6Z"/><path class="cls-1" d="M400.43,187.57c0,7.58-2.3,10.66-6.48,10.66s-6.4-3-6.4-10.61,2.33-10.56,6.46-10.56S400.43,180,400.43,187.57Zm-9.43,0c0,6,.83,8,2.95,8s3-2,3-8-0.83-7.88-3-7.88S391,181.54,391,187.6Z"/><path class="cls-1" d="M420.32,187.57c0,7.58-2.3,10.66-6.48,10.66s-6.4-3-6.4-10.61,2.33-10.56,6.46-10.56S420.32,180,420.32,187.57Zm-9.43,0c0,6,.83,8,2.95,8s3-2,3-8-0.83-7.88-3-7.88S410.89,181.54,410.89,187.6Z"/><path class="cls-1" d="M441.33,198.4c-1.15,3.38-2.92,4.64-5.92,4.64a11.43,11.43,0,0,1-1.82-.13l-0.13-2.57a9.84,9.84,0,0,0,1.88.19,2.79,2.79,0,0,0,2.79-2.28l0.21-.64-5-14.44h3.56l1.74,6.16c0.48,1.69.8,3.11,1.23,4.82h0.27c0.46-1.66.83-3.16,1.31-4.88l1.69-6.11h3.35Z"/><path class="cls-1" d="M451.64,191.24c0,2.79,1.26,4.64,3.7,4.64,1.53,0,2.6-.86,3.11-2.79L461.5,194c-0.91,2.81-2.92,4.26-6.19,4.26-4.39,0-7-2.81-7-7.64s2.71-7.77,6.67-7.77c3.75,0,6.56,2.73,6.56,7.72v0.7h-9.94Zm6.64-2.22c-0.16-2.47-1.21-3.86-3.21-3.86s-3.22,1.5-3.38,3.86h6.59Z"/><path class="cls-1" d="M468.26,185.72a6,6,0,0,1,4.82-2.89c2.44,0,4.21,1.58,4.21,4.42v10.61h-3.46v-9.67c0-1.69-.72-2.47-2-2.47a4.5,4.5,0,0,0-3.43,2.49v9.65H465V183.15h3.27v2.57Z"/><path class="cls-1" d="M6.74,22.3c3.7,0,5.06,1.36,5.06,3.68a3.23,3.23,0,0,1-2.94,3.23v0.13c2.2,0.36,3.4,1.66,3.4,3.57,0,2.61-1.87,4.2-5.25,4.2H1.45V22.3H6.74ZM4,28.39H6.22c2,0,3-.84,3-2.16s-0.73-2-2.79-2H4v4.16Zm0,6.8H6.72c2,0,2.94-.92,2.94-2.46s-1.2-2.41-3.26-2.41H4v4.87Z"/><path class="cls-1" d="M17.46,29.27c0.53-1.89,2.06-2.88,4.33-2.88,2.71,0,4.07,1.15,4.07,3.47V34A27.84,27.84,0,0,0,26,37.11H23.82c-0.08-.46-0.11-0.76-0.17-1.37a3.92,3.92,0,0,1-3.3,1.62,3,3,0,0,1-3.23-3.11c0-1.83,1.15-3,3.42-3.46a20.1,20.1,0,0,1,3-.31V29.9A1.57,1.57,0,0,0,21.72,28a2,2,0,0,0-2,1.83ZM23.53,32a10.92,10.92,0,0,0-2.41.31,1.83,1.83,0,0,0-1.72,1.78,1.48,1.48,0,0,0,1.68,1.58,2.86,2.86,0,0,0,2.44-1.72V32Z"/><path class="cls-1" d="M37.18,29.72A1.87,1.87,0,0,0,35.31,28c-1,0-1.64.5-1.64,1.13,0,0.82.34,1.16,1.87,1.57L36.42,31c2.39,0.63,3.25,1.49,3.25,3.19,0,1.87-1.39,3.23-4.24,3.23-2.21,0-3.7-.78-4.37-2.62L33.29,34a2.21,2.21,0,0,0,2.2,1.76c1.37,0,1.91-.59,1.91-1.35s-0.36-1.09-2-1.57l-0.88-.25c-2.27-.61-3.07-1.43-3.07-3.19s1.37-3,3.93-3c2.19,0,3.53,1,4.1,2.67Z"/><path class="cls-1" d="M47.56,24.76H45V22.3h2.6v2.46Zm-0.1,12.35H45.06V26.63h2.41V37.11Z"/><path class="cls-1" d="M59.59,30.28c-0.23-1.45-.88-2.12-1.85-2.12-1.55,0-2.35,1.32-2.35,3.72s0.8,3.74,2.35,3.74c1.13,0,1.78-.74,2-2.2L62,34a4.07,4.07,0,0,1-4.29,3.34c-3,0-4.75-2-4.75-5.46s1.83-5.52,4.75-5.52a4,4,0,0,1,4.24,3.34Z"/><path class="cls-1" d="M84.42,31.86c0,3.4-1.89,5.52-4.75,5.52s-4.73-2.06-4.73-5.46,1.91-5.52,4.75-5.52S84.42,28.46,84.42,31.86Zm-7,0c0,2.42.73,3.76,2.27,3.76S82,34.32,82,31.88s-0.73-3.74-2.27-3.74S77.4,29.48,77.4,31.88Z"/><path class="cls-1" d="M92.23,28.46a4.27,4.27,0,0,1,3.44-2.06,2.87,2.87,0,0,1,3,3.15v7.56H96.2V30.22c0-1.2-.52-1.76-1.45-1.76a3.21,3.21,0,0,0-2.44,1.77v6.87H89.9V26.63h2.33v1.83Z"/><path class="cls-1" d="M106.43,32.4c0,2,.9,3.3,2.63,3.3a2.23,2.23,0,0,0,2.21-2l2.18,0.63a4.15,4.15,0,0,1-4.41,3c-3.13,0-5-2-5-5.44s1.93-5.54,4.75-5.54c2.67,0,4.68,1.95,4.68,5.5v0.5h-7.08Zm4.73-1.58c-0.11-1.76-.86-2.75-2.29-2.75s-2.29,1.07-2.41,2.75h4.7Z"/><path class="cls-1" d="M124.29,32.26h-5.57V30.39h5.57v1.87Z"/><path class="cls-1" d="M139,31.86c0,3.4-1.89,5.52-4.75,5.52s-4.73-2.06-4.73-5.46,1.91-5.52,4.75-5.52S139,28.46,139,31.86Zm-7,0c0,2.42.73,3.76,2.27,3.76s2.29-1.32,2.29-3.76-0.73-3.74-2.27-3.74S132,29.48,132,31.88Z"/><path class="cls-1" d="M146.83,28.46a4.27,4.27,0,0,1,3.44-2.06,2.87,2.87,0,0,1,3,3.15v7.56H150.8V30.22c0-1.2-.52-1.76-1.45-1.76a3.21,3.21,0,0,0-2.44,1.77v6.87h-2.4V26.63h2.33v1.83Z"/><path class="cls-1" d="M164.66,32.26h-5.57V30.39h5.57v1.87Z"/><path class="cls-1" d="M179.39,31.86c0,3.4-1.89,5.52-4.75,5.52s-4.73-2.06-4.73-5.46,1.91-5.52,4.75-5.52S179.39,28.46,179.39,31.86Zm-7,0c0,2.42.73,3.76,2.27,3.76s2.29-1.32,2.29-3.76-0.73-3.74-2.27-3.74S172.37,29.48,172.37,31.88Z"/><path class="cls-1" d="M187.2,28.46a4.27,4.27,0,0,1,3.44-2.06,2.87,2.87,0,0,1,3,3.15v7.56h-2.46V30.22c0-1.2-.52-1.76-1.45-1.76a3.21,3.21,0,0,0-2.44,1.77v6.87h-2.4V26.63h2.33v1.83Z"/><path class="cls-1" d="M201.4,32.4c0,2,.9,3.3,2.63,3.3a2.23,2.23,0,0,0,2.21-2l2.18,0.63a4.15,4.15,0,0,1-4.41,3c-3.13,0-5-2-5-5.44S201,26.4,203.8,26.4c2.67,0,4.68,1.95,4.68,5.5v0.5H201.4Zm4.73-1.58c-0.11-1.76-.86-2.75-2.29-2.75s-2.29,1.07-2.41,2.75h4.7Z"/><path class="cls-1" d="M225.24,26.63h2.35v1.76h-2.35v5.75c0,1,.42,1.51,1.3,1.51a5.48,5.48,0,0,0,1.22-.11l-0.1,1.72a12.65,12.65,0,0,1-1.87.11c-2,0-2.92-.86-2.92-2.79V28.39h-1.57V26.63h1.57V23.75l2.37-.53v3.42Z"/><path class="cls-1" d="M238,28.65c-1.26,0-2.31.82-3,2.65v5.8h-2.37V26.63h2.25v2.58c0.74-2.06,1.83-2.81,3.25-2.81Z"/><path class="cls-1" d="M242.84,29.27c0.53-1.89,2.06-2.88,4.33-2.88,2.71,0,4.07,1.15,4.07,3.47V34a27.84,27.84,0,0,0,.17,3.09h-2.21c-0.08-.46-0.11-0.76-0.17-1.37a3.92,3.92,0,0,1-3.3,1.62,3,3,0,0,1-3.23-3.11c0-1.83,1.15-3,3.42-3.46a20.1,20.1,0,0,1,3-.31V29.9A1.57,1.57,0,0,0,247.09,28a2,2,0,0,0-2,1.83ZM248.91,32a10.92,10.92,0,0,0-2.41.31,1.83,1.83,0,0,0-1.72,1.78,1.48,1.48,0,0,0,1.68,1.58,2.86,2.86,0,0,0,2.44-1.72V32Z"/><path class="cls-1" d="M259.75,24.76h-2.6V22.3h2.6v2.46Zm-0.1,12.35h-2.4V26.63h2.4V37.11Z"/><path class="cls-1" d="M268.07,28.46a4.27,4.27,0,0,1,3.44-2.06,2.87,2.87,0,0,1,3,3.15v7.56H272V30.22c0-1.2-.52-1.76-1.45-1.76a3.21,3.21,0,0,0-2.44,1.77v6.87h-2.4V26.63h2.33v1.83Z"/><path class="cls-1" d="M283,24.76h-2.6V22.3H283v2.46Zm-0.09,12.35h-2.41V26.63h2.41V37.11Z"/><path class="cls-1" d="M291.35,28.46a4.27,4.27,0,0,1,3.44-2.06,2.87,2.87,0,0,1,3,3.15v7.56h-2.46V30.22c0-1.2-.52-1.76-1.45-1.76a3.21,3.21,0,0,0-2.44,1.77v6.87H289V26.63h2.33v1.83Z"/><path class="cls-1" d="M312.71,27.11a2.39,2.39,0,0,0-1.87.53,3,3,0,0,1,.86,2.1c0,2.18-1.7,3.46-4.12,3.46a5.37,5.37,0,0,1-1.35-.17,1.15,1.15,0,0,0-.76.92c0,0.44.25,0.65,1.45,0.76l2.37,0.19c2.75,0.27,3.63,1.18,3.63,2.71,0,1.83-1.85,3.19-5.27,3.19-3,0-4.71-1-4.71-2.54,0-.92.76-1.62,1.93-2a1.57,1.57,0,0,1-1.47-1.51c0-.82.48-1.47,1.6-2.18a3.13,3.13,0,0,1-1.49-2.77c0-2,1.7-3.36,4.1-3.36a4.87,4.87,0,0,1,2.23.5,3,3,0,0,1,3-1.72ZM306.3,36.5a1.65,1.65,0,0,0-1.41,1.43c0,0.92,1.15,1.45,2.88,1.45,2,0,3.05-.65,3.05-1.39s-0.34-1-1.93-1.22Zm-0.61-6.78a1.91,1.91,0,1,0,3.82,0A1.91,1.91,0,1,0,305.69,29.72Z"/><line class="cls-2" x1="125.54" y1="73.38" x2="280.66" y2="73.38"/><line class="cls-2" x1="125.54" y1="130.29" x2="280.66" y2="130.29"/><line class="cls-2" x1="125.54" y1="187.57" x2="280.66" y2="187.57"/><path class="cls-1" d="M7.75,484.33c0,1.92-1.47,3.21-3.73,3.21s-3.74-1.2-3.74-3.15c0-1.33.7-2.12,2.24-2.88a3.07,3.07,0,0,1-2-3c0-1.67,1.38-3,3.45-3s3.48,1.21,3.48,2.92a2.74,2.74,0,0,1-2,2.64C7.13,481.92,7.75,482.83,7.75,484.33Zm-4.08-2.24a2.41,2.41,0,0,0-1.59,2.18A1.79,1.79,0,0,0,4,486.14a1.72,1.72,0,0,0,1.94-1.76c0-.91-0.44-1.42-1.83-2.09Zm0.67-1.5a2.08,2.08,0,0,0,1.36-2A1.58,1.58,0,0,0,4,477a1.52,1.52,0,0,0-1.67,1.58c0,0.79.38,1.29,1.58,1.85Z"/><path class="cls-1" d="M20.13,481.46a1.49,1.49,0,0,0-1.48-1.33,1.09,1.09,0,0,0-1.3.89c0,0.65.27,0.92,1.48,1.24l0.7,0.18c1.89,0.5,2.58,1.18,2.58,2.53s-1.11,2.56-3.36,2.56c-1.76,0-2.94-.62-3.47-2.08l1.77-.62a1.75,1.75,0,0,0,1.74,1.39c1.09,0,1.52-.47,1.52-1.08s-0.29-.86-1.61-1.24l-0.7-.2c-1.8-.48-2.44-1.14-2.44-2.53s1.09-2.36,3.12-2.36a3.08,3.08,0,0,1,3.26,2.12Z"/><path class="cls-1" d="M31.72,483.58c0,1.58.71,2.62,2.09,2.62a1.77,1.77,0,0,0,1.76-1.58l1.73,0.5a3.3,3.3,0,0,1-3.5,2.41c-2.48,0-3.94-1.59-3.94-4.32s1.53-4.39,3.77-4.39,3.71,1.54,3.71,4.36v0.39H31.72Zm3.76-1.26c-0.09-1.39-.68-2.18-1.82-2.18s-1.82.85-1.91,2.18h3.73Z"/><path class="cls-1" d="M49.81,481.46a1.49,1.49,0,0,0-1.48-1.33A1.09,1.09,0,0,0,47,481c0,0.65.27,0.92,1.49,1.24l0.7,0.18c1.89,0.5,2.58,1.18,2.58,2.53s-1.11,2.56-3.36,2.56c-1.76,0-2.94-.62-3.47-2.08l1.77-.62a1.75,1.75,0,0,0,1.74,1.39c1.09,0,1.52-.47,1.52-1.08s-0.29-.86-1.61-1.24l-0.7-.2c-1.8-.48-2.44-1.14-2.44-2.53s1.09-2.36,3.12-2.36a3.08,3.08,0,0,1,3.26,2.12Z"/><path class="cls-1" d="M64.24,481.46a1.49,1.49,0,0,0-1.48-1.33,1.09,1.09,0,0,0-1.3.89c0,0.65.27,0.92,1.49,1.24l0.7,0.18c1.89,0.5,2.58,1.18,2.58,2.53s-1.11,2.56-3.36,2.56c-1.76,0-2.94-.62-3.47-2.08l1.77-.62a1.75,1.75,0,0,0,1.74,1.39c1.09,0,1.52-.47,1.52-1.08s-0.29-.86-1.61-1.24l-0.7-.2c-1.8-.48-2.44-1.14-2.44-2.53s1.09-2.36,3.12-2.36A3.08,3.08,0,0,1,66,480.95Z"/><path class="cls-1" d="M76.44,477.52H74.37v-2h2.06v2Zm-0.08,9.8H74.45V479h1.91v8.32Z"/><path class="cls-1" d="M92.18,483.16c0,2.7-1.5,4.38-3.77,4.38s-3.76-1.64-3.76-4.33,1.52-4.38,3.77-4.38S92.18,480.46,92.18,483.16Zm-5.58,0c0,1.92.58,3,1.8,3s1.82-1,1.82-3-0.58-3-1.8-3S86.6,481.27,86.6,483.18Z"/><path class="cls-1" d="M102.33,480.46a3.39,3.39,0,0,1,2.73-1.64,2.28,2.28,0,0,1,2.38,2.5v6h-2v-5.47a1.14,1.14,0,0,0-1.15-1.39,2.55,2.55,0,0,0-1.94,1.41v5.46h-1.91V479h1.85v1.45Z"/><path class="cls-1" d="M120.39,481.46a1.49,1.49,0,0,0-1.48-1.33,1.09,1.09,0,0,0-1.3.89c0,0.65.27,0.92,1.49,1.24l0.7,0.18c1.89,0.5,2.58,1.18,2.58,2.53s-1.11,2.56-3.36,2.56c-1.76,0-2.94-.62-3.47-2.08l1.77-.62a1.75,1.75,0,0,0,1.74,1.39c1.09,0,1.52-.47,1.52-1.08s-0.29-.86-1.61-1.24l-0.7-.2c-1.8-.48-2.44-1.14-2.44-2.53s1.09-2.36,3.12-2.36a3.08,3.08,0,0,1,3.26,2.12Z"/><path class="cls-1" d="M6.36,432.38H7.8v1.42H6.36v2.62H4.62v-2.62H0.21v-1.33L4,424.79H6.36v7.59Zm-1.74-2.54c0-1.23,0-2.38.09-3.55H4.49c-0.38,1-.82,2-1.29,3l-1.42,3.06H4.62v-2.54Z"/><path class="cls-1" d="M20.13,430.56a1.49,1.49,0,0,0-1.48-1.33,1.09,1.09,0,0,0-1.3.89c0,0.65.27,0.92,1.48,1.24l0.7,0.18c1.89,0.5,2.58,1.18,2.58,2.53s-1.11,2.56-3.36,2.56c-1.76,0-2.94-.62-3.47-2.08l1.77-.62a1.75,1.75,0,0,0,1.74,1.39c1.09,0,1.52-.47,1.52-1.08S20,433.4,18.69,433l-0.7-.2c-1.8-.48-2.44-1.14-2.44-2.53s1.09-2.36,3.12-2.36A3.08,3.08,0,0,1,21.93,430Z"/><path class="cls-1" d="M31.72,432.68c0,1.58.71,2.62,2.09,2.62a1.77,1.77,0,0,0,1.76-1.58l1.73,0.5a3.3,3.3,0,0,1-3.5,2.41c-2.48,0-3.94-1.59-3.94-4.32s1.53-4.39,3.77-4.39,3.71,1.54,3.71,4.36v0.39H31.72Zm3.76-1.26c-0.09-1.39-.68-2.18-1.82-2.18s-1.82.85-1.91,2.18h3.73Z"/><path class="cls-1" d="M49.81,430.56a1.49,1.49,0,0,0-1.48-1.33,1.09,1.09,0,0,0-1.3.89c0,0.65.27,0.92,1.49,1.24l0.7,0.18c1.89,0.5,2.58,1.18,2.58,2.53s-1.11,2.56-3.36,2.56c-1.76,0-2.94-.62-3.47-2.08l1.77-.62a1.75,1.75,0,0,0,1.74,1.39c1.09,0,1.52-.47,1.52-1.08s-0.29-.86-1.61-1.24l-0.7-.2c-1.8-.48-2.44-1.14-2.44-2.53s1.09-2.36,3.12-2.36A3.08,3.08,0,0,1,51.62,430Z"/><path class="cls-1" d="M64.24,430.56a1.49,1.49,0,0,0-1.48-1.33,1.09,1.09,0,0,0-1.3.89c0,0.65.27,0.92,1.49,1.24l0.7,0.18c1.89,0.5,2.58,1.18,2.58,2.53s-1.11,2.56-3.36,2.56c-1.76,0-2.94-.62-3.47-2.08l1.77-.62a1.75,1.75,0,0,0,1.74,1.39c1.09,0,1.52-.47,1.52-1.08s-0.29-.86-1.61-1.24l-0.7-.2c-1.8-.48-2.44-1.14-2.44-2.53s1.09-2.36,3.12-2.36A3.08,3.08,0,0,1,66,430Z"/><path class="cls-1" d="M76.44,426.62H74.37v-2h2.06v2Zm-0.08,9.8H74.45v-8.32h1.91v8.32Z"/><path class="cls-1" d="M92.18,432.26c0,2.7-1.5,4.38-3.77,4.38s-3.76-1.64-3.76-4.33,1.52-4.38,3.77-4.38S92.18,429.56,92.18,432.26Zm-5.58,0c0,1.92.58,3,1.8,3s1.82-1,1.82-3-0.58-3-1.8-3S86.6,430.37,86.6,432.28Z"/><path class="cls-1" d="M102.33,429.56a3.39,3.39,0,0,1,2.73-1.64,2.28,2.28,0,0,1,2.38,2.5v6h-2V431a1.14,1.14,0,0,0-1.15-1.39,2.55,2.55,0,0,0-1.94,1.41v5.46h-1.91v-8.32h1.85v1.45Z"/><path class="cls-1" d="M120.39,430.56a1.49,1.49,0,0,0-1.48-1.33,1.09,1.09,0,0,0-1.3.89c0,0.65.27,0.92,1.49,1.24l0.7,0.18c1.89,0.5,2.58,1.18,2.58,2.53s-1.11,2.56-3.36,2.56c-1.76,0-2.94-.62-3.47-2.08l1.77-.62a1.75,1.75,0,0,0,1.74,1.39c1.09,0,1.52-.47,1.52-1.08s-0.29-.86-1.61-1.24l-0.7-.2c-1.8-.48-2.44-1.14-2.44-2.53s1.09-2.36,3.12-2.36a3.08,3.08,0,0,1,3.26,2.12Z"/><path class="cls-1" d="M5.12,378.18H7.28v1.47H1v-1.47H3.31v-8.24a8.53,8.53,0,0,1-2.14,1l-0.3-1.59A8.52,8.52,0,0,0,3.57,368H5.12v10.17Z"/><path class="cls-1" d="M20.13,373.79a1.49,1.49,0,0,0-1.48-1.33,1.09,1.09,0,0,0-1.3.89c0,0.65.27,0.92,1.48,1.24l0.7,0.18c1.89,0.5,2.58,1.18,2.58,2.53s-1.11,2.56-3.36,2.56c-1.76,0-2.94-.62-3.47-2.08l1.77-.62a1.75,1.75,0,0,0,1.74,1.39c1.09,0,1.52-.47,1.52-1.08s-0.29-.86-1.61-1.24L18,376c-1.8-.48-2.44-1.14-2.44-2.53s1.09-2.36,3.12-2.36a3.08,3.08,0,0,1,3.26,2.12Z"/><path class="cls-1" d="M31.72,375.91c0,1.58.71,2.62,2.09,2.62A1.77,1.77,0,0,0,35.57,377l1.73,0.5a3.3,3.3,0,0,1-3.5,2.41c-2.48,0-3.94-1.59-3.94-4.32s1.53-4.39,3.77-4.39,3.71,1.54,3.71,4.36v0.39H31.72Zm3.76-1.26c-0.09-1.39-.68-2.18-1.82-2.18s-1.82.85-1.91,2.18h3.73Z"/><path class="cls-1" d="M49.81,373.79a1.49,1.49,0,0,0-1.48-1.33,1.09,1.09,0,0,0-1.3.89c0,0.65.27,0.92,1.49,1.24l0.7,0.18c1.89,0.5,2.58,1.18,2.58,2.53s-1.11,2.56-3.36,2.56c-1.76,0-2.94-.62-3.47-2.08l1.77-.62a1.75,1.75,0,0,0,1.74,1.39c1.09,0,1.52-.47,1.52-1.08s-0.29-.86-1.61-1.24l-0.7-.2c-1.8-.48-2.44-1.14-2.44-2.53s1.09-2.36,3.12-2.36a3.08,3.08,0,0,1,3.26,2.12Z"/><path class="cls-1" d="M64.24,373.79a1.49,1.49,0,0,0-1.48-1.33,1.09,1.09,0,0,0-1.3.89c0,0.65.27,0.92,1.49,1.24l0.7,0.18c1.89,0.5,2.58,1.18,2.58,2.53s-1.11,2.56-3.36,2.56c-1.76,0-2.94-.62-3.47-2.08l1.77-.62a1.75,1.75,0,0,0,1.74,1.39c1.09,0,1.52-.47,1.52-1.08s-0.29-.86-1.61-1.24l-0.7-.2c-1.8-.48-2.44-1.14-2.44-2.53s1.09-2.36,3.12-2.36A3.08,3.08,0,0,1,66,373.27Z"/><path class="cls-1" d="M76.44,369.85H74.37v-2h2.06v2Zm-0.08,9.8H74.45v-8.32h1.91v8.32Z"/><path class="cls-1" d="M92.18,375.48c0,2.7-1.5,4.38-3.77,4.38s-3.76-1.64-3.76-4.33,1.52-4.38,3.77-4.38S92.18,372.79,92.18,375.48Zm-5.58,0c0,1.92.58,3,1.8,3s1.82-1,1.82-3-0.58-3-1.8-3S86.6,373.59,86.6,375.5Z"/><path class="cls-1" d="M102.33,372.79a3.39,3.39,0,0,1,2.73-1.64,2.28,2.28,0,0,1,2.38,2.5v6h-2v-5.47a1.14,1.14,0,0,0-1.15-1.39,2.55,2.55,0,0,0-1.94,1.41v5.46h-1.91v-8.32h1.85v1.45Z"/><path class="cls-1" d="M324.25,381.81h3.83v2.6H317v-2.6h4V367.23a15,15,0,0,1-3.78,1.82l-0.54-2.81a15.1,15.1,0,0,0,4.77-2.41h2.73v18Z"/><path class="cls-1" d="M335.83,368c0.78-2.89,3.08-4.42,6.19-4.42,3.72,0,6.14,2.17,6.14,5.14a4.45,4.45,0,0,1-3.91,4.61v0.19a5,5,0,0,1,4.31,5.14c0,3.62-2.63,6.08-6.54,6.08-3.38,0-5.6-1.37-6.51-4.53l3.3-1c0.46,2.06,1.42,2.89,3.19,2.89,1.93,0,3.13-1.29,3.13-3.46,0-2.33-1.1-3.7-4-3.7h-1.55V372.3H341c2.68,0,3.75-1.15,3.75-3.21a2.59,2.59,0,0,0-2.81-2.87c-1.42,0-2.57.88-2.84,2.81Z"/><path class="cls-1" d="M360.05,384.41l-2,4.18h-1.66l1.8-4.18h-2v-3.62h3.83v3.62Z"/><path class="cls-1" d="M380.55,374.12c0,7.58-2.3,10.66-6.48,10.66s-6.4-3-6.4-10.61,2.33-10.56,6.46-10.56S380.55,366.56,380.55,374.12Zm-9.43,0c0,6,.83,8,2.95,8s3-2,3-8-0.83-7.88-3-7.88S371.12,368.09,371.12,374.14Z"/><path class="cls-1" d="M400.43,374.12c0,7.58-2.3,10.66-6.48,10.66s-6.4-3-6.4-10.61,2.33-10.56,6.46-10.56S400.43,366.56,400.43,374.12Zm-9.43,0c0,6,.83,8,2.95,8s3-2,3-8-0.83-7.88-3-7.88S391,368.09,391,374.14Z"/><path class="cls-1" d="M420.32,374.12c0,7.58-2.3,10.66-6.48,10.66s-6.4-3-6.4-10.61,2.33-10.56,6.46-10.56S420.32,366.56,420.32,374.12Zm-9.43,0c0,6,.83,8,2.95,8s3-2,3-8-0.83-7.88-3-7.88S410.89,368.09,410.89,374.14Z"/><path class="cls-1" d="M441.33,384.94c-1.15,3.38-2.92,4.63-5.92,4.63a11.42,11.42,0,0,1-1.82-.13l-0.13-2.57a9.88,9.88,0,0,0,1.88.19,2.79,2.79,0,0,0,2.79-2.28l0.21-.64-5-14.44h3.56l1.74,6.16c0.48,1.69.8,3.11,1.23,4.82h0.27c0.46-1.66.83-3.16,1.31-4.88l1.69-6.11h3.35Z"/><path class="cls-1" d="M451.64,377.79c0,2.79,1.26,4.63,3.7,4.63,1.53,0,2.6-.86,3.11-2.79l3.05,0.88c-0.91,2.81-2.92,4.26-6.19,4.26-4.39,0-7-2.81-7-7.64s2.71-7.77,6.67-7.77c3.75,0,6.56,2.73,6.56,7.72v0.7h-9.94Zm6.64-2.22c-0.16-2.46-1.21-3.86-3.21-3.86s-3.22,1.5-3.38,3.86h6.59Z"/><path class="cls-1" d="M468.26,372.27a6,6,0,0,1,4.82-2.89c2.44,0,4.21,1.58,4.21,4.42v10.61h-3.46v-9.67c0-1.69-.72-2.46-2-2.46a4.5,4.5,0,0,0-3.43,2.49v9.65H465V369.7h3.27v2.57Z"/><path class="cls-1" d="M326.45,436.1H329v2.52h-2.55v4.64h-3.08v-4.64h-7.8v-2.36l6.65-13.58h4.23V436.1Zm-3.08-4.5c0-2.17.08-4.21,0.16-6.27h-0.37c-0.67,1.77-1.45,3.56-2.28,5.36l-2.52,5.41h5v-4.5Z"/><path class="cls-1" d="M348.64,433c0,7.58-2.3,10.66-6.48,10.66s-6.4-3-6.4-10.61,2.33-10.56,6.46-10.56S348.64,425.41,348.64,433Zm-9.43,0c0,6,.83,8,2.95,8s3-2,3-8-0.83-7.88-3-7.88S339.2,426.93,339.2,433Z"/><path class="cls-1" d="M360.05,443.25l-2,4.18h-1.66l1.8-4.18h-2v-3.62h3.83v3.62Z"/><path class="cls-1" d="M380.55,433c0,7.58-2.3,10.66-6.48,10.66s-6.4-3-6.4-10.61,2.33-10.56,6.46-10.56S380.55,425.41,380.55,433Zm-9.43,0c0,6,.83,8,2.95,8s3-2,3-8-0.83-7.88-3-7.88S371.12,426.93,371.12,433Z"/><path class="cls-1" d="M400.43,433c0,7.58-2.3,10.66-6.48,10.66s-6.4-3-6.4-10.61,2.33-10.56,6.46-10.56S400.43,425.41,400.43,433ZM391,433c0,6,.83,8,2.95,8s3-2,3-8-0.83-7.88-3-7.88S391,426.93,391,433Z"/><path class="cls-1" d="M420.32,433c0,7.58-2.3,10.66-6.48,10.66s-6.4-3-6.4-10.61,2.33-10.56,6.46-10.56S420.32,425.41,420.32,433Zm-9.43,0c0,6,.83,8,2.95,8s3-2,3-8-0.83-7.88-3-7.88S410.89,426.93,410.89,433Z"/><path class="cls-1" d="M441.33,443.79c-1.15,3.38-2.92,4.63-5.92,4.63a11.42,11.42,0,0,1-1.82-.13l-0.13-2.57a9.88,9.88,0,0,0,1.88.19,2.79,2.79,0,0,0,2.79-2.28l0.21-.64-5-14.44h3.56l1.74,6.16c0.48,1.69.8,3.11,1.23,4.82h0.27c0.46-1.66.83-3.16,1.31-4.88l1.69-6.11h3.35Z"/><path class="cls-1" d="M451.64,436.63c0,2.79,1.26,4.63,3.7,4.63,1.53,0,2.6-.86,3.11-2.79l3.05,0.88c-0.91,2.81-2.92,4.26-6.19,4.26-4.39,0-7-2.81-7-7.64s2.71-7.77,6.67-7.77c3.75,0,6.56,2.73,6.56,7.72v0.7h-9.94Zm6.64-2.22c-0.16-2.46-1.21-3.86-3.21-3.86s-3.22,1.5-3.38,3.86h6.59Z"/><path class="cls-1" d="M468.26,431.12a6,6,0,0,1,4.82-2.89c2.44,0,4.21,1.58,4.21,4.42v10.61h-3.46v-9.67c0-1.69-.72-2.46-2-2.46a4.5,4.5,0,0,0-3.43,2.49v9.65H465V428.54h3.27v2.57Z"/><path class="cls-1" d="M328.43,481.52a36.69,36.69,0,0,0-5.55,18.06h-3.78a37.63,37.63,0,0,1,6.08-17.71H316v-2.73h12.43v2.38Z"/><path class="cls-1" d="M348.64,489.29c0,7.58-2.3,10.66-6.48,10.66s-6.4-3-6.4-10.61,2.33-10.56,6.46-10.56S348.64,481.73,348.64,489.29Zm-9.43,0c0,6,.83,8,2.95,8s3-2,3-8-0.83-7.88-3-7.88S339.2,483.26,339.2,489.32Z"/><path class="cls-1" d="M360.05,499.58l-2,4.18h-1.66l1.8-4.18h-2V496h3.83v3.62Z"/><path class="cls-1" d="M380.55,489.29c0,7.58-2.3,10.66-6.48,10.66s-6.4-3-6.4-10.61,2.33-10.56,6.46-10.56S380.55,481.73,380.55,489.29Zm-9.43,0c0,6,.83,8,2.95,8s3-2,3-8-0.83-7.88-3-7.88S371.12,483.26,371.12,489.32Z"/><path class="cls-1" d="M400.43,489.29c0,7.58-2.3,10.66-6.48,10.66s-6.4-3-6.4-10.61,2.33-10.56,6.46-10.56S400.43,481.73,400.43,489.29Zm-9.43,0c0,6,.83,8,2.95,8s3-2,3-8-0.83-7.88-3-7.88S391,483.26,391,489.32Z"/><path class="cls-1" d="M420.32,489.29c0,7.58-2.3,10.66-6.48,10.66s-6.4-3-6.4-10.61,2.33-10.56,6.46-10.56S420.32,481.73,420.32,489.29Zm-9.43,0c0,6,.83,8,2.95,8s3-2,3-8-0.83-7.88-3-7.88S410.89,483.26,410.89,489.32Z"/><path class="cls-1" d="M441.33,500.12c-1.15,3.38-2.92,4.63-5.92,4.63a11.42,11.42,0,0,1-1.82-.13L433.45,502a9.88,9.88,0,0,0,1.88.19,2.79,2.79,0,0,0,2.79-2.28l0.21-.64-5-14.44h3.56l1.74,6.16c0.48,1.69.8,3.11,1.23,4.82h0.27c0.46-1.66.83-3.16,1.31-4.88l1.69-6.11h3.35Z"/><path class="cls-1" d="M451.64,493c0,2.79,1.26,4.64,3.7,4.64,1.53,0,2.6-.86,3.11-2.79l3.05,0.88c-0.91,2.81-2.92,4.26-6.19,4.26-4.39,0-7-2.81-7-7.64s2.71-7.77,6.67-7.77c3.75,0,6.56,2.73,6.56,7.72V493h-9.94Zm6.64-2.22c-0.16-2.47-1.21-3.86-3.21-3.86s-3.22,1.5-3.38,3.86h6.59Z"/><path class="cls-1" d="M468.26,487.44a6,6,0,0,1,4.82-2.89c2.44,0,4.21,1.58,4.21,4.42v10.61h-3.46v-9.67c0-1.69-.72-2.46-2-2.46a4.5,4.5,0,0,0-3.43,2.49v9.65H465V484.87h3.27v2.57Z"/><line class="cls-2" x1="139.39" y1="375.1" x2="280.66" y2="375.1"/><line class="cls-2" x1="139.39" y1="432.01" x2="280.66" y2="432.01"/><line class="cls-2" x1="139.39" y1="482.03" x2="280.66" y2="482.03"/><path class="cls-1" d="M13.32,331.81c0,4.89-2.56,7.69-6.36,7.69s-6.34-2.77-6.34-7.65,2.58-7.69,6.36-7.69S13.32,326.9,13.32,331.81Zm-10,0c0,3.78,1.45,5.69,3.63,5.69s3.61-1.91,3.61-5.69S9.16,326.14,7,326.14,3.36,328,3.36,331.83Z"/><path class="cls-1" d="M21.38,330.57a4.27,4.27,0,0,1,3.44-2.06,2.87,2.87,0,0,1,3,3.15v7.56H25.35v-6.89c0-1.2-.52-1.76-1.45-1.76a3.21,3.21,0,0,0-2.44,1.78v6.87H19V328.74h2.33v1.83Z"/><path class="cls-1" d="M35.79,334.5c0,2,.9,3.3,2.63,3.3a2.23,2.23,0,0,0,2.21-2l2.18,0.63a4.15,4.15,0,0,1-4.41,3c-3.13,0-5-2-5-5.44s1.93-5.54,4.75-5.54c2.67,0,4.68,1.95,4.68,5.5v0.5H35.79Zm4.73-1.58c-0.11-1.76-.86-2.75-2.29-2.75s-2.29,1.07-2.41,2.75h4.7Z"/><path class="cls-1" d="M53.86,334.37H48.29V332.5h5.57v1.87Z"/><path class="cls-1" d="M68.81,334c0,3.4-1.89,5.52-4.75,5.52s-4.73-2.06-4.73-5.46,1.91-5.52,4.75-5.52S68.81,330.57,68.81,334Zm-7,0c0,2.42.73,3.76,2.27,3.76s2.29-1.32,2.29-3.76-0.73-3.74-2.27-3.74S61.78,331.58,61.78,334Z"/><path class="cls-1" d="M76.82,330.57a4.27,4.27,0,0,1,3.44-2.06,2.87,2.87,0,0,1,3,3.15v7.56H80.79v-6.89c0-1.2-.52-1.76-1.45-1.76a3.21,3.21,0,0,0-2.44,1.78v6.87h-2.4V328.74h2.33v1.83Z"/><path class="cls-1" d="M94.86,334.37H89.29V332.5h5.57v1.87Z"/><path class="cls-1" d="M109.81,334c0,3.4-1.89,5.52-4.75,5.52s-4.73-2.06-4.73-5.46,1.91-5.52,4.75-5.52S109.81,330.57,109.81,334Zm-7,0c0,2.42.73,3.76,2.27,3.76s2.29-1.32,2.29-3.76-0.73-3.74-2.27-3.74S102.78,331.58,102.78,334Z"/><path class="cls-1" d="M117.82,330.57a4.27,4.27,0,0,1,3.44-2.06,2.87,2.87,0,0,1,3,3.15v7.56h-2.46v-6.89c0-1.2-.52-1.76-1.45-1.76a3.21,3.21,0,0,0-2.44,1.78v6.87h-2.4V328.74h2.33v1.83Z"/><path class="cls-1" d="M132.23,334.5c0,2,.9,3.3,2.63,3.3a2.23,2.23,0,0,0,2.21-2l2.18,0.63a4.15,4.15,0,0,1-4.41,3c-3.13,0-5-2-5-5.44s1.93-5.54,4.75-5.54c2.67,0,4.68,1.95,4.68,5.5v0.5h-7.08Zm4.73-1.58c-0.11-1.76-.86-2.75-2.29-2.75s-2.29,1.07-2.41,2.75H137Z"/><path class="cls-1" d="M156.49,328.74h2.35v1.76h-2.35v5.75c0,1,.42,1.51,1.3,1.51a5.54,5.54,0,0,0,1.22-.11l-0.1,1.72a12.59,12.59,0,0,1-1.87.11c-2,0-2.92-.86-2.92-2.79v-6.18h-1.57v-1.76h1.57v-2.88l2.37-.53v3.42Z"/><path class="cls-1" d="M169.45,330.76c-1.26,0-2.31.82-3,2.65v5.8H164.1V328.74h2.25v2.58c0.74-2.06,1.83-2.81,3.25-2.81Z"/><path class="cls-1" d="M174.51,331.37c0.53-1.89,2.06-2.88,4.33-2.88,2.71,0,4.07,1.15,4.07,3.47v4.16a27.85,27.85,0,0,0,.17,3.09h-2.21c-0.08-.46-0.11-0.76-0.17-1.37a3.93,3.93,0,0,1-3.3,1.62,3,3,0,0,1-3.23-3.11c0-1.83,1.15-3,3.42-3.46a20.1,20.1,0,0,1,3-.31V332a1.57,1.57,0,0,0-1.81-1.85,2,2,0,0,0-2,1.83Zm6.07,2.71a10.89,10.89,0,0,0-2.41.31,1.83,1.83,0,0,0-1.72,1.78,1.48,1.48,0,0,0,1.68,1.58,2.86,2.86,0,0,0,2.44-1.72v-1.95Z"/><path class="cls-1" d="M191.63,326.87H189V324.4h2.6v2.46Zm-0.1,12.35h-2.41V328.74h2.41v10.48Z"/><path class="cls-1" d="M200.16,330.57a4.27,4.27,0,0,1,3.44-2.06,2.87,2.87,0,0,1,3,3.15v7.56h-2.46v-6.89c0-1.2-.52-1.76-1.45-1.76a3.21,3.21,0,0,0-2.44,1.78v6.87h-2.4V328.74h2.33v1.83Z"/><path class="cls-1" d="M215.33,326.87h-2.6V324.4h2.6v2.46Zm-0.1,12.35h-2.4V328.74h2.4v10.48Z"/><path class="cls-1" d="M223.86,330.57a4.27,4.27,0,0,1,3.44-2.06,2.87,2.87,0,0,1,3,3.15v7.56h-2.46v-6.89c0-1.2-.52-1.76-1.45-1.76a3.21,3.21,0,0,0-2.44,1.78v6.87h-2.4V328.74h2.33v1.83Z"/><path class="cls-1" d="M245.43,329.22a2.38,2.38,0,0,0-1.87.53,3,3,0,0,1,.86,2.1c0,2.18-1.7,3.46-4.12,3.46a5.4,5.4,0,0,1-1.36-.17,1.15,1.15,0,0,0-.76.92c0,0.44.25,0.65,1.45,0.76L242,337c2.75,0.27,3.63,1.18,3.63,2.71,0,1.83-1.85,3.19-5.27,3.19-3,0-4.71-1-4.71-2.54,0-.92.76-1.62,1.93-2a1.57,1.57,0,0,1-1.47-1.51c0-.82.48-1.47,1.6-2.18a3.13,3.13,0,0,1-1.49-2.77c0-2,1.7-3.36,4.1-3.36a4.87,4.87,0,0,1,2.23.5,3,3,0,0,1,3-1.72ZM239,338.61a1.65,1.65,0,0,0-1.41,1.43c0,0.92,1.15,1.45,2.88,1.45,2,0,3.05-.65,3.05-1.39s-0.34-1-1.93-1.22Zm-0.61-6.78a1.91,1.91,0,1,0,3.82,0A1.91,1.91,0,1,0,238.41,331.83Z"/></svg>